<svg width="18" height="18" viewBox="0 0 18 18" fill="none" xmlns="http://www.w3.org/2000/svg">
<path d="M13.131 13L4.86905 13C4.57143 13 4.35317 12.9339 4.21429 12.8017C4.07143 12.6696 4 12.5124 4 12.3302C4 12.1695 4.05159 12.0051 4.15476 11.8372L8.20833 5.59478C8.35119 5.3733 8.48016 5.21969 8.59524 5.13396C8.70635 5.04465 8.84127 5 9 5C9.15476 5 9.28968 5.04465 9.40476 5.13396C9.51984 5.21969 9.64881 5.3733 9.79167 5.59478L13.8452 11.8372C13.9484 12.0051 14 12.1695 14 12.3302C14 12.5124 13.9286 12.6696 13.7857 12.8017C13.6429 12.9339 13.4246 13 13.131 13Z" fill="#787776"/>
</svg>
