<svg width="18" height="18" viewBox="0 0 18 18" fill="none" xmlns="http://www.w3.org/2000/svg">
<path d="M4.86905 5L13.131 5C13.4286 5 13.6468 5.06609 13.7857 5.19826C13.9286 5.33043 14 5.48761 14 5.66979C14 5.83054 13.9484 5.99486 13.8452 6.16276L9.79167 12.4052C9.64881 12.6267 9.51984 12.7803 9.40476 12.866C9.29365 12.9553 9.15873 13 9 13C8.84524 13 8.71032 12.9553 8.59524 12.866C8.48016 12.7803 8.35119 12.6267 8.20833 12.4052L4.15476 6.16276C4.05159 5.99486 4 5.83054 4 5.66979C4 5.48761 4.07143 5.33043 4.21429 5.19826C4.35714 5.06609 4.5754 5 4.86905 5Z" fill="#787776"/>
</svg>
