<svg preserveAspectRatio="none" width="100%" height="100%" overflow="visible" style="display: block;" viewBox="0 0 24 24" fill="none" xmlns="http://www.w3.org/2000/svg">
<g id="Frame 1618873378">
<path id="&#244;&#128;&#134;&#136;" d="M12.0078 16C11.6866 16 11.394 15.8735 11.1299 15.6205L5.31077 9.79886C5.20718 9.6926 5.12949 9.57875 5.07769 9.45731C5.0259 9.33586 5 9.2043 5 9.06262C5 8.86528 5.04661 8.68564 5.13984 8.52372C5.23825 8.3618 5.36774 8.23529 5.5283 8.14421C5.69404 8.04807 5.87532 8 6.07214 8C6.37255 8 6.6367 8.10879 6.86459 8.32638L12.3496 13.8368H11.6659L17.1354 8.32638C17.3633 8.10879 17.6275 8 17.9279 8C18.1247 8 18.3034 8.04807 18.4639 8.14421C18.6297 8.23529 18.7592 8.3618 18.8524 8.52372C18.9508 8.68564 19 8.86528 19 9.06262C19 9.34598 18.8964 9.58887 18.6892 9.79127L12.8701 15.6205C12.7458 15.747 12.6112 15.8406 12.4661 15.9013C12.3263 15.962 12.1735 15.9949 12.0078 16Z" fill="var(--fill-0, #535252)"/>
</g>
</svg>
