<svg preserveAspectRatio="none" width="100%" height="100%" overflow="visible" style="display: block;" viewBox="0 0 26.25 26.25" fill="none" xmlns="http://www.w3.org/2000/svg">
<g id="Funnel" clip-path="url(#clip0_121_3895)">
<g id="Vector">
</g>
<path id="Vector_2" d="M3.49445 6.29385C3.38771 6.17638 3.31734 6.03046 3.29188 5.8738C3.26641 5.71713 3.28694 5.55644 3.35098 5.41121C3.41502 5.26598 3.51982 5.14245 3.65267 5.05559C3.78552 4.96874 3.94071 4.92229 4.09944 4.92188H22.1463C22.3052 4.92189 22.4607 4.96805 22.5938 5.05476C22.727 5.14146 22.8321 5.26497 22.8964 5.41028C22.9607 5.55558 22.9814 5.71644 22.956 5.87329C22.9306 6.03015 22.8602 6.17625 22.7533 6.29385L15.5838 13.9453V19.9592C15.5839 20.0943 15.5506 20.2273 15.4869 20.3465C15.4233 20.4656 15.3311 20.5672 15.2188 20.6421L11.9375 22.8293C11.8141 22.9116 11.6707 22.959 11.5225 22.9662C11.3743 22.9735 11.2269 22.9405 11.096 22.8706C10.9651 22.8007 10.8556 22.6967 10.7792 22.5695C10.7027 22.4423 10.6622 22.2968 10.6619 22.1484V13.9453L3.49445 6.29385Z" stroke="var(--stroke-0, white)" stroke-width="1.64062" stroke-linecap="round" stroke-linejoin="round"/>
</g>
<defs>
<clipPath id="clip0_121_3895">
<rect width="26.25" height="26.25" fill="white"/>
</clipPath>
</defs>
</svg>
