<svg width="20" height="20" viewBox="0 0 20 20" fill="none" xmlns="http://www.w3.org/2000/svg">
<g style="mix-blend-mode:plus-darker">
<path d="M3.24528 11.2507C2.90566 11.2507 2.61321 11.128 2.36792 10.8826C2.12264 10.6372 2 10.3414 2 9.99528C2 9.64916 2.12264 9.35339 2.36792 9.10796C2.61321 8.86254 2.90566 8.73982 3.24528 8.73982H16.7547C17.0943 8.73982 17.3868 8.86254 17.6321 9.10796C17.8774 9.35339 18 9.64916 18 9.99528C18 10.3414 17.8774 10.6372 17.6321 10.8826C17.3868 11.128 17.0943 11.2507 16.7547 11.2507H3.24528ZM10 18C9.65409 18 9.35849 17.8773 9.11321 17.6319C8.86792 17.3864 8.74528 17.0938 8.74528 16.754V3.24602C8.74528 2.90619 8.86792 2.61357 9.11321 2.36814C9.35849 2.12271 9.65409 2 10 2C10.3459 2 10.6415 2.12271 10.8868 2.36814C11.1321 2.61357 11.2547 2.90619 11.2547 3.24602V16.754C11.2547 17.0938 11.1321 17.3864 10.8868 17.6319C10.6415 17.8773 10.3459 18 10 18Z" fill="#787776"/>
</g>
</svg>
