<svg width="20" height="20" viewBox="0 0 20 20" fill="none" xmlns="http://www.w3.org/2000/svg">
<g style="mix-blend-mode:plus-darker">
<path d="M4 15.7833V4.21667C4 3.8 4.09913 3.49444 4.29739 3.3C4.49565 3.1 4.73141 3 5.00469 3C5.24581 3 5.4923 3.07222 5.74414 3.21667L15.1078 8.89167C15.4401 9.09167 15.6705 9.27222 15.7991 9.43333C15.933 9.58889 16 9.77778 16 10C16 10.2167 15.933 10.4056 15.7991 10.5667C15.6705 10.7278 15.4401 10.9083 15.1078 11.1083L5.74414 16.7833C5.4923 16.9278 5.24581 17 5.00469 17C4.73141 17 4.49565 16.9 4.29739 16.7C4.09913 16.5 4 16.1944 4 15.7833Z" fill="#787776"/>
</g>
</svg>
