<svg width="16" height="16" viewBox="0 0 16 16" fill="none" xmlns="http://www.w3.org/2000/svg">
<g style="mix-blend-mode:plus-darker">
<path d="M6.94259 10.1937L6.93478 9.54707C6.92438 9.17599 6.9712 8.84311 7.07525 8.54843C7.1793 8.24829 7.34318 7.97544 7.56689 7.72988C7.7958 7.48431 8.08714 7.24966 8.44091 7.02592C8.75307 6.82401 9.00279 6.63302 9.19008 6.45293C9.37737 6.26739 9.51003 6.06821 9.58807 5.85539C9.67131 5.64257 9.71293 5.39973 9.71293 5.12688V5.1105C9.71293 4.79945 9.6401 4.52387 9.49443 4.28377C9.34875 4.0382 9.14325 3.8472 8.87793 3.71078C8.6178 3.57435 8.31345 3.50614 7.96488 3.50614C7.60591 3.50614 7.29376 3.57981 7.02843 3.72715C6.7631 3.86903 6.5524 4.06548 6.39632 4.31651C6.24545 4.56753 6.157 4.85948 6.13099 5.19236L6.12319 5.26603H4.5L4.5078 5.17599C4.53902 4.58663 4.68989 4.05184 4.96042 3.57162C5.23616 3.09141 5.63155 2.70941 6.1466 2.42565C6.66165 2.14188 7.29376 2 8.04292 2C8.73486 2 9.33835 2.1337 9.8534 2.40109C10.3737 2.66303 10.7768 3.02046 11.063 3.4734C11.3543 3.92633 11.5 4.44748 11.5 5.03683V5.05321C11.5 5.68076 11.3543 6.22374 11.063 6.68213C10.7768 7.13506 10.3737 7.52251 9.8534 7.84447C9.52044 8.05184 9.26031 8.24829 9.07302 8.43383C8.88573 8.61392 8.75307 8.80764 8.67503 9.01501C8.60219 9.21692 8.56577 9.45703 8.56577 9.73533V10.1937H6.94259ZM7.76979 14C7.47845 14 7.23393 13.899 7.03623 13.6971C6.83854 13.4898 6.73969 13.236 6.73969 12.9359C6.73969 12.6357 6.83854 12.3847 7.03623 12.1828C7.23393 11.9754 7.47845 11.8718 7.76979 11.8718C8.06113 11.8718 8.30565 11.9754 8.50334 12.1828C8.70104 12.3847 8.79989 12.6357 8.79989 12.9359C8.79989 13.236 8.70104 13.4898 8.50334 13.6971C8.30565 13.899 8.06113 14 7.76979 14Z" fill="#787776"/>
</g>
</svg>
