<svg width="20" height="20" viewBox="0 0 20 20" fill="none" xmlns="http://www.w3.org/2000/svg">
<g style="mix-blend-mode:plus-darker">
<path fill-rule="evenodd" clip-rule="evenodd" d="M4.71103 4.29019C5.03257 4.27051 5.30952 4.50986 5.32961 4.8248L6.05878 16.2519C6.05891 16.254 6.05904 16.2561 6.05915 16.2582C6.07932 16.6427 6.33996 16.8589 6.64325 16.8589H13.3516C13.6519 16.8589 13.9114 16.6475 13.936 16.2527L14.6652 4.8248C14.6853 4.50986 14.9623 4.27051 15.2838 4.29019C15.6053 4.30988 15.8497 4.58114 15.8296 4.89608L15.1005 16.3224C15.1005 16.3224 15.1005 16.3224 15.1005 16.3225C15.0427 17.2481 14.3397 18.0016 13.3516 18.0016H6.64325C5.6644 18.0016 4.94488 17.2547 4.8942 16.3203L4.16522 4.89608C4.14512 4.58114 4.38949 4.30988 4.71103 4.29019Z" fill="#787776"/>
<path fill-rule="evenodd" clip-rule="evenodd" d="M3 4.86042C3 4.54487 3.26117 4.28906 3.58333 4.28906H16.4167C16.7388 4.28906 17 4.54487 17 4.86042C17 5.17597 16.7388 5.43177 16.4167 5.43177H3.58333C3.26117 5.43177 3 5.17597 3 4.86042Z" fill="#787776"/>
<path fill-rule="evenodd" clip-rule="evenodd" d="M8.53475 3.14271C8.49664 3.1426 8.45889 3.14987 8.42366 3.16411C8.38843 3.17834 8.35642 3.19925 8.32947 3.22565C8.30252 3.25204 8.28117 3.28339 8.26664 3.3179C8.2521 3.35241 8.24468 3.38939 8.24479 3.42672L8.2448 3.42839V4.85677C8.2448 5.17232 7.98363 5.42813 7.66146 5.42813C7.3393 5.42813 7.07813 5.17232 7.07813 4.85677V3.42912C7.07769 3.24149 7.11507 3.05561 7.18813 2.88215C7.2613 2.7084 7.36882 2.55054 7.50451 2.41763C7.6402 2.28473 7.80138 2.17941 7.97877 2.10774C8.15587 2.03619 8.34564 1.99958 8.53721 2H11.4524C11.6439 1.99958 11.8337 2.03619 12.0108 2.10774C12.1882 2.17941 12.3494 2.28473 12.4851 2.41763C12.6208 2.55054 12.7283 2.7084 12.8015 2.88215C12.8745 3.05565 12.9119 3.24156 12.9115 3.42924V4.85677C12.9115 5.17232 12.6503 5.42813 12.3281 5.42813C12.006 5.42813 11.7448 5.17232 11.7448 4.85677V3.42839L11.7448 3.42672C11.7449 3.38939 11.7375 3.35241 11.723 3.3179C11.7084 3.28339 11.6871 3.25204 11.6601 3.22565C11.6332 3.19926 11.6012 3.17834 11.5659 3.16411C11.5307 3.14987 11.4929 3.1426 11.4548 3.14271L11.4531 3.14271H8.53646L8.53475 3.14271Z" fill="#787776"/>
<path fill-rule="evenodd" clip-rule="evenodd" d="M9.9974 6.57812C10.3196 6.57812 10.5807 6.83393 10.5807 7.14948V15.1484C10.5807 15.464 10.3196 15.7198 9.9974 15.7198C9.67523 15.7198 9.41406 15.464 9.41406 15.1484V7.14948C9.41406 6.83393 9.67523 6.57812 9.9974 6.57812Z" fill="#787776"/>
<path fill-rule="evenodd" clip-rule="evenodd" d="M7.3594 6.5785C7.68136 6.56723 7.95168 6.81374 7.96318 7.12909L8.25484 15.1281C8.26634 15.4434 8.01466 15.7082 7.6927 15.7194C7.37074 15.7307 7.10042 15.4842 7.08892 15.1688L6.79725 7.16988C6.78576 6.85453 7.03743 6.58976 7.3594 6.5785Z" fill="#787776"/>
<path fill-rule="evenodd" clip-rule="evenodd" d="M12.6458 6.5785C12.9678 6.58976 13.2195 6.85453 13.208 7.16988L12.9163 15.1688C12.9048 15.4842 12.6345 15.7307 12.3125 15.7194C11.9906 15.7082 11.7389 15.4434 11.7504 15.1281L12.042 7.12909C12.0535 6.81374 12.3239 6.56723 12.6458 6.5785Z" fill="#787776"/>
</g>
</svg>
