<svg width="12" height="12" viewBox="0 0 12 12" fill="none" xmlns="http://www.w3.org/2000/svg">
<g style="mix-blend-mode:plus-darker">
<path fill-rule="evenodd" clip-rule="evenodd" d="M2.98443 3.14119C3.16816 3.13134 3.32642 3.25108 3.3379 3.40864L3.75457 9.12534C3.75465 9.12639 3.75472 9.12745 3.75478 9.1285C3.76631 9.32087 3.91525 9.429 4.08855 9.429H7.92189C8.09348 9.429 8.24176 9.32328 8.25584 9.12573L8.67254 3.40864C8.68402 3.25108 8.84228 3.13134 9.02601 3.14119C9.20975 3.15104 9.34939 3.28674 9.3379 3.4443L8.92127 9.1606C8.92127 9.16062 8.92126 9.16064 8.92126 9.16065C8.88823 9.62372 8.48652 10.0007 7.92189 10.0007H4.08855C3.52921 10.0007 3.11805 9.62702 3.0891 9.15955L2.67254 3.4443C2.66105 3.28674 2.80069 3.15104 2.98443 3.14119Z" fill="#787776"/>
<path fill-rule="evenodd" clip-rule="evenodd" d="M2 3.42646C2 3.2686 2.14924 3.14062 2.33333 3.14062H9.66667C9.85076 3.14062 10 3.2686 10 3.42646C10 3.58432 9.85076 3.71229 9.66667 3.71229H2.33333C2.14924 3.71229 2 3.58432 2 3.42646Z" fill="#787776"/>
<path fill-rule="evenodd" clip-rule="evenodd" d="M5.16048 2.57167C5.13871 2.57162 5.11713 2.57525 5.097 2.58237C5.07687 2.5895 5.05858 2.59996 5.04318 2.61316C5.02778 2.62637 5.01558 2.64205 5.00728 2.65931C4.99897 2.67658 4.99473 2.69508 4.99479 2.71375L4.99479 2.71459V3.42918C4.99479 3.58704 4.84556 3.71501 4.66146 3.71501C4.47737 3.71501 4.32813 3.58704 4.32813 3.42918V2.71495C4.32788 2.62109 4.34924 2.5281 4.39098 2.44132C4.4328 2.3544 4.49424 2.27542 4.57178 2.20893C4.64931 2.14244 4.74141 2.08976 4.84278 2.0539C4.94398 2.0181 5.05242 1.99979 5.16189 2H6.8277C6.93717 1.99979 7.04561 2.0181 7.14681 2.0539C7.24817 2.08976 7.34027 2.14244 7.41781 2.20893C7.49535 2.27542 7.55679 2.3544 7.59861 2.44132C7.64036 2.52812 7.66172 2.62112 7.66146 2.71501V3.42918C7.66146 3.58704 7.51222 3.71501 7.32813 3.71501C7.14403 3.71501 6.99479 3.58704 6.99479 3.42918V2.71459L6.9948 2.71375C6.99486 2.69508 6.99062 2.67658 6.98231 2.65931C6.97401 2.64205 6.96181 2.62637 6.94641 2.61316C6.93101 2.59996 6.91272 2.5895 6.89259 2.58237C6.87245 2.57525 6.85088 2.57162 6.8291 2.57167L6.82813 2.57167H5.16146L5.16048 2.57167Z" fill="#787776"/>
<path fill-rule="evenodd" clip-rule="evenodd" d="M6.00521 4.28906C6.1893 4.28906 6.33854 4.41704 6.33854 4.5749V8.57659C6.33854 8.73445 6.1893 8.86242 6.00521 8.86242C5.82111 8.86242 5.67188 8.73445 5.67188 8.57659V4.5749C5.67188 4.41704 5.82111 4.28906 6.00521 4.28906Z" fill="#787776"/>
<path fill-rule="evenodd" clip-rule="evenodd" d="M4.50113 4.28925C4.68511 4.28361 4.83958 4.40694 4.84615 4.5647L5.01281 8.56639C5.01938 8.72415 4.87557 8.85661 4.69159 8.86224C4.50761 8.86788 4.35314 8.74455 4.34657 8.58679L4.1799 4.5851C4.17333 4.42734 4.31715 4.29488 4.50113 4.28925Z" fill="#787776"/>
<path fill-rule="evenodd" clip-rule="evenodd" d="M7.5119 4.28925C7.69588 4.29488 7.8397 4.42734 7.83313 4.5851L7.66646 8.58679C7.65989 8.74455 7.50542 8.86788 7.32144 8.86224C7.13746 8.85661 6.99365 8.72415 7.00022 8.56639L7.16688 4.5647C7.17345 4.40694 7.32792 4.28361 7.5119 4.28925Z" fill="#787776"/>
</g>
</svg>
