<svg width="16" height="16" viewBox="0 0 16 16" fill="none" xmlns="http://www.w3.org/2000/svg">
<g style="mix-blend-mode:plus-darker">
<path d="M13.0195 8.39595C12.9216 8.28647 12.8676 8.14573 12.8676 8C12.8676 7.85428 12.9216 7.71353 13.0195 7.60405L13.8013 6.74017C13.8874 6.64579 13.9409 6.52702 13.9541 6.40092C13.9672 6.27482 13.9394 6.14786 13.8746 6.03827L12.6531 3.96255C12.5889 3.85308 12.4912 3.7663 12.3739 3.71459C12.2565 3.66289 12.1256 3.64889 11.9996 3.67459L10.8515 3.90256C10.7054 3.93221 10.5533 3.90831 10.4239 3.83537C10.2945 3.76242 10.1968 3.64548 10.1491 3.50661L9.7766 2.40876C9.73563 2.2896 9.65758 2.18611 9.55346 2.11291C9.44935 2.0397 9.32445 2.00049 9.19642 2.00082H6.75353C6.62035 1.99399 6.48856 2.03017 6.37828 2.10383C6.268 2.17749 6.1853 2.28459 6.14281 2.40876L5.8008 3.50661C5.75317 3.64548 5.65543 3.76242 5.52604 3.83537C5.39666 3.90831 5.24457 3.93221 5.09847 3.90256L3.91978 3.67459C3.80041 3.65802 3.67872 3.67652 3.57004 3.72776C3.46136 3.77901 3.37055 3.8607 3.30905 3.96255L2.08761 6.03827C2.02114 6.14664 1.99125 6.27289 2.00222 6.39895C2.01319 6.52502 2.06445 6.64445 2.14868 6.74017L2.9243 7.60405C3.02221 7.71353 3.07621 7.85428 3.07621 8C3.07621 8.14573 3.02221 8.28647 2.9243 8.39595L2.14868 9.25983C2.06445 9.35555 2.01319 9.47498 2.00222 9.60105C1.99125 9.72711 2.02114 9.85336 2.08761 9.96173L3.30905 12.0375C3.37324 12.1469 3.47097 12.2337 3.58831 12.2854C3.70565 12.3371 3.83661 12.3511 3.96253 12.3254L5.11068 12.0974C5.25678 12.0678 5.40887 12.0917 5.53826 12.1646C5.66765 12.2376 5.76538 12.3545 5.81302 12.4934L6.18556 13.5912C6.22805 13.7154 6.31075 13.8225 6.42103 13.8962C6.53131 13.9698 6.6631 14.006 6.79628 13.9992H9.23917C9.3672 13.9995 9.4921 13.9603 9.59621 13.8871C9.70033 13.8139 9.77838 13.7104 9.81935 13.5912L10.1919 12.4934C10.2395 12.3545 10.3373 12.2376 10.4667 12.1646C10.596 12.0917 10.7481 12.0678 10.8942 12.0974L12.0424 12.3254C12.1683 12.3511 12.2993 12.3371 12.4166 12.2854C12.5339 12.2337 12.6317 12.1469 12.6959 12.0375L13.9173 9.96173C13.9821 9.85214 14.01 9.72518 13.9968 9.59908C13.9836 9.47298 13.9302 9.35421 13.844 9.25983L13.0195 8.39595ZM12.1096 9.19984L12.5981 9.73976L11.8164 11.0716L11.0958 10.9276C10.6559 10.8393 10.1984 10.9127 9.80995 11.1339C9.42154 11.355 9.12933 11.7086 8.98877 12.1274L8.7567 12.7993H7.19325L6.97339 12.1154C6.83283 11.6966 6.54062 11.343 6.15221 11.1219C5.76381 10.9007 5.30625 10.8273 4.8664 10.9156L4.14574 11.0596L3.3518 9.73376L3.84038 9.19384C4.14083 8.86387 4.30693 8.4367 4.30693 7.994C4.30693 7.5513 4.14083 7.12413 3.84038 6.79416L3.3518 6.25424L4.13353 4.93442L4.85418 5.0784C5.29404 5.16672 5.75159 5.09332 6.14 4.87214C6.5284 4.65097 6.82062 4.2974 6.96117 3.87856L7.19325 3.20065H8.7567L8.98877 3.88456C9.12933 4.3034 9.42154 4.65696 9.80995 4.87814C10.1984 5.09932 10.6559 5.17272 11.0958 5.0844L11.8164 4.94042L12.5981 6.27223L12.1096 6.81216C11.8125 7.14137 11.6485 7.56607 11.6485 8.006C11.6485 8.44593 11.8125 8.87063 12.1096 9.19984ZM7.97497 5.60033C7.49182 5.60033 7.01951 5.74107 6.61778 6.00474C6.21604 6.26842 5.90293 6.6432 5.71804 7.08168C5.53314 7.52017 5.48476 8.00266 5.57902 8.46815C5.67328 8.93364 5.90594 9.36123 6.24759 9.69683C6.58923 10.0324 7.02451 10.261 7.49839 10.3536C7.97226 10.4462 8.46345 10.3986 8.90983 10.217C9.35621 10.0354 9.73773 9.72781 10.0062 9.33319C10.2746 8.93856 10.4179 8.47461 10.4179 8C10.4179 7.36357 10.1605 6.7532 9.70236 6.30317C9.24423 5.85315 8.62287 5.60033 7.97497 5.60033ZM7.97497 9.19984C7.73339 9.19984 7.49724 9.12947 7.29637 8.99763C7.09551 8.86579 6.93895 8.6784 6.84651 8.45916C6.75406 8.23992 6.72987 7.99867 6.777 7.76592C6.82413 7.53318 6.94046 7.31939 7.11128 7.15159C7.2821 6.98379 7.49974 6.86951 7.73668 6.82322C7.97362 6.77692 8.21921 6.80068 8.4424 6.8915C8.66559 6.98231 8.85635 7.13609 8.99057 7.33341C9.12478 7.53072 9.19642 7.76269 9.19642 8C9.19642 8.31822 9.06773 8.6234 8.83866 8.84841C8.6096 9.07343 8.29892 9.19984 7.97497 9.19984Z" fill="#787776"/>
</g>
</svg>
