<svg width="16" height="16" viewBox="0 0 16 16" fill="none" xmlns="http://www.w3.org/2000/svg">
<g style="mix-blend-mode:plus-darker">
<path d="M1.99976 4.23425H13.9998" stroke="#787776" stroke-width="1.25" stroke-linecap="round" stroke-linejoin="round"/>
<path d="M3.49976 4.23425H12.4998V13.9253C12.4998 14.2109 12.3944 14.4848 12.2069 14.6867C12.0193 14.8887 11.765 15.0021 11.4998 15.0021H4.49976C4.23454 15.0021 3.98019 14.8887 3.79265 14.6867C3.60511 14.4848 3.49976 14.2109 3.49976 13.9253V4.23425Z" stroke="#787776" stroke-width="1.25" stroke-linecap="round" stroke-linejoin="round"/>
<path d="M5.49976 4.23024V3.69185C5.49976 2.97789 5.76315 2.29318 6.23199 1.78834C6.70083 1.2835 7.33671 0.999878 7.99976 0.999878C8.6628 0.999878 9.29868 1.2835 9.76752 1.78834C10.2364 2.29318 10.4998 2.97789 10.4998 3.69185V4.23024" stroke="#787776" stroke-width="1.25" stroke-linecap="round" stroke-linejoin="round"/>
<path d="M6.49976 6.38269V12.305" stroke="#787776" stroke-width="1.25" stroke-linecap="round" stroke-linejoin="round"/>
<path d="M9.49976 6.3905V12.3128" stroke="#787776" stroke-width="1.25" stroke-linecap="round" stroke-linejoin="round"/>
</g>
</svg>
