<svg width="12" height="12" viewBox="0 0 12 12" fill="none" xmlns="http://www.w3.org/2000/svg">
<g style="mix-blend-mode:plus-darker">
<path d="M2.62264 6.62537C2.45283 6.62537 2.3066 6.56401 2.18396 6.4413C2.06132 6.31858 2 6.1707 2 5.99764C2 5.82458 2.06132 5.6767 2.18396 5.55398C2.3066 5.43127 2.45283 5.36991 2.62264 5.36991H9.37736C9.54717 5.36991 9.6934 5.43127 9.81604 5.55398C9.93868 5.6767 10 5.82458 10 5.99764C10 6.1707 9.93868 6.31858 9.81604 6.4413C9.6934 6.56401 9.54717 6.62537 9.37736 6.62537H2.62264ZM6 10C5.82704 10 5.67925 9.93864 5.5566 9.81593C5.43396 9.69321 5.37264 9.5469 5.37264 9.37699V2.62301C5.37264 2.4531 5.43396 2.30678 5.5566 2.18407C5.67925 2.06136 5.82704 2 6 2C6.17296 2 6.32076 2.06136 6.4434 2.18407C6.56604 2.30678 6.62736 2.4531 6.62736 2.62301V9.37699C6.62736 9.5469 6.56604 9.69321 6.4434 9.81593C6.32076 9.93864 6.17296 10 6 10Z" fill="#787776"/>
</g>
</svg>
