<svg width="12" height="12" viewBox="0 0 12 12" fill="none" xmlns="http://www.w3.org/2000/svg">
<g style="mix-blend-mode:plus-darker">
<path d="M3 9.30476V2.69524C3 2.45714 3.04956 2.28254 3.14869 2.17143C3.24782 2.05714 3.36571 2 3.50234 2C3.62291 2 3.74615 2.04127 3.87207 2.12381L8.55392 5.36667C8.72003 5.48095 8.83523 5.58413 8.89953 5.67619C8.96651 5.76508 9 5.87302 9 6C9 6.12381 8.96651 6.23175 8.89953 6.32381C8.83523 6.41587 8.72003 6.51905 8.55392 6.63333L3.87207 9.87619C3.74615 9.95873 3.62291 10 3.50234 10C3.36571 10 3.24782 9.94286 3.14869 9.82857C3.04956 9.71429 3 9.53968 3 9.30476Z" fill="#787776"/>
</g>
</svg>
