<svg width="24" height="24" viewBox="0 0 24 24" fill="none" xmlns="http://www.w3.org/2000/svg">
<path d="M21.92 17.3803C21.8186 17.6245 21.6245 17.8186 21.3802 17.92C21.26 17.9713 21.1309 17.9984 21.0003 18H16.0017C15.7366 18 15.4823 17.8947 15.2948 17.7072C15.1074 17.5198 15.002 17.2656 15.002 17.0005C15.002 16.7354 15.1074 16.4812 15.2948 16.2937C15.4823 16.1063 15.7366 16.001 16.0017 16.001H18.591L13.0026 10.4137L9.71356 13.7121C9.62063 13.8058 9.51006 13.8801 9.38823 13.9309C9.26641 13.9816 9.13574 14.0077 9.00377 14.0077C8.87179 14.0077 8.74113 13.9816 8.6193 13.9309C8.49748 13.8801 8.38691 13.8058 8.29397 13.7121L2.29571 7.71497C2.20201 7.62205 2.12764 7.5115 2.07688 7.3897C2.02613 7.2679 2 7.13726 2 7.00531C2 6.87336 2.02613 6.74272 2.07688 6.62092C2.12764 6.49912 2.20201 6.38857 2.29571 6.29566C2.38865 6.20197 2.49922 6.12761 2.62104 6.07687C2.74287 6.02612 2.87353 6 3.00551 6C3.13748 6 3.26815 6.02612 3.38997 6.07687C3.5118 6.12761 3.62236 6.20197 3.7153 6.29566L9.00377 11.5931L12.2928 8.29469C12.3857 8.20101 12.4963 8.12665 12.6181 8.0759C12.74 8.02516 12.8706 7.99903 13.0026 7.99903C13.1346 7.99903 13.2652 8.02516 13.3871 8.0759C13.5089 8.12665 13.6195 8.20101 13.7124 8.29469L20.0006 14.5916V12.0029C20.0006 11.7378 20.1059 11.4836 20.2934 11.2961C20.4809 11.1087 20.7351 11.0034 21.0003 11.0034C21.2654 11.0034 21.5197 11.1087 21.7072 11.2961C21.8947 11.4836 22 11.7378 22 12.0029V17.0005C21.9984 17.1311 21.9712 17.2601 21.92 17.3803Z" fill="#787776"/>
</svg>
