<svg width="24" height="24" viewBox="0 0 24 24" fill="none" xmlns="http://www.w3.org/2000/svg">
<g style="mix-blend-mode:plus-darker">
<path d="M10.1873 15.6562L10.1739 14.5784C10.1561 13.96 10.2363 13.4052 10.4147 12.9141C10.5931 12.4138 10.874 11.9591 11.2575 11.5498C11.6499 11.1405 12.1494 10.7494 12.7559 10.3765C13.291 10.04 13.7191 9.72169 14.0401 9.42156C14.3612 9.11232 14.5886 8.78035 14.7224 8.42565C14.8651 8.07094 14.9365 7.66621 14.9365 7.21146V7.18417C14.9365 6.66576 14.8116 6.20646 14.5619 5.80628C14.3122 5.397 13.9599 5.07867 13.505 4.8513C13.0591 4.62392 12.5373 4.51023 11.9398 4.51023C11.3244 4.51023 10.7893 4.63301 10.3344 4.87858C9.8796 5.11505 9.51839 5.44247 9.25084 5.86085C8.9922 6.27922 8.84058 6.7658 8.79599 7.3206L8.78261 7.44338H6L6.01338 7.29331C6.06689 6.31105 6.32553 5.41974 6.7893 4.61937C7.26198 3.81901 7.9398 3.18236 8.82274 2.70941C9.70569 2.23647 10.7893 2 12.0736 2C13.2598 2 14.2943 2.22283 15.1773 2.66849C16.0691 3.10505 16.7603 3.70077 17.2508 4.45566C17.7503 5.21055 18 6.07913 18 7.06139V7.08868C18 8.13461 17.7503 9.03956 17.2508 9.80355C16.7603 10.5584 16.0691 11.2042 15.1773 11.7408C14.6065 12.0864 14.1605 12.4138 13.8395 12.7231C13.5184 13.0232 13.291 13.3461 13.1572 13.6917C13.0323 14.0282 12.9699 14.4284 12.9699 14.8922V15.6562H10.1873ZM11.6054 22C11.1059 22 10.6867 21.8317 10.3478 21.4952C10.0089 21.1496 9.83946 20.7267 9.83946 20.2265C9.83946 19.7262 10.0089 19.3079 10.3478 18.9713C10.6867 18.6257 11.1059 18.4529 11.6054 18.4529C12.1048 18.4529 12.524 18.6257 12.8629 18.9713C13.2018 19.3079 13.3712 19.7262 13.3712 20.2265C13.3712 20.7267 13.2018 21.1496 12.8629 21.4952C12.524 21.8317 12.1048 22 11.6054 22Z" fill="#787776"/>
</g>
</svg>
