<svg width="24" height="24" viewBox="0 0 24 24" fill="none" xmlns="http://www.w3.org/2000/svg">
<g style="mix-blend-mode:plus-darker">
<path d="M4 17.7827V6.21786C4 5.895 4.12967 5.58537 4.36048 5.35707C4.5913 5.12877 4.90435 5.00052 5.23077 5.00052H9.77231C10.0535 4.99241 10.3289 5.07981 10.5529 5.24814C10.7768 5.41648 10.9357 5.6556 11.0031 5.9257L11.3846 7.43521H18.7692C19.0957 7.43521 19.4087 7.56347 19.6395 7.79176C19.8703 8.02006 20 8.3297 20 8.65256V17.7827C20 18.1055 19.8703 18.4152 19.6395 18.6434C19.4087 18.8717 19.0957 19 18.7692 19H5.23077C4.90435 19 4.5913 18.8717 4.36048 18.6434C4.12967 18.4152 4 18.1055 4 17.7827Z" stroke="#787776" stroke-width="2" stroke-linecap="round" stroke-linejoin="round"/>
<path d="M12.1562 11.0859V15.3466" stroke="#787776" stroke-width="2" stroke-linecap="round" stroke-linejoin="round"/>
<path d="M10 13.2188H14.3077" stroke="#787776" stroke-width="2" stroke-linecap="round" stroke-linejoin="round"/>
</g>
</svg>
