<svg preserveAspectRatio="none" width="100%" height="100%" overflow="visible" style="display: block;" viewBox="0 0 12 12" fill="none" xmlns="http://www.w3.org/2000/svg">
<path id="&#244;&#128;&#138;&#171;" d="M4.99325 8.38703C5.46701 8.38703 5.91377 8.29851 6.33351 8.12146C6.75325 7.9403 7.12312 7.69326 7.44312 7.38034C7.76312 7.0633 8.01247 6.69686 8.19117 6.28101C8.37403 5.86516 8.46545 5.42048 8.46545 4.94699C8.46545 4.47349 8.37403 4.02882 8.19117 3.61297C8.01247 3.19712 7.76312 2.83067 7.44312 2.51364C7.12312 2.1966 6.75325 1.94956 6.33351 1.77252C5.91377 1.59547 5.46701 1.50695 4.99325 1.50695C4.51532 1.50695 4.06649 1.59547 3.64675 1.77252C3.22701 1.94956 2.85714 2.1966 2.53714 2.51364C2.21714 2.83067 1.96571 3.19712 1.78286 3.61297C1.60416 4.02882 1.51481 4.47349 1.51481 4.94699C1.51481 5.42048 1.60416 5.86516 1.78286 6.28101C1.96571 6.69686 2.21714 7.0633 2.53714 7.38034C2.85714 7.69326 3.22701 7.9403 3.64675 8.12146C4.06649 8.29851 4.51532 8.38703 4.99325 8.38703ZM4.99325 9.89398C4.30338 9.89398 3.65714 9.76428 3.05455 9.50489C2.4561 9.2455 1.92623 8.88935 1.46494 8.43644C1.00779 7.98353 0.648312 7.45857 0.386494 6.86155C0.128831 6.26454 0 5.62635 0 4.94699C0 4.26763 0.128831 3.62944 0.386494 3.03242C0.648312 2.43541 1.00779 1.91045 1.46494 1.45754C1.92623 1.00051 2.45818 0.644364 3.06078 0.389089C3.66338 0.129696 4.30753 0 4.99325 0C5.67896 0 6.32104 0.129696 6.91948 0.389089C7.52208 0.644364 8.05195 1.00051 8.50909 1.45754C8.97039 1.91045 9.32987 2.43541 9.58753 3.03242C9.84935 3.62944 9.98026 4.26763 9.98026 4.94699C9.98026 5.62635 9.84935 6.26454 9.58753 6.86155C9.32987 7.45857 8.97039 7.98353 8.50909 8.43644C8.05195 8.88935 7.52208 9.2455 6.91948 9.50489C6.32104 9.76428 5.67896 9.89398 4.99325 9.89398ZM10.9465 12C10.801 12 10.6618 11.9753 10.5288 11.9259C10.3958 11.8765 10.2774 11.8003 10.1735 11.6974L6.96935 8.51673L8.50909 7.02831L11.7008 10.1904C11.8088 10.2934 11.8857 10.4086 11.9314 10.5363C11.9771 10.668 12 10.8019 12 10.9377C12 11.1395 11.9543 11.3186 11.8629 11.475C11.7714 11.6356 11.6447 11.7633 11.4826 11.858C11.3247 11.9527 11.146 12 10.9465 12Z" fill="var(--fill-0, #AAAAAD)"/>
</svg>
