<svg preserveAspectRatio="none" width="100%" height="100%" overflow="visible" style="display: block;" viewBox="0 0 20 12" fill="none" xmlns="http://www.w3.org/2000/svg">
<path id="Vector" d="M19.92 0.6197C19.8186 0.375469 19.6245 0.181387 19.3802 0.0799613C19.26 0.0287451 19.1309 0.00157922 19.0003 0H14.0017C13.7366 0 13.4823 0.105306 13.2948 0.292752C13.1074 0.480198 13.002 0.734429 13.002 0.999517C13.002 1.26461 13.1074 1.51884 13.2948 1.70628C13.4823 1.89373 13.7366 1.99903 14.0017 1.99903H16.591L11.0026 7.58633L7.71356 4.28793C7.62063 4.19424 7.51006 4.11989 7.38823 4.06914C7.26641 4.0184 7.13574 3.99227 7.00377 3.99227C6.87179 3.99227 6.74113 4.0184 6.6193 4.06914C6.49748 4.11989 6.38691 4.19424 6.29397 4.28793L0.295713 10.285C0.202011 10.3779 0.127639 10.4885 0.0768846 10.6103C0.0261307 10.7321 0 10.8627 0 10.9947C0 11.1266 0.0261307 11.2573 0.0768846 11.3791C0.127639 11.5009 0.202011 11.6114 0.295713 11.7043C0.388649 11.798 0.499218 11.8724 0.621042 11.9231C0.742866 11.9739 0.873533 12 1.00551 12C1.13748 12 1.26815 11.9739 1.38997 11.9231C1.5118 11.8724 1.62236 11.798 1.7153 11.7043L7.00377 6.4069L10.2928 9.70531C10.3858 9.79899 10.4963 9.87335 10.6181 9.9241C10.74 9.97484 10.8706 10.001 11.0026 10.001C11.1346 10.001 11.2652 9.97484 11.3871 9.9241C11.5089 9.87335 11.6195 9.79899 11.7124 9.70531L18.0006 3.40835V5.9971C18.0006 6.26219 18.1059 6.51642 18.2934 6.70387C18.4809 6.89131 18.7351 6.99662 19.0003 6.99662C19.2654 6.99662 19.5197 6.89131 19.7072 6.70387C19.8947 6.51642 20 6.26219 20 5.9971V0.999517C19.9984 0.868903 19.9712 0.739865 19.92 0.6197Z" fill="var(--fill-0, #787776)"/>
</svg>
