<svg preserveAspectRatio="none" width="100%" height="100%" overflow="visible" style="display: block;" viewBox="0 0 14 8" fill="none" xmlns="http://www.w3.org/2000/svg">
<path id="&#244;&#128;&#134;&#136;" d="M7.00777 8C6.68664 8 6.39401 7.8735 6.12986 7.62049L0.310766 1.79886C0.207177 1.6926 0.129486 1.57875 0.0776915 1.45731C0.0258972 1.33586 0 1.2043 0 1.06262C0 0.865275 0.0466149 0.685642 0.139845 0.523719C0.238254 0.361796 0.36774 0.235294 0.528302 0.144213C0.694044 0.0480708 0.875324 0 1.07214 0C1.37255 0 1.6367 0.108792 1.86459 0.326376L7.34961 5.83681H6.66593L12.1354 0.326376C12.3633 0.108792 12.6275 0 12.9279 0C13.1247 0 13.3034 0.0480708 13.4639 0.144213C13.6297 0.235294 13.7592 0.361796 13.8524 0.523719C13.9508 0.685642 14 0.865275 14 1.06262C14 1.34598 13.8964 1.58887 13.6892 1.79127L7.87014 7.62049C7.74584 7.747 7.61117 7.84061 7.46615 7.90133C7.3263 7.96205 7.17351 7.99494 7.00777 8Z" fill="var(--fill-0, #484646)"/>
</svg>
