<svg preserveAspectRatio="none" width="100%" height="100%" overflow="visible" style="display: block;" viewBox="0 0 12 12" fill="none" xmlns="http://www.w3.org/2000/svg">
<path id="Vector" d="M11.0195 6.39595C10.9216 6.28647 10.8676 6.14573 10.8676 6C10.8676 5.85428 10.9216 5.71353 11.0195 5.60405L11.8013 4.74017C11.8874 4.64579 11.9409 4.52702 11.9541 4.40092C11.9672 4.27482 11.9394 4.14786 11.8746 4.03827L10.6531 1.96255C10.5889 1.85308 10.4912 1.7663 10.3739 1.71459C10.2565 1.66289 10.1256 1.64889 9.99963 1.67459L8.85148 1.90256C8.70538 1.93221 8.55329 1.90831 8.4239 1.83537C8.29451 1.76242 8.19678 1.64548 8.14914 1.50661L7.7766 0.40876C7.73563 0.289604 7.65758 0.18611 7.55346 0.112906C7.44935 0.0397019 7.32445 0.000491211 7.19642 0.000815864H4.75353C4.62035 -0.00601243 4.48856 0.0301677 4.37828 0.10383C4.268 0.177493 4.1853 0.284589 4.14281 0.40876L3.8008 1.50661C3.75317 1.64548 3.65543 1.76242 3.52604 1.83537C3.39666 1.90831 3.24457 1.93221 3.09847 1.90256L1.91978 1.67459C1.80041 1.65802 1.67872 1.67652 1.57004 1.72776C1.46136 1.77901 1.37055 1.8607 1.30905 1.96255L0.0876087 4.03827C0.0211377 4.14664 -0.00874978 4.27289 0.00221909 4.39895C0.013188 4.52502 0.0644515 4.64445 0.148681 4.74017L0.924298 5.60405C1.02221 5.71353 1.07621 5.85428 1.07621 6C1.07621 6.14573 1.02221 6.28647 0.924298 6.39595L0.148681 7.25983C0.0644515 7.35555 0.013188 7.47498 0.00221909 7.60105C-0.00874978 7.72711 0.0211377 7.85336 0.0876087 7.96173L1.30905 10.0375C1.37324 10.1469 1.47097 10.2337 1.58831 10.2854C1.70565 10.3371 1.83661 10.3511 1.96253 10.3254L3.11068 10.0974C3.25678 10.0678 3.40887 10.0917 3.53826 10.1646C3.66765 10.2376 3.76538 10.3545 3.81302 10.4934L4.18556 11.5912C4.22805 11.7154 4.31075 11.8225 4.42103 11.8962C4.53131 11.9698 4.6631 12.006 4.79628 11.9992H7.23917C7.3672 11.9995 7.4921 11.9603 7.59621 11.8871C7.70033 11.8139 7.77838 11.7104 7.81935 11.5912L8.1919 10.4934C8.23953 10.3545 8.33726 10.2376 8.46665 10.1646C8.59604 10.0917 8.74813 10.0678 8.89423 10.0974L10.0424 10.3254C10.1683 10.3511 10.2993 10.3371 10.4166 10.2854C10.5339 10.2337 10.6317 10.1469 10.6959 10.0375L11.9173 7.96173C11.9821 7.85214 12.01 7.72518 11.9968 7.59908C11.9836 7.47298 11.9302 7.35421 11.844 7.25983L11.0195 6.39595ZM10.1096 7.19984L10.5981 7.73976L9.81642 9.07158L9.09576 8.9276C8.65591 8.83928 8.19835 8.91268 7.80995 9.13385C7.42154 9.35503 7.12933 9.7086 6.98877 10.1274L6.7567 10.7993H5.19325L4.97339 10.1154C4.83283 9.6966 4.54062 9.34304 4.15221 9.12186C3.76381 8.90068 3.30625 8.82728 2.8664 8.9156L2.14574 9.05958L1.3518 7.73376L1.84038 7.19384C2.14083 6.86387 2.30693 6.4367 2.30693 5.994C2.30693 5.5513 2.14083 5.12413 1.84038 4.79416L1.3518 4.25424L2.13353 2.93442L2.85418 3.0784C3.29404 3.16672 3.75159 3.09332 4.14 2.87214C4.5284 2.65097 4.82062 2.2974 4.96117 1.87856L5.19325 1.20065H6.7567L6.98877 1.88456C7.12933 2.3034 7.42154 2.65696 7.80995 2.87814C8.19835 3.09932 8.65591 3.17272 9.09576 3.0844L9.81642 2.94042L10.5981 4.27223L10.1096 4.81216C9.81249 5.14137 9.64845 5.56607 9.64845 6.006C9.64845 6.44593 9.81249 6.87063 10.1096 7.19984ZM5.97497 3.60033C5.49182 3.60033 5.01951 3.74106 4.61778 4.00474C4.21604 4.26842 3.90293 4.6432 3.71804 5.08168C3.53314 5.52017 3.48476 6.00266 3.57902 6.46815C3.67328 6.93364 3.90594 7.36123 4.24759 7.69683C4.58923 8.03243 5.02451 8.26097 5.49839 8.35356C5.97226 8.44616 6.46345 8.39864 6.90983 8.21701C7.35621 8.03538 7.73773 7.72781 8.00616 7.33319C8.27459 6.93856 8.41786 6.47461 8.41786 6C8.41786 5.36357 8.16049 4.7532 7.70236 4.30317C7.24423 3.85315 6.62287 3.60033 5.97497 3.60033ZM5.97497 7.19984C5.73339 7.19984 5.49724 7.12947 5.29637 6.99763C5.09551 6.86579 4.93895 6.6784 4.8465 6.45916C4.75406 6.23992 4.72987 5.99867 4.777 5.76592C4.82413 5.53318 4.94046 5.31939 5.11128 5.15159C5.2821 4.98379 5.49974 4.86951 5.73668 4.82322C5.97362 4.77692 6.21921 4.80068 6.4424 4.8915C6.66559 4.98231 6.85635 5.13609 6.99057 5.33341C7.12478 5.53072 7.19642 5.76269 7.19642 6C7.19642 6.31822 7.06773 6.6234 6.83866 6.84841C6.6096 7.07343 6.29892 7.19984 5.97497 7.19984Z" fill="var(--fill-0, #787776)"/>
</svg>
