<svg preserveAspectRatio="none" width="100%" height="100%" overflow="visible" style="display: block;" viewBox="0 0 12 20" fill="none" xmlns="http://www.w3.org/2000/svg">
<g id="?" style="mix-blend-mode:plus-darker">
<path d="M4.18729 13.6562L4.17391 12.5784C4.15608 11.96 4.23634 11.4052 4.41472 10.9141C4.59309 10.4138 4.87402 9.95907 5.25752 9.5498C5.64994 9.14052 6.14939 8.74943 6.75585 8.37653C7.29097 8.04002 7.71906 7.72169 8.04013 7.42156C8.3612 7.11232 8.58863 6.78035 8.72241 6.42565C8.86511 6.07094 8.93645 5.66621 8.93645 5.21146V5.18417C8.93645 4.66576 8.81159 4.20646 8.56187 3.80628C8.31215 3.397 7.95987 3.07867 7.50502 2.8513C7.05909 2.62392 6.53735 2.51023 5.9398 2.51023C5.32441 2.51023 4.7893 2.63301 4.33445 2.87858C3.8796 3.11505 3.51839 3.44247 3.25084 3.86085C2.9922 4.27922 2.84058 4.7658 2.79599 5.3206L2.78261 5.44338H0L0.0133779 5.29331C0.0668896 4.31105 0.32553 3.41974 0.789298 2.61937C1.26198 1.81901 1.9398 1.18236 2.82274 0.709413C3.70569 0.236471 4.7893 0 6.07358 0C7.25975 0 8.29431 0.222829 9.17726 0.668486C10.0691 1.10505 10.7603 1.70077 11.2508 2.45566C11.7503 3.21055 12 4.07913 12 5.06139V5.08868C12 6.13461 11.7503 7.03956 11.2508 7.80355C10.7603 8.55844 10.0691 9.20418 9.17726 9.74079C8.60647 10.0864 8.16053 10.4138 7.83946 10.7231C7.51839 11.0232 7.29097 11.3461 7.15719 11.6917C7.03233 12.0282 6.9699 12.4284 6.9699 12.8922V13.6562H4.18729ZM5.60535 20C5.10591 20 4.68673 19.8317 4.34783 19.4952C4.00892 19.1496 3.83946 18.7267 3.83946 18.2265C3.83946 17.7262 4.00892 17.3079 4.34783 16.9713C4.68673 16.6257 5.10591 16.4529 5.60535 16.4529C6.10479 16.4529 6.52397 16.6257 6.86288 16.9713C7.20178 17.3079 7.37124 17.7262 7.37124 18.2265C7.37124 18.7267 7.20178 19.1496 6.86288 19.4952C6.52397 19.8317 6.10479 20 5.60535 20Z" fill="#787776"/>
</g>
</svg>
