<svg preserveAspectRatio="none" width="100%" height="100%" overflow="visible" style="display: block;" viewBox="0 0 20 20" fill="none" xmlns="http://www.w3.org/2000/svg">
<g id="Frame 1618873378">
<path id="&#244;&#128;&#134;&#136;" d="M9.99223 6C10.3134 6 10.606 6.1265 10.8701 6.37951L16.6892 12.2011C16.7928 12.3074 16.8705 12.4213 16.9223 12.5427C16.9741 12.6641 17 12.7957 17 12.9374C17 13.1347 16.9534 13.3144 16.8602 13.4763C16.7617 13.6382 16.6323 13.7647 16.4717 13.8558C16.306 13.9519 16.1247 14 15.9279 14C15.6275 14 15.3633 13.8912 15.1354 13.6736L9.65039 8.16319L10.3341 8.16319L4.86459 13.6736C4.6367 13.8912 4.37255 14 4.07214 14C3.87532 14 3.69663 13.9519 3.53607 13.8558C3.37033 13.7647 3.24084 13.6382 3.14761 13.4763C3.0492 13.3144 3 13.1347 3 12.9374C3 12.654 3.10359 12.4111 3.31076 12.2087L9.12986 6.37951C9.25416 6.253 9.38883 6.15939 9.53385 6.09867C9.6737 6.03795 9.82649 6.00506 9.99223 6Z" fill="var(--fill-0, #787776)"/>
</g>
</svg>
