<svg preserveAspectRatio="none" width="100%" height="100%" overflow="visible" style="display: block;" viewBox="0 0 12 12" fill="none" xmlns="http://www.w3.org/2000/svg">
<path id="Vector" d="M12 6C12 9.3138 9.3138 12 6 12C2.6862 12 0 9.3138 0 6C0 2.6862 2.6862 0 6 0V1.2C4.85072 1.20013 3.73963 1.61262 2.86869 2.36249C1.99775 3.11236 1.42477 4.14984 1.2539 5.28635C1.08302 6.42285 1.3256 7.58295 1.93754 8.55577C2.54947 9.52859 3.49015 10.2496 4.58858 10.5876C5.68701 10.9257 6.87028 10.8584 7.92333 10.3981C8.97637 9.93768 9.82928 9.11475 10.327 8.07885C10.8248 7.04295 10.9343 5.86284 10.6357 4.75302C10.3372 3.6432 9.65031 2.67734 8.7 2.031V3.6H7.5V0H11.1V1.2H9.6C10.3455 1.75856 10.9506 2.4832 11.3672 3.3164C11.7838 4.14961 12.0005 5.06845 12 6Z" fill="var(--fill-0, #787776)"/>
</svg>
