<svg preserveAspectRatio="none" width="100%" height="100%" overflow="visible" style="display: block;" viewBox="0 0 13.25 15.2522" fill="none" xmlns="http://www.w3.org/2000/svg">
<g id="Group">
<path id="Vector" d="M0.625 3.85938H12.625" stroke="var(--stroke-0, #787776)" stroke-width="1.25" stroke-linecap="round" stroke-linejoin="round"/>
<path id="Vector_2" d="M2.125 3.85938H11.125V13.5505C11.125 13.836 11.0196 14.1099 10.8321 14.3119C10.6446 14.5138 10.3902 14.6272 10.125 14.6272H3.125C2.85978 14.6272 2.60543 14.5138 2.41789 14.3119C2.23036 14.1099 2.125 13.836 2.125 13.5505V3.85938Z" stroke="var(--stroke-0, #787776)" stroke-width="1.25" stroke-linecap="round" stroke-linejoin="round"/>
<path id="Vector_3" d="M4.125 3.85536V3.31697C4.125 2.60301 4.38839 1.9183 4.85723 1.41346C5.32607 0.908617 5.96196 0.625 6.625 0.625C7.28804 0.625 7.92393 0.908617 8.39277 1.41346C8.86161 1.9183 9.125 2.60301 9.125 3.31697V3.85536" stroke="var(--stroke-0, #787776)" stroke-width="1.25" stroke-linecap="round" stroke-linejoin="round"/>
<path id="Vector_4" d="M5.125 6.00781V11.9301" stroke="var(--stroke-0, #787776)" stroke-width="1.25" stroke-linecap="round" stroke-linejoin="round"/>
<path id="Vector_5" d="M8.125 6.01562V11.938" stroke="var(--stroke-0, #787776)" stroke-width="1.25" stroke-linecap="round" stroke-linejoin="round"/>
</g>
</svg>
