<svg preserveAspectRatio="none" width="100%" height="100%" overflow="visible" style="display: block;" viewBox="0 0 20.0001 20.0001" fill="none" xmlns="http://www.w3.org/2000/svg">
<g id="_01_align_center">
<path id="Vector" d="M20 18.8233L14.7887 13.612C17.7027 10.0481 17.1759 4.79673 13.612 1.88275C10.0481 -1.03123 4.79678 -0.50437 1.88278 3.05956C-1.03123 6.62349 -0.504402 11.8748 3.05947 14.7888C6.12921 17.2987 10.5422 17.2987 13.6119 14.7887L18.8233 20L20 18.8233ZM8.34904 15.0068C4.67209 15.0068 1.69134 12.0261 1.69135 8.3491C1.69137 4.67214 4.67213 1.69138 8.34908 1.69136C12.026 1.69135 15.0068 4.67209 15.0068 8.34905C15.0026 12.0243 12.0243 15.0026 8.34904 15.0068Z" fill="var(--fill-0, white)"/>
</g>
</svg>
