<svg preserveAspectRatio="none" width="100%" height="100%" overflow="visible" style="display: block;" viewBox="0 0 16 16" fill="none" xmlns="http://www.w3.org/2000/svg">
<path id="&#244;&#128;&#138;&#171;" d="M6.65766 11.1827C7.28935 11.1827 7.88502 11.0647 8.44467 10.8286C9.00433 10.5871 9.49749 10.2577 9.92416 9.84045C10.3508 9.41774 10.6833 8.92915 10.9216 8.37468C11.1654 7.82021 11.2873 7.22731 11.2873 6.59599C11.2873 5.96466 11.1654 5.37176 10.9216 4.81729C10.6833 4.26282 10.3508 3.77423 9.92416 3.35152C9.49749 2.9288 9.00433 2.59942 8.44467 2.36336C7.88502 2.12729 7.28935 2.00926 6.65766 2.00926C6.02043 2.00926 5.42199 2.12729 4.86234 2.36336C4.30268 2.59942 3.80952 2.9288 3.38286 3.35152C2.95619 3.77423 2.62095 4.26282 2.37714 4.81729C2.13887 5.37176 2.01974 5.96466 2.01974 6.59599C2.01974 7.22731 2.13887 7.82021 2.37714 8.37468C2.62095 8.92915 2.95619 9.41774 3.38286 9.84045C3.80952 10.2577 4.30268 10.5871 4.86234 10.8286C5.42199 11.0647 6.02043 11.1827 6.65766 11.1827ZM6.65766 13.192C5.73784 13.192 4.87619 13.019 4.07273 12.6732C3.27481 12.3273 2.56831 11.8525 1.95325 11.2486C1.34372 10.6447 0.864416 9.94476 0.515325 9.14874C0.171775 8.35272 0 7.5018 0 6.59599C0 5.69017 0.171775 4.83925 0.515325 4.04323C0.864416 3.24721 1.34372 2.54726 1.95325 1.94339C2.56831 1.33402 3.27758 0.859153 4.08104 0.518785C4.8845 0.172928 5.74338 0 6.65766 0C7.57195 0 8.42805 0.172928 9.22597 0.518785C10.0294 0.859153 10.7359 1.33402 11.3455 1.94339C11.9605 2.54726 12.4398 3.24721 12.7834 4.04323C13.1325 4.83925 13.307 5.69017 13.307 6.59599C13.307 7.5018 13.1325 8.35272 12.7834 9.14874C12.4398 9.94476 11.9605 10.6447 11.3455 11.2486C10.7359 11.8525 10.0294 12.3273 9.22597 12.6732C8.42805 13.019 7.57195 13.192 6.65766 13.192ZM14.5953 16C14.4014 16 14.2158 15.9671 14.0384 15.9012C13.8611 15.8353 13.7032 15.7337 13.5647 15.5965L9.29247 11.3556L11.3455 9.37108L15.601 13.5872C15.7451 13.7245 15.8476 13.8782 15.9086 14.0484C15.9695 14.2241 16 14.4025 16 14.5836C16 14.8526 15.939 15.0914 15.8171 15.3001C15.6952 15.5142 15.5262 15.6843 15.3101 15.8106C15.0996 15.9369 14.8613 16 14.5953 16Z" fill="var(--fill-0, #787776)"/>
</svg>
