<svg preserveAspectRatio="none" width="100%" height="100%" overflow="visible" style="display: block;" viewBox="0 0 16 16" fill="none" xmlns="http://www.w3.org/2000/svg">
<g id="Symbol">
<path d="M7.98926 0.5C8.82366 0.500034 9.61414 0.626807 10.3633 0.87793L10.3662 0.878906C11.1198 1.12698 11.8066 1.47936 12.4287 1.93652C13.0537 2.39586 13.5951 2.93783 14.0547 3.5625C14.5127 4.18514 14.8689 4.87245 15.1221 5.62695C15.3733 6.37578 15.5 7.16593 15.5 8V8.00293C15.5046 8.83607 15.3798 9.62517 15.1289 10.373C14.876 11.122 14.5208 11.8096 14.0625 12.4375C13.6033 13.0617 13.0625 13.6006 12.4385 14.0547L12.4365 14.0557C11.8136 14.5135 11.125 14.869 10.3701 15.1221C9.62099 15.3731 8.83048 15.5 7.99609 15.5C7.16165 15.5 6.37124 15.3732 5.62207 15.1221H5.62305C4.873 14.8691 4.1869 14.5139 3.56348 14.0557L3.56152 14.0547L3.33203 13.8799C2.8795 13.5235 2.47306 13.1201 2.11328 12.668L1.9375 12.4375C1.47898 11.8093 1.12309 11.1214 0.870117 10.3721C0.62399 9.62358 0.5 8.83371 0.5 8C0.5 7.16596 0.623797 6.37571 0.870117 5.62695C1.12357 4.87153 1.47694 4.18258 1.93066 3.55957C2.38989 2.93574 2.93232 2.39537 3.55664 1.93652C4.17929 1.47896 4.86443 1.1259 5.61328 0.87793H5.61426C6.3635 0.626773 7.15473 0.5 7.98926 0.5Z" stroke="var(--stroke-0, #C6C5C9)" style="mix-blend-mode:plus-darker"/>
</g>
</svg>
