<svg preserveAspectRatio="none" width="100%" height="100%" overflow="visible" style="display: block;" viewBox="0 0 12 12" fill="none" xmlns="http://www.w3.org/2000/svg">
<g id="Frame 1618873794">
<path id="&#244;&#128;&#134;&#138;" d="M10 6C10 6.11136 9.97708 6.21715 9.93123 6.31737C9.88921 6.41388 9.82044 6.50668 9.72493 6.59577L5.31805 10.7884C5.16905 10.9295 4.98758 11 4.77364 11C4.6361 11 4.50812 10.9666 4.38968 10.8998C4.27125 10.833 4.17574 10.7439 4.10315 10.6325C4.03438 10.5212 4 10.395 4 10.2539C4 10.0497 4.08023 9.86785 4.24069 9.70824L8.16619 6L4.24069 2.29176C4.08023 2.13586 4 1.95397 4 1.7461C4 1.60876 4.03438 1.48441 4.10315 1.37305C4.17574 1.25798 4.27125 1.16704 4.38968 1.10022C4.50812 1.03341 4.6361 1 4.77364 1C4.98758 1 5.16905 1.07053 5.31805 1.21158L9.72493 5.40423C9.81662 5.49332 9.88539 5.58612 9.93123 5.68263C9.97708 5.77914 10 5.88493 10 6Z" fill="var(--fill-0, white)"/>
</g>
</svg>
