<svg preserveAspectRatio="none" width="100%" height="100%" overflow="visible" style="display: block;" viewBox="0 0 20.5 20.5" fill="none" xmlns="http://www.w3.org/2000/svg">
<path id="Vector" d="M20.25 10.25C20.25 15.773 15.773 20.25 10.25 20.25C4.727 20.25 0.25 15.773 0.25 10.25C0.25 4.727 4.727 0.25 10.25 0.25V2.25C8.33453 2.25022 6.48272 2.9377 5.03115 4.18749C3.57958 5.43727 2.62462 7.1664 2.33983 9.06058C2.05504 10.9548 2.45934 12.8882 3.47923 14.5096C4.49912 16.131 6.06691 17.3326 7.89763 17.896C9.72835 18.4595 11.7005 18.3474 13.4555 17.5801C15.2106 16.8128 16.6321 15.4413 17.4617 13.7148C18.2913 11.9882 18.4739 10.0214 17.9762 8.1717C17.4786 6.32199 16.3339 4.71223 14.75 3.635V6.25H12.75V0.25H18.75V2.25H16.25C17.4925 3.18093 18.501 4.38866 19.1953 5.77734C19.8897 7.16601 20.2508 8.69741 20.25 10.25Z" fill="var(--fill-0, white)" stroke="var(--stroke-0, white)" stroke-width="0.5"/>
</svg>
