<svg preserveAspectRatio="none" width="100%" height="100%" overflow="visible" style="display: block;" viewBox="0 0 28.1586 28.1586" fill="none" xmlns="http://www.w3.org/2000/svg">
<path id="Vector" d="M27.8152 14.0793C27.8152 21.6656 21.6656 27.8152 14.0793 27.8152C6.49296 27.8152 0.343397 21.6656 0.343397 14.0793C0.343397 6.49296 6.49296 0.343397 14.0793 0.343397V3.09058C11.4482 3.09088 8.90459 4.03519 6.91074 5.75188C4.91688 7.46858 3.60515 9.84369 3.21396 12.4455C2.82278 15.0473 3.37812 17.7032 4.77903 19.9302C6.17995 22.1573 8.33344 23.8079 10.8481 24.5818C13.3628 25.3558 16.0716 25.2018 18.4824 24.1478C20.8931 23.0939 22.8457 21.2099 23.9852 18.8384C25.1247 16.4669 25.3755 13.7653 24.692 11.2246C24.0084 8.68382 22.436 6.47267 20.2604 4.993V8.58493H17.5133V0.343397H25.7548V3.09058H22.3208C24.0276 4.36929 25.4128 6.02821 26.3665 7.93569C27.3202 9.84316 27.8162 11.9467 27.8152 14.0793Z" fill="var(--fill-0, #E2E1E5)" stroke="var(--stroke-0, #E2E1E5)" stroke-width="0.686795"/>
</svg>
