<svg preserveAspectRatio="none" width="100%" height="100%" overflow="visible" style="display: block;" viewBox="0 0 28.6777 28.6777" fill="none" xmlns="http://www.w3.org/2000/svg">
<g id="ClockCounterClockwise" clip-path="url(#clip0_121_3684)">
<g id="Vector">
</g>
<path id="Vector_2" d="M14.3389 8.9618V14.3389L18.8198 17.0274" stroke="var(--stroke-0, white)" stroke-width="2.04841" stroke-linecap="round" stroke-linejoin="round"/>
<path id="Vector_3" d="M8.06562 11.6503H3.58472V7.16944" stroke="var(--stroke-0, white)" stroke-width="2.04841" stroke-linecap="round" stroke-linejoin="round"/>
<path id="Vector_4" d="M7.57272 21.5087C8.98192 22.8385 10.7517 23.7235 12.661 24.0531C14.5703 24.3828 16.5344 24.1425 18.3079 23.3623C20.0814 22.582 21.5857 21.2965 22.6328 19.6662C23.6799 18.036 24.2233 16.1333 24.1952 14.196C24.1671 12.2586 23.5688 10.3725 22.4749 8.77331C21.381 7.1741 19.8401 5.9327 18.0447 5.20421C16.2493 4.47573 14.2791 4.29247 12.3801 4.67734C10.4812 5.0622 8.73778 5.99812 7.36772 7.36815C6.04921 8.70346 4.96035 9.96259 3.58472 11.6508" stroke="var(--stroke-0, white)" stroke-width="2.04841" stroke-linecap="round" stroke-linejoin="round"/>
</g>
<defs>
<clipPath id="clip0_121_3684">
<rect width="28.6777" height="28.6777" fill="white"/>
</clipPath>
</defs>
</svg>
