<svg preserveAspectRatio="none" width="100%" height="100%" overflow="visible" style="display: block;" viewBox="0 0 28.8454 28.8454" fill="none" xmlns="http://www.w3.org/2000/svg">
<g id="Funnel" clip-path="url(#clip0_148_15825)">
<g id="Vector">
</g>
<path id="Vector_2" d="M3.83996 6.91613C3.72266 6.78704 3.64533 6.6267 3.61735 6.45455C3.58937 6.28239 3.61193 6.10581 3.6823 5.94623C3.75267 5.78664 3.86783 5.65089 4.01381 5.55545C4.1598 5.46 4.33034 5.40896 4.50475 5.40851H24.3359C24.5106 5.40852 24.6814 5.45925 24.8277 5.55453C24.974 5.6498 25.0895 5.78552 25.1602 5.9452C25.2308 6.10487 25.2536 6.28163 25.2257 6.45399C25.1978 6.62635 25.1204 6.7869 25.003 6.91613L17.1246 15.3241V21.9326C17.1247 22.0811 17.0881 22.2272 17.0182 22.3581C16.9482 22.4891 16.847 22.6007 16.7235 22.6831L13.1178 25.0865C12.9822 25.1769 12.8245 25.229 12.6617 25.2369C12.4989 25.2449 12.3369 25.2086 12.193 25.1318C12.0492 25.0551 11.9289 24.9407 11.8449 24.801C11.7609 24.6612 11.7164 24.5013 11.7161 24.3383V15.3241L3.83996 6.91613Z" stroke="var(--stroke-0, white)" stroke-width="1.80284" stroke-linecap="round" stroke-linejoin="round"/>
</g>
<defs>
<clipPath id="clip0_148_15825">
<rect width="28.8454" height="28.8454" fill="white"/>
</clipPath>
</defs>
</svg>
