<svg preserveAspectRatio="none" width="100%" height="100%" overflow="visible" style="display: block;" viewBox="0 0 24 24" fill="none" xmlns="http://www.w3.org/2000/svg">
<path id="Ellipse 2321" d="M12 0C14.3734 2.83022e-08 16.6935 0.703788 18.6668 2.02236C20.6402 3.34094 22.1783 5.21509 23.0866 7.4078C23.9948 9.60051 24.2324 12.0133 23.7694 14.3411C23.3064 16.6689 22.1635 18.8071 20.4853 20.4853C18.8071 22.1635 16.6689 23.3064 14.3411 23.7694C12.0133 24.2324 9.60051 23.9948 7.4078 23.0866C5.21509 22.1783 3.34094 20.6402 2.02236 18.6668C0.703788 16.6935 -5.66044e-08 14.3734 0 12L4.08 12C4.08 13.5664 4.5445 15.0977 5.41476 16.4001C6.28502 17.7026 7.52196 18.7177 8.96915 19.3171C10.4163 19.9166 12.0088 20.0734 13.5451 19.7678C15.0814 19.4622 16.4927 18.7079 17.6003 17.6003C18.7079 16.4927 19.4622 15.0814 19.7678 13.5451C20.0734 12.0088 19.9166 10.4163 19.3171 8.96915C18.7177 7.52196 17.7026 6.28502 16.4001 5.41476C15.0977 4.5445 13.5664 4.08 12 4.08L12 0Z" fill="var(--fill-0, #F06600)"/>
</svg>
