<svg preserveAspectRatio="none" width="100%" height="100%" overflow="visible" style="display: block;" viewBox="0 0 20 20" fill="none" xmlns="http://www.w3.org/2000/svg">
<g id="Frame 1618873378">
<path id="&#244;&#128;&#134;&#136;" d="M10.0078 14C9.68664 14 9.39401 13.8735 9.12986 13.6205L3.31077 7.79886C3.20718 7.6926 3.12949 7.57875 3.07769 7.45731C3.0259 7.33586 3 7.2043 3 7.06262C3 6.86528 3.04661 6.68564 3.13984 6.52372C3.23825 6.3618 3.36774 6.23529 3.5283 6.14421C3.69404 6.04807 3.87532 6 4.07214 6C4.37255 6 4.6367 6.10879 4.86459 6.32638L10.3496 11.8368H9.66593L15.1354 6.32638C15.3633 6.10879 15.6275 6 15.9279 6C16.1247 6 16.3034 6.04807 16.4639 6.14421C16.6297 6.23529 16.7592 6.3618 16.8524 6.52372C16.9508 6.68564 17 6.86528 17 7.06262C17 7.34598 16.8964 7.58887 16.6892 7.79127L10.8701 13.6205C10.7458 13.747 10.6112 13.8406 10.4661 13.9013C10.3263 13.962 10.1735 13.9949 10.0078 14Z" fill="var(--fill-0, #787776)"/>
</g>
</svg>
