<svg preserveAspectRatio="none" width="100%" height="100%" overflow="visible" style="display: block;" viewBox="0 0 28.8454 28.8454" fill="none" xmlns="http://www.w3.org/2000/svg">
<g id="ClockCounterClockwise" clip-path="url(#clip0_148_15790)">
<g id="Vector">
</g>
<path id="Vector_2" d="M14.4227 9.01418V14.4227L18.9298 17.1269" stroke="var(--stroke-0, white)" stroke-width="2.06038" stroke-linecap="round" stroke-linejoin="round"/>
<path id="Vector_3" d="M8.11276 11.7184H3.60567V7.21134" stroke="var(--stroke-0, white)" stroke-width="2.06038" stroke-linecap="round" stroke-linejoin="round"/>
<path id="Vector_4" d="M7.61698 21.6345C9.03442 22.972 10.8146 23.8621 12.735 24.1937C14.6555 24.5253 16.6311 24.2836 18.415 23.4988C20.1988 22.714 21.7119 21.421 22.7651 19.7812C23.8183 18.1414 24.3649 16.2276 24.3366 14.279C24.3084 12.3303 23.7065 10.4332 22.6062 8.8246C21.506 7.21603 19.956 5.96738 18.1502 5.23463C16.3443 4.50189 14.3625 4.31756 12.4525 4.70468C10.5425 5.09179 8.78886 6.03318 7.41078 7.41122C6.08457 8.75433 4.98935 10.0208 3.60567 11.7189" stroke="var(--stroke-0, white)" stroke-width="2.06038" stroke-linecap="round" stroke-linejoin="round"/>
</g>
<defs>
<clipPath id="clip0_148_15790">
<rect width="28.8454" height="28.8454" fill="white"/>
</clipPath>
</defs>
</svg>
