<svg preserveAspectRatio="none" width="100%" height="100%" overflow="visible" style="display: block;" viewBox="0 0 16.4831 9.62087" fill="none" xmlns="http://www.w3.org/2000/svg">
<g id="&#244;&#128;&#134;&#136;" style="mix-blend-mode:plus-darker">
<path d="M8.25303 9.62087C7.86222 9.62087 7.50972 9.46378 7.19554 9.1496L0.379318 2.26441C0.126439 2.00387 0 1.69352 0 1.33336C0 0.957873 0.126439 0.64369 0.379318 0.390812C0.639859 0.130271 0.957873 0 1.33336 0C1.69352 0 2.01536 0.137934 2.29889 0.413801L8.68982 6.89668H7.81624L14.1957 0.413801C14.4792 0.137934 14.801 0 15.1612 0C15.529 0 15.8394 0.130271 16.0923 0.390812C16.3528 0.64369 16.4831 0.957873 16.4831 1.33336C16.4831 1.70118 16.3566 2.01153 16.1038 2.26441L9.29903 9.1496C9.00017 9.45612 8.65151 9.61321 8.25303 9.62087Z" fill="var(--fill-0, #333333)"/>
</g>
</svg>
