<svg preserveAspectRatio="none" width="100%" height="100%" overflow="visible" style="display: block;" viewBox="0 0 106 100" fill="none" xmlns="http://www.w3.org/2000/svg">
<g id="_?&#235;&#141;&#137;&#236;&#148;&#160;??1" clip-path="url(#clip0_122_32286)">
<path id="Vector" d="M0.23494 27.0009L8.11011 22.4695V13.3974L0.23494 8.86129" stroke="var(--stroke-0, #8F8AC4)" stroke-miterlimit="10"/>
<path id="Vector_2" d="M50.6295 27.1696L46.9315 18.8847L37.8863 17.9335L32.5391 25.2718" stroke="var(--stroke-0, #484646)" stroke-miterlimit="10"/>
<path id="Vector_3" d="M58.5046 40.7732L50.6295 45.3093V54.3768L58.5046 58.9128L66.3845 54.3768" stroke="var(--stroke-0, #484646)" stroke-miterlimit="10"/>
<path id="Vector_4" d="M74.2597 58.9128L66.3845 54.3768L58.5046 58.9128V67.985L66.3845 72.5211L74.2597 67.985V58.9128Z" stroke="var(--stroke-0, #484646)" stroke-miterlimit="10"/>
<path id="Vector_5" d="M105.765 86.1246L97.8899 81.5886L90.01 86.1246V95.1921L97.8899 99.7282L105.765 95.1921V86.1246Z" stroke="var(--stroke-0, #484646)" stroke-miterlimit="10"/>
<path id="Vector_6" d="M82.1348 81.5886V72.5211L74.2597 67.985L66.3845 72.5211" stroke="var(--stroke-0, #484646)" stroke-miterlimit="10"/>
<path id="Vector_7" d="M82.1348 72.5211V81.5886L90.01 86.1246L97.8899 81.5886" stroke="var(--stroke-0, #484646)" stroke-miterlimit="10"/>
<path id="Vector_8" d="M36.2277 2.29616L32.5297 10.5811" stroke="var(--stroke-0, #8F8AC4)" stroke-miterlimit="10"/>
<path id="Vector_9" d="M32.5297 10.5811L23.8652 13.388V22.4742L32.5297 25.2858L37.8863 17.9335L32.5297 10.5811Z" stroke="var(--stroke-0, #8F8AC4)" stroke-miterlimit="10"/>
<path id="Vector_10" d="M0.23494 0V9.07217" stroke="var(--stroke-0, #484646)" stroke-miterlimit="10"/>
<path id="Vector_11" d="M0.23494 27.0009V36.0731" stroke="var(--stroke-0, #484646)" stroke-miterlimit="10"/>
<path id="Vector_12" d="M15.9853 8.86129L8.11011 13.3974V22.4695L15.9853 27.0009L23.8652 22.4695V13.3974L15.9853 8.86129Z" fill="var(--fill-0, #C5C0FE)" stroke="var(--stroke-0, #8F8AC4)" stroke-miterlimit="10"/>
<path id="Vector_13" d="M58.5046 31.7057L50.6295 27.1696L42.7543 31.7057V40.7732L50.6295 45.3093L58.5046 40.7732V31.7057Z" fill="var(--fill-0, #C5C0FE)" stroke="var(--stroke-0, #8F8AC4)" stroke-miterlimit="10"/>
</g>
<defs>
<clipPath id="clip0_122_32286">
<rect width="106" height="100" fill="white"/>
</clipPath>
</defs>
</svg>
