<svg preserveAspectRatio="none" width="100%" height="100%" overflow="visible" style="display: block;" viewBox="0 0 160.571 88.8407" fill="none" xmlns="http://www.w3.org/2000/svg">
<g id="Group 1272633006">
<path id="Vector" d="M1.22473 47.0444L14.9086 39.1493V23.3427L1.22473 15.4393" stroke="var(--stroke-0, #484646)" stroke-miterlimit="10"/>
<path id="Vector_2" d="M88.7899 47.3379L82.3643 32.9029L66.6475 31.2455L57.3562 44.0312" stroke="var(--stroke-0, #484646)" stroke-miterlimit="10"/>
<path id="Vector_3" d="M104.85 47.1744H89.0516L81.1483 60.8582L89.0516 74.542H104.858L112.753 60.8582L104.85 47.1744Z" stroke="var(--stroke-0, #484646)" stroke-miterlimit="10"/>
<path id="Vector_4" d="M112.58 60.9649L104.685 74.6487L112.58 88.3407H128.387L136.29 74.6487L128.387 60.9649" stroke="var(--stroke-0, #484646)" stroke-miterlimit="10"/>
<path id="Vector_5" d="M152.09 47.2812H136.291L128.388 60.965L136.291 74.6489H152.09L159.993 60.965L152.09 47.2812Z" stroke="var(--stroke-0, #484646)" stroke-miterlimit="10"/>
<path id="Vector_6" d="M63.7626 4.00096L57.3371 18.4359" stroke="var(--stroke-0, #484646)" stroke-miterlimit="10"/>
<path id="Vector_7" d="M1.22473 0V15.8066" stroke="var(--stroke-0, #484646)" stroke-miterlimit="10"/>
<path id="Vector_8" d="M1.22473 47.0436V62.8502" stroke="var(--stroke-0, #484646)" stroke-miterlimit="10"/>
<path id="Vector_9" d="M28.5906 15.4393L14.9068 23.3427V39.1493L28.5906 47.0444L42.2826 39.1493V23.3427L28.5906 15.4393Z" fill="var(--fill-0, #C5C0FE)" stroke="var(--stroke-0, #8F8AC4)" stroke-miterlimit="10"/>
<path id="Vector_10" d="M57.3391 18.4357L42.2836 23.3263V39.1574L57.3391 44.0561L66.6467 31.2459L57.3391 18.4357Z" fill="var(--fill-0, #C5C0FE)" stroke="var(--stroke-0, #8F8AC4)" stroke-miterlimit="10"/>
<circle id="Ellipse 2333" cx="63.6838" cy="3.26583" r="1.63292" fill="var(--fill-0, #3A11D8)"/>
<circle id="Ellipse 2336" cx="104.507" cy="74.2977" r="1.63292" fill="var(--fill-0, #3A11D8)"/>
<circle id="Ellipse 2334" cx="1.63296" cy="15.5127" r="1.63292" fill="var(--fill-0, #F06600)"/>
<circle id="Ellipse 2335" cx="1.63296" cy="47.3546" r="1.63292" fill="var(--fill-0, #F06600)"/>
</g>
</svg>
