<svg preserveAspectRatio="none" width="100%" height="100%" overflow="visible" style="display: block;" viewBox="0 0 16 16" fill="none" xmlns="http://www.w3.org/2000/svg">
<path id="Vector" d="M16 8C16 12.4184 12.4184 16 8 16C3.5816 16 0 12.4184 0 8C0 3.5816 3.5816 0 8 0V1.6C6.46763 1.60017 4.98618 2.15016 3.82492 3.14999C2.66367 4.14982 1.89969 5.53312 1.67186 7.04846C1.44403 8.5638 1.76747 10.1106 2.58338 11.4077C3.3993 12.7048 4.65353 13.6661 6.1181 14.1168C7.58268 14.5676 9.16038 14.4779 10.5644 13.8641C11.9685 13.2502 13.1057 12.153 13.7694 10.7718C14.433 9.3906 14.5791 7.81712 14.181 6.33736C13.7829 4.8576 12.8671 3.56979 11.6 2.708V4.8H10V0H14.8V1.6H12.8C13.794 2.34474 14.6008 3.31093 15.1563 4.42187C15.7117 5.53281 16.0006 6.75793 16 8Z" fill="var(--fill-0, #787776)"/>
</svg>
