<svg preserveAspectRatio="none" width="100%" height="100%" overflow="visible" style="display: block;" viewBox="0 0 28.6777 28.6777" fill="none" xmlns="http://www.w3.org/2000/svg">
<g id="Funnel" clip-path="url(#clip0_121_3875)">
<g id="Vector">
</g>
<path id="Vector_2" d="M3.81764 6.87594C3.70103 6.7476 3.62415 6.5882 3.59633 6.41704C3.56851 6.24588 3.59094 6.07033 3.6609 5.91167C3.73086 5.75301 3.84535 5.61805 3.99049 5.52316C4.13563 5.42827 4.30517 5.37753 4.47857 5.37708H24.1945C24.3681 5.37709 24.538 5.42753 24.6834 5.52225C24.8289 5.61697 24.9437 5.7519 25.014 5.91065C25.0842 6.0694 25.1068 6.24513 25.0791 6.41649C25.0514 6.58785 24.9744 6.74746 24.8577 6.87594L17.0251 15.2351V21.8052C17.0252 21.9527 16.9888 22.0981 16.9193 22.2282C16.8497 22.3584 16.7491 22.4693 16.6263 22.5512L13.0416 24.9407C12.9067 25.0306 12.75 25.0823 12.5881 25.0903C12.4262 25.0982 12.2652 25.0621 12.1222 24.9858C11.9792 24.9095 11.8596 24.7958 11.7761 24.6569C11.6926 24.5179 11.6483 24.3589 11.648 24.1968V15.2351L3.81764 6.87594Z" stroke="var(--stroke-0, white)" stroke-width="1.79236" stroke-linecap="round" stroke-linejoin="round"/>
</g>
<defs>
<clipPath id="clip0_121_3875">
<rect width="28.6777" height="28.6777" fill="white"/>
</clipPath>
</defs>
</svg>
