<svg preserveAspectRatio="none" width="100%" height="100%" overflow="visible" style="display: block;" viewBox="0 0 140.574 97.7735" fill="none" xmlns="http://www.w3.org/2000/svg">
<g id="Group 1272633001">
<path id="Vector" d="M26.3833 13.8528L14.1058 20.9439V35.126L26.3833 42.2097L38.6681 35.126V20.9439L26.3833 13.8528Z" fill="var(--fill-0, #C5C0FE)" stroke="var(--stroke-0, #8F8AC4)" stroke-miterlimit="10"/>
<path id="Vector_2" d="M1.82923 42.2097L14.1067 35.126V20.9439L1.82923 13.8528" stroke="var(--stroke-0, #8F8AC4)" stroke-miterlimit="10"/>
<path id="Vector_3" d="M80.3959 42.4726L74.6308 29.5212L60.5292 28.0341L52.1929 39.5058" stroke="var(--stroke-0, #484646)" stroke-miterlimit="10"/>
<path id="Vector_4" d="M94.4946 43.9528L80.3931 42.4731L72.0567 53.9448L77.8292 66.8962L91.9307 68.376L100.26 56.9043L94.4946 43.9528Z" stroke="var(--stroke-0, #484646)" stroke-miterlimit="10"/>
<path id="Vector_5" d="M57.9391 3.58932L52.174 16.5408" stroke="var(--stroke-0, #8F8AC4)" stroke-miterlimit="10"/>
<path id="Vector_6" d="M100.262 56.9042L91.9331 68.3759L97.6982 81.3274L111.8 82.8144L120.136 71.3427" stroke="var(--stroke-0, #484646)" stroke-miterlimit="10"/>
<path id="Vector_7" d="M134.228 72.823L120.133 71.3432L111.797 82.8149L117.562 95.7663L131.664 97.2461L140 85.7744L134.228 72.823Z" stroke="var(--stroke-0, #484646)" stroke-miterlimit="10"/>
<path id="Vector_8" d="M52.1798 16.5401L38.6716 20.9281V35.1321L52.1798 39.5274L60.5308 28.0338L52.1798 16.5401Z" fill="var(--fill-0, #C5C0FE)" stroke="var(--stroke-0, #8F8AC4)" stroke-miterlimit="10"/>
<path id="Vector_9" d="M52.174 39.5281L57.9391 52.4795" stroke="var(--stroke-0, #8F8AC4)" stroke-miterlimit="10"/>
<path id="Vector_10" d="M1.82923 0V14.1821" stroke="var(--stroke-0, #484646)" stroke-miterlimit="10"/>
<path id="Vector_11" d="M1.82923 42.2091V56.3912" stroke="var(--stroke-0, #484646)" stroke-miterlimit="10"/>
<circle id="Ellipse 2328" cx="92.2981" cy="68.1268" r="1.46509" fill="var(--fill-0, #3A11D8)"/>
<circle id="Ellipse 2329" cx="57.8696" cy="3.66206" r="1.46509" fill="var(--fill-0, #8F8AC4)"/>
<circle id="Ellipse 2330" cx="57.8696" cy="52.011" r="1.46509" fill="var(--fill-0, #8F8AC4)"/>
<circle id="Ellipse 2331" cx="1.46509" cy="13.9177" r="1.46509" fill="var(--fill-0, #8F8AC4)"/>
<circle id="Ellipse 2332" cx="1.46509" cy="42.4877" r="1.46509" fill="var(--fill-0, #8F8AC4)"/>
</g>
</svg>
