<svg preserveAspectRatio="none" width="100%" height="100%" overflow="visible" style="display: block;" viewBox="0 0 21.9774 21.9774" fill="none" xmlns="http://www.w3.org/2000/svg">
<g id="Symbol">
<path d="M10.9736 0.686523C12.1198 0.686537 13.2054 0.861152 14.2344 1.20605L14.2383 1.20703C15.2738 1.54783 16.2176 2.03199 17.0723 2.66016C17.9308 3.29113 18.6744 4.03545 19.3057 4.89355C19.9348 5.74879 20.4238 6.69315 20.7715 7.72949C21.1165 8.75785 21.29 9.8429 21.29 10.9883V10.9922C21.2964 12.1366 21.1259 13.2208 20.7812 14.248C20.4335 15.2778 19.9447 16.2228 19.3145 17.0859C18.6841 17.9425 17.9415 18.6814 17.085 19.3047L17.082 19.3066C16.2264 19.9355 15.2819 20.4239 14.2451 20.7715C13.216 21.1165 12.1297 21.291 10.9834 21.291C9.83716 21.291 8.75077 21.1165 7.72168 20.7715C6.69212 20.424 5.75037 19.9357 4.89453 19.3066L4.89258 19.3047L4.57617 19.0654C3.85173 18.4948 3.21461 17.8353 2.66309 17.0859C2.03356 16.2239 1.54491 15.2802 1.19727 14.252C0.858098 13.2224 0.686523 12.1353 0.686523 10.9883C0.686566 9.84141 0.857164 8.75408 1.19629 7.72461C1.54396 6.68974 2.02995 5.74744 2.65137 4.89355C3.28261 4.03545 4.02625 3.29113 4.88477 2.66016C5.74015 2.03149 6.68116 1.54673 7.70996 1.20605H7.71191C8.74106 0.861069 9.82733 0.686523 10.9736 0.686523Z" stroke="var(--stroke-0, #C6C5C9)" style="mix-blend-mode:plus-darker" stroke-width="1.37359"/>
</g>
</svg>
