<svg preserveAspectRatio="none" width="100%" height="100%" overflow="visible" style="display: block;" viewBox="0 0 12 7.00419" fill="none" xmlns="http://www.w3.org/2000/svg">
<g id="&#244;&#128;&#134;&#136;" style="mix-blend-mode:plus-darker">
<path d="M6.00837 7.00418C5.72385 7.00418 5.46723 6.88982 5.23849 6.66109L0.276151 1.64854C0.0920502 1.45886 0 1.23292 0 0.970711C0 0.69735 0.0920502 0.468619 0.276151 0.284519C0.46583 0.0948396 0.69735 0 0.970711 0C1.23292 0 1.46722 0.100418 1.67364 0.301255L6.32636 5.02092H5.69038L10.3347 0.301255C10.5411 0.100418 10.7755 0 11.0377 0C11.3054 0 11.5314 0.0948396 11.7155 0.284519C11.9052 0.468619 12 0.69735 12 0.970711C12 1.23849 11.908 1.46444 11.7239 1.64854L6.76988 6.66109C6.5523 6.88424 6.29847 6.99861 6.00837 7.00418Z" fill="var(--fill-0, #333333)"/>
</g>
</svg>
