<svg preserveAspectRatio="none" width="100%" height="100%" overflow="visible" style="display: block;" viewBox="0 0 12 10" fill="none" xmlns="http://www.w3.org/2000/svg">
<g id="Group 1272632998">
<path id="Vector" d="M5.018 0.531822L0.153916 8.34279C0.0536295 8.50985 0.000566037 8.69926 4.50351e-06 8.89217C-0.00055703 9.08508 0.0514029 9.27477 0.150715 9.44236C0.250027 9.60996 0.393229 9.74962 0.566075 9.84745C0.73892 9.94529 0.935384 9.99788 1.13592 10H10.8641C11.0646 9.99788 11.2611 9.94529 11.4339 9.84745C11.6068 9.74962 11.75 9.60996 11.8493 9.44236C11.9486 9.27477 12.0006 9.08508 12 8.89217C11.9994 8.69926 11.9464 8.50985 11.8461 8.34279L6.982 0.531822C6.87963 0.369475 6.73548 0.235248 6.56347 0.142093C6.39146 0.0489384 6.1974 0 6 0C5.8026 0 5.60854 0.0489384 5.43653 0.142093C5.26452 0.235248 5.12037 0.369475 5.018 0.531822V0.531822Z" fill="var(--fill-0, #FF5449)"/>
<path id="Vector_2" d="M6 4L6 6" stroke="var(--stroke-0, white)" stroke-linecap="round" stroke-linejoin="round"/>
<path id="Vector_3" d="M6 8H6.00583" stroke="var(--stroke-0, white)" stroke-linecap="round" stroke-linejoin="round"/>
</g>
</svg>
