<svg preserveAspectRatio="none" width="100%" height="100%" overflow="visible" style="display: block;" viewBox="0 0 14 14" fill="none" xmlns="http://www.w3.org/2000/svg">
<g id="Frame 1618873792">
<path id="Symbol" d="M1 12.7833V1.21667C1 0.8 1.09913 0.494444 1.29739 0.3C1.49565 0.1 1.73141 0 2.00469 0C2.24581 0 2.4923 0.0722222 2.74414 0.216667L12.1078 5.89167C12.4401 6.09167 12.6705 6.27222 12.7991 6.43333C12.933 6.58889 13 6.77778 13 7C13 7.21667 12.933 7.40556 12.7991 7.56667C12.6705 7.72778 12.4401 7.90833 12.1078 8.10833L2.74414 13.7833C2.4923 13.9278 2.24581 14 2.00469 14C1.73141 14 1.49565 13.9 1.29739 13.7C1.09913 13.5 1 13.1944 1 12.7833Z" fill="var(--fill-0, #787776)"/>
</g>
</svg>
