<svg preserveAspectRatio="none" width="100%" height="100%" overflow="visible" style="display: block;" viewBox="0 0 8 10" fill="none" xmlns="http://www.w3.org/2000/svg">
<g id="Symbol" style="mix-blend-mode:plus-darker">
<path d="M0 9.13095V0.869048C0 0.571429 0.0660862 0.353175 0.198259 0.214286C0.330431 0.0714286 0.487609 0 0.669792 0C0.830543 0 0.994865 0.0515873 1.16276 0.154762L7.40522 4.20833C7.6267 4.35119 7.78031 4.48016 7.86604 4.59524C7.95535 4.70635 8 4.84127 8 5C8 5.15476 7.95535 5.28968 7.86604 5.40476C7.78031 5.51984 7.6267 5.64881 7.40522 5.79167L1.16276 9.84524C0.994865 9.94841 0.830543 10 0.669792 10C0.487609 10 0.330431 9.92857 0.198259 9.78571C0.0660862 9.64286 0 9.4246 0 9.13095Z" fill="#787776"/>
</g>
</svg>
