<svg preserveAspectRatio="none" width="100%" height="100%" overflow="visible" style="display: block;" viewBox="0 0 130.61 101.633" fill="none" xmlns="http://www.w3.org/2000/svg">
<g id="Group 1272633007">
<path id="Vector" d="M128.695 16.8464L114.111 25.2612V42.1082" stroke="var(--stroke-0, #484646)" stroke-miterlimit="10"/>
<path id="Vector_2" d="M99.5212 16.847L114.114 25.2618L128.699 16.847V8.55327e-06" stroke="var(--stroke-0, #484646)" stroke-miterlimit="10"/>
<path id="Vector_3" d="M70.3512 67.3704L55.7667 75.7939V92.6409L70.3512 101.056L84.9357 92.6409V75.7939L70.3512 67.3704Z" stroke="var(--stroke-0, #484646)" stroke-miterlimit="10"/>
<path id="Vector_4" d="M55.7569 92.6409L55.7656 75.7939L41.1725 67.3704L26.588 75.7939V92.6409" stroke="var(--stroke-0, #484646)" stroke-miterlimit="10"/>
<path id="Vector_5" d="M10.5383 70.581L0.618112 84.2343L10.5383 97.879L26.5847 92.6665V75.7935L10.5383 70.581Z" stroke="var(--stroke-0, #484646)" stroke-miterlimit="10"/>
<path id="Vector_6" d="M99.5163 16.8464L84.9319 25.2612V42.1082L99.5163 50.5317L114.109 42.1082V25.2612L99.5163 16.8464Z" stroke="var(--stroke-0, #8F8AC4)" stroke-miterlimit="10"/>
<path id="Vector_7" d="M99.5182 50.5328L84.9338 42.1093L70.3493 50.5328V67.3711L84.9338 75.7945" stroke="var(--stroke-0, #8F8AC4)" stroke-miterlimit="10"/>
<path id="Vector_8" d="M41.1706 67.3711L55.7637 75.7945L70.3482 67.3711V50.5328L55.7637 42.1093" stroke="var(--stroke-0, #8F8AC4)" stroke-miterlimit="10"/>
<circle id="Ellipse 2336" cx="26.1869" cy="75.707" r="1.74039" fill="var(--fill-0, #3A11D8)"/>
<circle id="Ellipse 2337" cx="128.87" cy="16.5337" r="1.74039" fill="var(--fill-0, #F06600)"/>
<circle id="Ellipse 2338" cx="56.6437" cy="42.6396" r="1.74039" fill="var(--fill-0, #F06600)"/>
</g>
</svg>
