<svg preserveAspectRatio="none" width="100%" height="100%" overflow="visible" style="display: block;" viewBox="0 0 14 14" fill="none" xmlns="http://www.w3.org/2000/svg">
<g id="Frame 1618873792">
<path id="Symbol" d="M2 11.9571V2.04286C2 1.68571 2.08261 1.42381 2.24782 1.25714C2.41304 1.08571 2.60951 1 2.83724 1C3.03818 1 3.24358 1.0619 3.45345 1.18571L11.2565 6.05C11.5334 6.22143 11.7254 6.37619 11.8326 6.51429C11.9442 6.64762 12 6.80952 12 7C12 7.18571 11.9442 7.34762 11.8326 7.48571C11.7254 7.62381 11.5334 7.77857 11.2565 7.95L3.45345 12.8143C3.24358 12.9381 3.03818 13 2.83724 13C2.60951 13 2.41304 12.9143 2.24782 12.7429C2.08261 12.5714 2 12.3095 2 11.9571Z" fill="var(--fill-0, #787776)"/>
</g>
</svg>
