<svg preserveAspectRatio="none" width="100%" height="100%" overflow="visible" style="display: block;" viewBox="0 0 7 12" fill="none" xmlns="http://www.w3.org/2000/svg">
<g id="?" style="mix-blend-mode:plus-darker">
<path d="M2.44259 8.19372L2.43478 7.54707C2.42438 7.17599 2.4712 6.84311 2.57525 6.54843C2.6793 6.2483 2.84318 5.97544 3.06689 5.72988C3.2958 5.48431 3.58714 5.24966 3.94091 5.02592C4.25307 4.82401 4.50279 4.63302 4.69008 4.45293C4.87737 4.26739 5.01003 4.06821 5.08807 3.85539C5.17131 3.64257 5.21293 3.39973 5.21293 3.12688V3.1105C5.21293 2.79945 5.1401 2.52387 4.99443 2.28377C4.84876 2.0382 4.64325 1.8472 4.37793 1.71078C4.1178 1.57435 3.81345 1.50614 3.46488 1.50614C3.10591 1.50614 2.79376 1.57981 2.52843 1.72715C2.2631 1.86903 2.0524 2.06548 1.89632 2.31651C1.74545 2.56753 1.657 2.85948 1.63099 3.19236L1.62319 3.26603H0L0.00780379 3.17599C0.0390189 2.58663 0.189892 2.05184 0.460424 1.57162C0.736158 1.09141 1.13155 0.709413 1.6466 0.425648C2.16165 0.141883 2.79376 0 3.54292 0C4.23486 0 4.83835 0.133697 5.3534 0.401091C5.87365 0.663029 6.27685 1.02046 6.56299 1.4734C6.85433 1.92633 7 2.44748 7 3.03683V3.05321C7 3.68076 6.85433 4.22374 6.56299 4.68213C6.27685 5.13506 5.87365 5.52251 5.3534 5.84448C5.02044 6.05184 4.76031 6.24829 4.57302 6.43383C4.38573 6.61392 4.25307 6.80764 4.17503 7.01501C4.10219 7.21692 4.06577 7.45703 4.06577 7.73533V8.19372H2.44259ZM3.26979 12C2.97845 12 2.73393 11.899 2.53623 11.6971C2.33854 11.4898 2.23969 11.236 2.23969 10.9359C2.23969 10.6357 2.33854 10.3847 2.53623 10.1828C2.73393 9.97544 2.97845 9.87176 3.26979 9.87176C3.56113 9.87176 3.80565 9.97544 4.00334 10.1828C4.20104 10.3847 4.29989 10.6357 4.29989 10.9359C4.29989 11.236 4.20104 11.4898 4.00334 11.6971C3.80565 11.899 3.56113 12 3.26979 12Z" fill="#787776"/>
</g>
</svg>
