<svg preserveAspectRatio="none" width="100%" height="100%" overflow="visible" style="display: block;" viewBox="0 0 20 20" fill="none" xmlns="http://www.w3.org/2000/svg">
<g id="clarity:cursor-hand-grab-line" clip-path="url(#clip0_127_12843)">
<path id="Vector" d="M15.6056 5.4144C15.3868 5.41765 15.1696 5.45322 14.9612 5.51995C14.8556 4.83106 14.1001 4.30884 13.1445 4.30884C12.8549 4.29926 12.5661 4.34644 12.2945 4.44773C12.1218 4.1436 11.8674 3.89393 11.5601 3.727C11.2527 3.56008 10.9048 3.48258 10.5556 3.50328C10.2507 3.48971 9.94689 3.54918 9.66956 3.67674C9.39222 3.80429 9.14937 3.99624 8.9612 4.23662C8.64353 4.04833 8.28047 3.95036 7.9112 3.95328C7.46875 3.92401 7.03246 4.06933 6.69593 4.35807C6.35941 4.64682 6.14949 5.05597 6.1112 5.49773V6.00328C5.52231 6.22551 3.82787 7.00328 3.38342 8.69217C2.93898 10.3811 3.57231 13.1366 4.87787 15.2366C5.75543 16.6049 6.8646 17.81 8.15565 18.7977C8.24135 18.8595 8.34443 18.8926 8.45009 18.8922H14.1945C14.3051 18.891 14.4123 18.8539 14.5001 18.7866C15.4977 17.8673 16.2192 16.6879 16.5834 15.3811C17.2134 13.6603 17.5076 11.8348 17.4501 10.0033V6.94773C17.405 6.50138 17.1865 6.09058 16.8415 5.8038C16.4965 5.51701 16.0527 5.37717 15.6056 5.4144Z" fill="var(--fill-0, white)"/>
<path id="Vector_2" d="M15.6056 5.41111C15.3867 5.41437 15.1696 5.44994 14.9611 5.51667C14.8556 4.82778 14.1 4.30556 13.1444 4.30556C12.8548 4.29598 12.566 4.34316 12.2944 4.44444C12.1217 4.14032 11.8673 3.89064 11.56 3.72372C11.2526 3.55679 10.9047 3.47929 10.5556 3.5C10.2506 3.48643 9.9468 3.5459 9.66947 3.67345C9.39213 3.80101 9.14928 3.99296 8.96111 4.23333C8.64344 4.04504 8.28038 3.94707 7.91111 3.95C7.46866 3.92072 7.03236 4.06605 6.69584 4.35479C6.35932 4.64353 6.1494 5.05268 6.11111 5.49444V6C5.52222 6.22222 3.82778 7 3.38333 8.68889C2.93889 10.3778 3.57222 13.1333 4.87778 15.2333C5.75534 16.6017 6.86451 17.8067 8.15556 18.7944C8.24126 18.8562 8.34434 18.8893 8.45 18.8889H14.1944C14.305 18.8877 14.4123 18.8506 14.5 18.7833C15.4976 17.864 16.2191 16.6846 16.5833 15.3778C17.2133 13.6571 17.5075 11.8315 17.45 10V6.94444C17.4049 6.4981 17.1864 6.0873 16.8414 5.80051C16.4964 5.51372 16.0526 5.37388 15.6056 5.41111ZM16.45 10C16.5106 11.7314 16.2332 13.458 15.6333 15.0833C15.319 16.1348 14.7591 17.0964 14 17.8889H8.59444C7.46474 16.9941 6.48891 15.9207 5.70556 14.7111C4.38889 12.5667 4.03889 10.1389 4.32778 8.93889C4.47924 8.52302 4.7162 8.14352 5.02337 7.82488C5.33053 7.50623 5.70108 7.25551 6.11111 7.08889V11.3389C6.11111 11.4715 6.16379 11.5987 6.25756 11.6924C6.35133 11.7862 6.4785 11.8389 6.61111 11.8389C6.74372 11.8389 6.8709 11.7862 6.96466 11.6924C7.05843 11.5987 7.11111 11.4715 7.11111 11.3389V5.49444C7.11111 5.23333 7.43889 4.93889 7.92222 4.93889C8.40556 4.93889 8.75 5.22778 8.75 5.49444V8.67222H9.75V4.89444C9.75 4.73889 10.0722 4.5 10.5611 4.5C11.05 4.5 11.4111 4.76667 11.4111 4.91667V8.74444H12.4111V5.55556L12.5056 5.48889C12.7016 5.36592 12.9298 5.30404 13.1611 5.31111C13.6778 5.31111 13.9944 5.55556 13.9944 5.68889V9.3H15V6.59444C15.183 6.46954 15.4007 6.4054 15.6222 6.41111C16.1 6.41111 16.4667 6.69444 16.4667 6.93333L16.45 10Z" fill="var(--fill-0, black)"/>
<g id="Vector_3">
</g>
</g>
<defs>
<clipPath id="clip0_127_12843">
<rect width="20" height="20" fill="white"/>
</clipPath>
</defs>
</svg>
