<svg preserveAspectRatio="none" width="100%" height="100%" overflow="visible" style="display: block;" viewBox="0 0 10 14" fill="none" xmlns="http://www.w3.org/2000/svg">
<g id="Symbol" style="mix-blend-mode:plus-darker">
<path d="M0 12.7833V1.21667C0 0.8 0.0826077 0.494444 0.247823 0.3C0.413039 0.1 0.609511 0 0.837241 0C1.03818 0 1.24358 0.0722222 1.45345 0.216667L9.25653 5.89167C9.53338 6.09167 9.72539 6.27222 9.83255 6.43333C9.94419 6.58889 10 6.77778 10 7C10 7.21667 9.94419 7.40556 9.83255 7.56667C9.72539 7.72778 9.53338 7.90833 9.25653 8.10833L1.45345 13.7833C1.24358 13.9278 1.03818 14 0.837241 14C0.609511 14 0.413039 13.9 0.247823 13.7C0.0826077 13.5 0 13.1944 0 12.7833Z" fill="#787776"/>
</g>
</svg>
