<svg preserveAspectRatio="none" width="100%" height="100%" overflow="visible" style="display: block;" viewBox="0 0 20 20" fill="none" xmlns="http://www.w3.org/2000/svg">
<path id="&#244;&#128;&#138;&#171;" d="M8.32208 13.9784C9.11169 13.9784 9.85628 13.8308 10.5558 13.5358C11.2554 13.2338 11.8719 12.8221 12.4052 12.3006C12.9385 11.7722 13.3541 11.1614 13.6519 10.4683C13.9567 9.77526 14.1091 9.03414 14.1091 8.24498C14.1091 7.45582 13.9567 6.7147 13.6519 6.02162C13.3541 5.32853 12.9385 4.71779 12.4052 4.1894C11.8719 3.66101 11.2554 3.24927 10.5558 2.95419C9.85628 2.65912 9.11169 2.51158 8.32208 2.51158C7.52554 2.51158 6.77749 2.65912 6.07792 2.95419C5.37835 3.24927 4.7619 3.66101 4.22857 4.1894C3.69524 4.71779 3.27619 5.32853 2.97143 6.02162C2.67359 6.7147 2.52468 7.45582 2.52468 8.24498C2.52468 9.03414 2.67359 9.77526 2.97143 10.4683C3.27619 11.1614 3.69524 11.7722 4.22857 12.3006C4.7619 12.8221 5.37835 13.2338 6.07792 13.5358C6.77749 13.8308 7.52554 13.9784 8.32208 13.9784ZM8.32208 16.49C7.17229 16.49 6.09524 16.2738 5.09091 15.8415C4.09351 15.4092 3.21039 14.8156 2.44156 14.0607C1.67965 13.3059 1.08052 12.4309 0.644156 11.4359C0.214719 10.4409 0 9.37725 0 8.24498C0 7.11271 0.214719 6.04906 0.644156 5.05404C1.08052 4.05902 1.67965 3.18408 2.44156 2.42923C3.21039 1.66752 4.09697 1.07394 5.1013 0.648482C6.10563 0.216161 7.17922 0 8.32208 0C9.46493 0 10.5351 0.216161 11.5325 0.648482C12.5368 1.07394 13.4199 1.66752 14.1818 2.42923C14.9506 3.18408 15.5498 4.05902 15.9792 5.05404C16.4156 6.04906 16.6338 7.11271 16.6338 8.24498C16.6338 9.37725 16.4156 10.4409 15.9792 11.4359C15.5498 12.4309 14.9506 13.3059 14.1818 14.0607C13.4199 14.8156 12.5368 15.4092 11.5325 15.8415C10.5351 16.2738 9.46493 16.49 8.32208 16.49ZM18.2442 20C18.0017 20 17.7697 19.9588 17.5481 19.8765C17.3264 19.7941 17.129 19.6672 16.9558 19.4956L11.6156 14.1945L14.1818 11.7138L19.5013 16.984C19.6814 17.1556 19.8095 17.3477 19.8857 17.5605C19.9619 17.7801 20 18.0031 20 18.2295C20 18.5658 19.9238 18.8643 19.7714 19.1251C19.619 19.3927 19.4078 19.6054 19.1377 19.7633C18.8745 19.9211 18.5766 20 18.2442 20Z" fill="var(--fill-0, #AAAAAD)"/>
</svg>
