<svg preserveAspectRatio="none" width="100%" height="100%" overflow="visible" style="display: block;" viewBox="0 0 38 38" fill="none" xmlns="http://www.w3.org/2000/svg">
<g id="Group 1272632729">
<g id="Rectangle 41668">
</g>
<path id="&#244;&#128;&#134;&#136;" d="M22.2976 18.9935C22.2976 19.2616 22.1899 19.5034 21.9743 19.719L17.2508 24.3952C17.072 24.5687 16.8591 24.6555 16.612 24.6555C16.3544 24.6555 16.1389 24.5687 15.9654 24.3952C15.7866 24.2165 15.6973 23.9983 15.6973 23.7407C15.6973 23.4936 15.7919 23.2728 15.9812 23.0783L20.4287 18.6938L20.4287 19.2932L15.9812 14.9166C15.7919 14.7221 15.6973 14.5013 15.6973 14.2542C15.6973 14.0018 15.7866 13.7889 15.9654 13.6154C16.1389 13.4367 16.3544 13.3473 16.612 13.3473C16.8644 13.3473 17.0773 13.4341 17.2508 13.6075L21.9743 18.2759C22.1846 18.4809 22.2924 18.7201 22.2976 18.9935Z" fill="var(--fill-0, #787776)"/>
</g>
</svg>
