<svg preserveAspectRatio="none" width="100%" height="100%" overflow="visible" style="display: block;" viewBox="0 0 21 21" fill="none" xmlns="http://www.w3.org/2000/svg">
<g id="Frame 1618873792">
<path id="Symbol" d="M2.5 18.7619V2.2381C2.5 1.64286 2.63217 1.20635 2.89652 0.928571C3.16086 0.642857 3.47522 0.5 3.83958 0.5C4.16109 0.5 4.48973 0.603175 4.82552 0.809524L17.3104 8.91667C17.7534 9.20238 18.0606 9.46032 18.2321 9.69048C18.4107 9.9127 18.5 10.1825 18.5 10.5C18.5 10.8095 18.4107 11.0794 18.2321 11.3095C18.0606 11.5397 17.7534 11.7976 17.3104 12.0833L4.82552 20.1905C4.48973 20.3968 4.16109 20.5 3.83958 20.5C3.47522 20.5 3.16086 20.3571 2.89652 20.0714C2.63217 19.7857 2.5 19.3492 2.5 18.7619Z" fill="var(--fill-0, #787776)"/>
</g>
</svg>
