<svg preserveAspectRatio="none" width="100%" height="100%" overflow="visible" style="display: block;" viewBox="0 0 24 24" fill="none" xmlns="http://www.w3.org/2000/svg">
<g id="Frame 1618873378">
<path id="&#244;&#128;&#134;&#136;" d="M11.9922 8C12.3134 8 12.606 8.1265 12.8701 8.37951L18.6892 14.2011C18.7928 14.3074 18.8705 14.4213 18.9223 14.5427C18.9741 14.6641 19 14.7957 19 14.9374C19 15.1347 18.9534 15.3144 18.8602 15.4763C18.7617 15.6382 18.6323 15.7647 18.4717 15.8558C18.306 15.9519 18.1247 16 17.9279 16C17.6275 16 17.3633 15.8912 17.1354 15.6736L11.6504 10.1632L12.3341 10.1632L6.8646 15.6736C6.6367 15.8912 6.37255 16 6.07214 16C5.87532 16 5.69663 15.9519 5.53607 15.8558C5.37033 15.7647 5.24084 15.6382 5.14761 15.4763C5.04921 15.3144 5 15.1347 5 14.9374C5 14.654 5.10359 14.4111 5.31077 14.2087L11.1299 8.37951C11.2542 8.253 11.3888 8.15939 11.5339 8.09867C11.6737 8.03795 11.8265 8.00506 11.9922 8Z" fill="var(--fill-0, #545252)"/>
</g>
</svg>
