<svg width="24" height="24" viewBox="0 0 24 24" fill="none" xmlns="http://www.w3.org/2000/svg">
<circle cx="12" cy="12" r="12" fill="#F06600"/>
<g clip-path="url(#clip0_1865_34244)">
<path d="M8.875 4.5H15.125" stroke="white" stroke-width="1.5" stroke-linecap="round" stroke-linejoin="round"/>
<path d="M13.8752 4.5V9.74531L18.7853 17.9281C18.8423 18.0229 18.8731 18.1311 18.8746 18.2417C18.876 18.3523 18.8481 18.4613 18.7937 18.5575C18.7393 18.6538 18.6603 18.7339 18.5648 18.7897C18.4694 18.8455 18.3608 18.8749 18.2502 18.875H5.75019C5.63954 18.875 5.53087 18.8457 5.43527 18.79C5.33968 18.7343 5.26059 18.6542 5.20608 18.5579C5.15158 18.4616 5.12362 18.3525 5.12505 18.2419C5.12649 18.1312 5.15727 18.023 5.21426 17.9281L10.1252 9.74531V4.5" stroke="white" stroke-width="1.5" stroke-linecap="round" stroke-linejoin="round"/>
<path d="M7.59375 13.9594C8.62734 13.7657 10.0938 13.8493 11.9977 14.8126C14.5172 16.0883 16.275 15.8211 17.2711 15.4102" stroke="white" stroke-width="1.5" stroke-linecap="round" stroke-linejoin="round"/>
</g>
<defs>
<clipPath id="clip0_1865_34244">
<rect width="20" height="20" fill="white" transform="translate(2 2)"/>
</clipPath>
</defs>
</svg>
