<svg width="24" height="24" viewBox="0 0 24 24" fill="none" xmlns="http://www.w3.org/2000/svg">
<circle cx="12" cy="12" r="12" fill="#919092"/>
<g clip-path="url(#clip0_40_89185)">
<path d="M4.29556 6.53508C4.21017 6.4411 4.15387 6.32437 4.1335 6.19904C4.11313 6.0737 4.12955 5.94515 4.18079 5.82897C4.23202 5.71279 4.31586 5.61396 4.42214 5.54447C4.52842 5.47499 4.65257 5.43783 4.77955 5.4375H19.217C19.3442 5.43751 19.4685 5.47444 19.5751 5.5438C19.6816 5.61317 19.7657 5.71197 19.8171 5.82822C19.8685 5.94447 19.8851 6.07315 19.8648 6.19863C19.8445 6.32412 19.7882 6.441 19.7027 6.53508L13.967 12.6562V17.4674C13.9671 17.5755 13.9405 17.6819 13.8896 17.7772C13.8386 17.8725 13.7649 17.9537 13.675 18.0137L11.05 19.7634C10.9513 19.8293 10.8365 19.8672 10.718 19.873C10.5994 19.8788 10.4815 19.8524 10.3768 19.7965C10.2721 19.7406 10.1845 19.6573 10.1233 19.5556C10.0622 19.4539 10.0298 19.3374 10.0295 19.2187V12.6562L4.29556 6.53508Z" stroke="white" stroke-width="1.3125" stroke-linecap="round" stroke-linejoin="round"/>
</g>
<defs>
<clipPath id="clip0_40_89185">
<rect width="21" height="21" fill="white" transform="translate(1.5 1.5)"/>
</clipPath>
</defs>
</svg>
