<svg width="25" height="24" viewBox="0 0 25 24" fill="none" xmlns="http://www.w3.org/2000/svg">
<circle cx="12.0312" cy="12" r="12" fill="#F06600"/>
<g clip-path="url(#clip0_40_89134)">
<path d="M12 19.2188C15.9868 19.2188 19.2188 15.9868 19.2188 12C19.2188 8.01319 15.9868 4.78125 12 4.78125C8.01319 4.78125 4.78125 8.01319 4.78125 12C4.78125 15.9868 8.01319 19.2188 12 19.2188Z" stroke="white" stroke-width="1.3125" stroke-linecap="round" stroke-linejoin="round"/>
<path d="M10.3594 12C11.2655 12 12 11.2655 12 10.3594C12 9.45328 11.2655 8.71875 10.3594 8.71875C9.45328 8.71875 8.71875 9.45328 8.71875 10.3594C8.71875 11.2655 9.45328 12 10.3594 12Z" stroke="white" stroke-width="1.3125" stroke-linecap="round" stroke-linejoin="round"/>
<path d="M15.9375 13.3125C16.6624 13.3125 17.25 12.7249 17.25 12C17.25 11.2751 16.6624 10.6875 15.9375 10.6875C15.2126 10.6875 14.625 11.2751 14.625 12C14.625 12.7249 15.2126 13.3125 15.9375 13.3125Z" fill="white"/>
<path d="M12 17.25C12.7249 17.25 13.3125 16.6624 13.3125 15.9375C13.3125 15.2126 12.7249 14.625 12 14.625C11.2751 14.625 10.6875 15.2126 10.6875 15.9375C10.6875 16.6624 11.2751 17.25 12 17.25Z" fill="white"/>
<path d="M12 2.8125V4.78125" stroke="white" stroke-width="1.3125" stroke-linecap="round" stroke-linejoin="round"/>
<path d="M21.1875 12H19.2188" stroke="white" stroke-width="1.3125" stroke-linecap="round" stroke-linejoin="round"/>
<path d="M2.8125 12H4.78125" stroke="white" stroke-width="1.3125" stroke-linecap="round" stroke-linejoin="round"/>
<path d="M12 19.2188V21.1875" stroke="white" stroke-width="1.3125" stroke-linecap="round" stroke-linejoin="round"/>
<path d="M5.4375 5.4375L6.8952 6.8952" stroke="white" stroke-width="1.3125" stroke-linecap="round" stroke-linejoin="round"/>
<path d="M17.1094 6.8952L18.5671 5.4375" stroke="white" stroke-width="1.3125" stroke-linecap="round" stroke-linejoin="round"/>
<path d="M18.5671 18.5671L17.1094 17.1094" stroke="white" stroke-width="1.3125" stroke-linecap="round" stroke-linejoin="round"/>
<path d="M5.4375 18.5671L6.8952 17.1094" stroke="white" stroke-width="1.3125" stroke-linecap="round" stroke-linejoin="round"/>
</g>
<defs>
<clipPath id="clip0_40_89134">
<rect width="21" height="21" fill="white" transform="translate(1.5 1.5)"/>
</clipPath>
</defs>
</svg>
