<svg width="184" height="89" viewBox="0 0 184 89" fill="none" xmlns="http://www.w3.org/2000/svg">
<path d="M13.2285 47.0443L26.9124 39.1492V23.3425L13.2285 15.4392" stroke="#484646" stroke-miterlimit="10"/>
<path d="M100.793 47.3377L94.3675 32.9028L78.6507 31.2454L69.3594 44.0311" stroke="#484646" stroke-miterlimit="10"/>
<path d="M116.854 47.1743H101.056L93.1523 60.8582L101.056 74.542H116.862L124.757 60.8582L116.854 47.1743Z" stroke="#484646" stroke-miterlimit="10"/>
<path d="M124.585 60.9648L116.689 74.6487L124.585 88.3407H140.391L148.295 74.6487L140.391 60.9648" stroke="#484646" stroke-miterlimit="10"/>
<path d="M164.094 47.2812H148.296L140.393 60.9651L148.296 74.6489H164.094L171.998 60.9651L164.094 47.2812Z" stroke="#484646" stroke-miterlimit="10"/>
<path d="M75.7673 4.00098L69.3418 18.436" stroke="#484646" stroke-miterlimit="10"/>
<path d="M13.2285 0V15.8066" stroke="#484646" stroke-miterlimit="10"/>
<path d="M13.2285 47.0435V62.8501" stroke="#484646" stroke-miterlimit="10"/>
<path d="M40.594 15.4392L26.9102 23.3425V39.1492L40.594 47.0443L54.286 39.1492V23.3425L40.594 15.4392Z" fill="#C5C0FE" stroke="#8F8AC4" stroke-miterlimit="10"/>
<path d="M69.3426 18.4355L54.2871 23.3261V39.1572L69.3426 44.056L78.6502 31.2458L69.3426 18.4355Z" fill="#C5C0FE" stroke="#8F8AC4" stroke-miterlimit="10"/>
<circle cx="75.6876" cy="3.26573" r="1.63292" fill="#3A11D8"/>
<circle cx="116.51" cy="74.2977" r="1.63292" fill="#3A11D8"/>
<circle cx="13.6368" cy="15.5126" r="1.63292" fill="#F06600"/>
<circle cx="13.6368" cy="47.3546" r="1.63292" fill="#F06600"/>
</svg>
