<svg width="184" height="102" viewBox="0 0 184 102" fill="none" xmlns="http://www.w3.org/2000/svg">
<path d="M155.081 16.8464L140.496 25.2612V42.1082" stroke="#484646" stroke-miterlimit="10"/>
<path d="M125.906 16.847L140.499 25.2618L155.084 16.847V0" stroke="#484646" stroke-miterlimit="10"/>
<path d="M96.7368 67.3705L82.1523 75.794V92.6409L96.7368 101.056L111.321 92.6409V75.794L96.7368 67.3705Z" stroke="#484646" stroke-miterlimit="10"/>
<path d="M82.1435 92.6409L82.1523 75.794L67.5591 67.3705L52.9746 75.794V92.6409" stroke="#484646" stroke-miterlimit="10"/>
<path d="M36.9241 70.5809L27.0039 84.2343L36.9241 97.879L52.9705 92.6665V75.7934L36.9241 70.5809Z" stroke="#484646" stroke-miterlimit="10"/>
<path d="M125.903 16.8464L111.318 25.2612V42.1082L125.903 50.5317L140.496 42.1082V25.2612L125.903 16.8464Z" stroke="#8F8AC4" stroke-miterlimit="10"/>
<path d="M125.903 50.5327L111.319 42.1093L96.7344 50.5327V67.371L111.319 75.7945" stroke="#8F8AC4" stroke-miterlimit="10"/>
<path d="M67.5566 67.371L82.1498 75.7945L96.7343 67.371V50.5327L82.1498 42.1093" stroke="#8F8AC4" stroke-miterlimit="10"/>
<circle cx="52.5724" cy="75.7069" r="1.74039" fill="#3A11D8"/>
<circle cx="155.256" cy="16.5337" r="1.74039" fill="#F06600"/>
<circle cx="83.0294" cy="42.6396" r="1.74039" fill="#F06600"/>
</svg>
