<svg width="184" height="98" viewBox="0 0 184 98" fill="none" xmlns="http://www.w3.org/2000/svg">
<path d="M48.383 13.8528L36.1055 20.9438V35.126L48.383 42.2097L60.6678 35.126V20.9438L48.383 13.8528Z" fill="#C5C0FE" stroke="#8F8AC4" stroke-miterlimit="10"/>
<path d="M23.8301 42.2097L36.1076 35.126V20.9438L23.8301 13.8528" stroke="#8F8AC4" stroke-miterlimit="10"/>
<path d="M102.396 42.4727L96.6313 29.5212L82.5297 28.0342L74.1934 39.5059" stroke="#484646" stroke-miterlimit="10"/>
<path d="M116.495 43.9529L102.393 42.4731L94.0566 53.9448L99.8291 66.8963L113.931 68.376L122.26 56.9043L116.495 43.9529Z" stroke="#484646" stroke-miterlimit="10"/>
<path d="M79.939 3.58936L74.1738 16.5408" stroke="#8F8AC4" stroke-miterlimit="10"/>
<path d="M122.263 56.9043L113.934 68.376L119.699 81.3274L133.8 82.8145L142.137 71.3428" stroke="#484646" stroke-miterlimit="10"/>
<path d="M156.227 72.823L142.133 71.3433L133.797 82.815L139.562 95.7664L153.664 97.2461L162 85.7744L156.227 72.823Z" stroke="#484646" stroke-miterlimit="10"/>
<path d="M74.18 16.54L60.6719 20.928V35.1321L74.18 39.5274L82.5311 28.0337L74.18 16.54Z" fill="#C5C0FE" stroke="#8F8AC4" stroke-miterlimit="10"/>
<path d="M74.1738 39.5281L79.939 52.4795" stroke="#8F8AC4" stroke-miterlimit="10"/>
<path d="M23.8301 0V14.1821" stroke="#484646" stroke-miterlimit="10"/>
<path d="M23.8301 42.209V56.3911" stroke="#484646" stroke-miterlimit="10"/>
<circle cx="114.299" cy="68.1267" r="1.46509" fill="#3A11D8"/>
<circle cx="79.8694" cy="3.66212" r="1.46509" fill="#8F8AC4"/>
<circle cx="79.8694" cy="52.011" r="1.46509" fill="#8F8AC4"/>
<circle cx="23.4651" cy="13.9177" r="1.46509" fill="#8F8AC4"/>
<circle cx="23.4651" cy="42.4878" r="1.46509" fill="#8F8AC4"/>
</svg>
