<svg preserveAspectRatio="none" width="100%" height="100%" overflow="visible" style="display: block;" viewBox="0 0 18 16" fill="none" xmlns="http://www.w3.org/2000/svg">
<g id="Group 1272632560">
<path id="Vector" d="M1 13.7827V2.21786C1 1.895 1.12967 1.58537 1.36048 1.35707C1.5913 1.12877 1.90435 1.00052 2.23077 1.00052H6.77231C7.05346 0.992415 7.32893 1.07981 7.55287 1.24814C7.7768 1.41648 7.93569 1.6556 8.00308 1.9257L8.38462 3.43521H15.7692C16.0957 3.43521 16.4087 3.56347 16.6395 3.79176C16.8703 4.02006 17 4.3297 17 4.65256V13.7827C17 14.1055 16.8703 14.4152 16.6395 14.6434C16.4087 14.8717 16.0957 15 15.7692 15H2.23077C1.90435 15 1.5913 14.8717 1.36048 14.6434C1.12967 14.4152 1 14.1055 1 13.7827Z" stroke="var(--stroke-0, #787776)" stroke-width="2" stroke-linecap="round" stroke-linejoin="round"/>
<g id="Group">
<path id="Vector_2" d="M9.15625 7.08594V11.3466" stroke="var(--stroke-0, #787776)" stroke-width="2" stroke-linecap="round" stroke-linejoin="round"/>
<path id="Vector_3" d="M7 9.21875H11.3077" stroke="var(--stroke-0, #787776)" stroke-width="2" stroke-linecap="round" stroke-linejoin="round"/>
</g>
</g>
</svg>
