<svg preserveAspectRatio="none" width="100%" height="100%" overflow="visible" style="display: block;" viewBox="0 0 20 21.9999" fill="none" xmlns="http://www.w3.org/2000/svg">
<g id="Group">
<path id="Vector" d="M1 5.61734H19" stroke="var(--stroke-0, #AAAAAD)" stroke-width="2" stroke-linecap="round" stroke-linejoin="round"/>
<path id="Vector_2" d="M3.24998 5.61719H16.75V19.4616C16.75 19.8696 16.5919 20.2608 16.3106 20.5493C16.0293 20.8378 15.6478 20.9999 15.25 20.9999H4.74998C4.35216 20.9999 3.97062 20.8378 3.68932 20.5493C3.40802 20.2608 3.24998 19.8696 3.24998 19.4616V5.61719Z" stroke="var(--stroke-0, #AAAAAD)" stroke-width="2" stroke-linecap="round" stroke-linejoin="round"/>
<path id="Vector_3" d="M6.24998 5.6148V4.84567C6.24998 3.82573 6.64507 2.84757 7.34833 2.12637C8.05159 1.40517 9.00542 1 9.99998 1C10.9945 1 11.9484 1.40517 12.6516 2.12637C13.3549 2.84757 13.75 3.82573 13.75 4.84567V5.6148" stroke="var(--stroke-0, #AAAAAD)" stroke-width="2" stroke-linecap="round" stroke-linejoin="round"/>
<path id="Vector_4" d="M7.74998 8.6875V17.148" stroke="var(--stroke-0, #AAAAAD)" stroke-width="2" stroke-linecap="round" stroke-linejoin="round"/>
<path id="Vector_5" d="M12.25 8.69531V17.1558" stroke="var(--stroke-0, #AAAAAD)" stroke-width="2" stroke-linecap="round" stroke-linejoin="round"/>
</g>
</svg>
