<svg preserveAspectRatio="none" width="100%" height="100%" overflow="visible" style="display: block;" viewBox="0 0 16 16" fill="none" xmlns="http://www.w3.org/2000/svg">
<path id="Clear" d="M8 16C6.90719 16 5.87712 15.7908 4.9098 15.3725C3.94771 14.9542 3.09804 14.3765 2.36078 13.6392C1.62353 12.902 1.04575 12.0523 0.627451 11.0902C0.20915 10.1229 0 9.09281 0 8C0 6.90719 0.20915 5.87974 0.627451 4.91765C1.04575 3.95033 1.62092 3.09804 2.35294 2.36078C3.0902 1.62353 3.93987 1.04575 4.90196 0.627451C5.86928 0.20915 6.89935 0 7.99216 0C9.08497 0 10.115 0.20915 11.0824 0.627451C12.0497 1.04575 12.902 1.62353 13.6392 2.36078C14.3765 3.09804 14.9542 3.95033 15.3725 4.91765C15.7908 5.87974 16 6.90719 16 8C16 9.09281 15.7908 10.1229 15.3725 11.0902C14.9542 12.0523 14.3765 12.902 13.6392 13.6392C12.902 14.3765 12.0497 14.9542 11.0824 15.3725C10.1203 15.7908 9.09281 16 8 16ZM5.23137 11.4196C5.41961 11.4196 5.57909 11.3542 5.7098 11.2235L7.99216 8.92549L10.2902 11.2235C10.4261 11.3542 10.5804 11.4196 10.7529 11.4196C10.9359 11.4196 11.0902 11.3569 11.2157 11.2314C11.3412 11.1007 11.4039 10.9438 11.4039 10.7608C11.4039 10.5882 11.3412 10.434 11.2157 10.298L8.91765 8.00784L11.2235 5.70196C11.349 5.56601 11.4118 5.41176 11.4118 5.23922C11.4118 5.06144 11.349 4.9098 11.2235 4.78431C11.098 4.65882 10.9464 4.59608 10.7686 4.59608C10.5961 4.59608 10.4471 4.66144 10.3216 4.79216L7.99216 7.09804L5.68627 4.8C5.57124 4.67451 5.41961 4.61176 5.23137 4.61176C5.05359 4.61176 4.90196 4.67451 4.77647 4.8C4.65098 4.92026 4.58824 5.0719 4.58824 5.2549C4.58824 5.43268 4.65098 5.58431 4.77647 5.7098L7.07451 8.00784L4.77647 10.3059C4.65098 10.4314 4.58824 10.583 4.58824 10.7608C4.58824 10.9438 4.65098 11.1007 4.77647 11.2314C4.90196 11.3569 5.05359 11.4196 5.23137 11.4196Z" fill="var(--fill-0, #787776)"/>
</svg>
