<svg width="19" height="19" viewBox="0 0 19 19" fill="none" xmlns="http://www.w3.org/2000/svg">
  <path
    d="M17.75 4.91667C17.75 6.9425 14.0558 8.58333 9.5 8.58333C4.94417 8.58333 1.25 6.9425 1.25 4.91667M17.75 4.91667C17.75 2.89083 14.0558 1.25 9.5 1.25C4.94417 1.25 1.25 2.89083 1.25 4.91667M17.75 4.91667V9.5M1.25 4.91667V9.5M1.25 9.5C1.25 11.5258 4.94417 13.1667 9.5 13.1667M1.25 9.5V14.0833C1.25 16.1092 4.94417 17.75 9.5 17.75M15 12.25V15M15 15V17.75M15 15H17.75M15 15H12.25"
    stroke="currentColor"
    stroke-width="1.5"
    stroke-linejoin="round"
  />
</svg>
