<svg width="25" height="24" viewBox="0 0 25 24" fill="none" xmlns="http://www.w3.org/2000/svg">
<circle cx="12.0312" cy="12" r="12" fill="#919092"/>
<g clip-path="url(#clip0_40_89155)">
<path d="M12 8.0625V12L15.2812 13.9688" stroke="white" stroke-width="1.5" stroke-linecap="round" stroke-linejoin="round"/>
<path d="M7.40625 10.0312H4.125V6.75" stroke="white" stroke-width="1.5" stroke-linecap="round" stroke-linejoin="round"/>
<path d="M7.04531 17.2503C8.07724 18.2241 9.37323 18.8721 10.7714 19.1135C12.1695 19.3549 13.6078 19.1789 14.9065 18.6076C16.2051 18.0363 17.3067 17.0949 18.0734 15.9011C18.8402 14.7073 19.2381 13.314 19.2175 11.8954C19.197 10.4767 18.7588 9.09554 17.9578 7.92448C17.1568 6.75342 16.0284 5.84437 14.7137 5.31092C13.399 4.77747 11.9562 4.64327 10.5657 4.9251C9.17512 5.20692 7.89846 5.89227 6.8952 6.89551C5.92969 7.87332 5.13234 8.79536 4.125 10.0316" stroke="white" stroke-width="1.5" stroke-linecap="round" stroke-linejoin="round"/>
</g>
<defs>
<clipPath id="clip0_40_89155">
<rect width="21" height="21" fill="white" transform="translate(1.5 1.5)"/>
</clipPath>
</defs>
</svg>
