<svg preserveAspectRatio="none" width="100%" height="100%" overflow="visible" style="display: block;" viewBox="0 0 35.8472 35.8472" fill="none" xmlns="http://www.w3.org/2000/svg">
<g id="Funnel" clip-path="url(#clip0_121_3807)">
<g id="Vector">
</g>
<path id="Vector_2" d="M4.77205 8.59492C4.62628 8.43451 4.53019 8.23524 4.49541 8.0213C4.46063 7.80735 4.48867 7.58792 4.57613 7.38959C4.66358 7.19126 4.80669 7.02256 4.98811 6.90395C5.16953 6.78534 5.38147 6.72191 5.59822 6.72135H30.2432C30.4601 6.72137 30.6725 6.78441 30.8543 6.90281C31.0361 7.02121 31.1797 7.18988 31.2675 7.38831C31.3553 7.58675 31.3836 7.80641 31.3489 8.02061C31.3142 8.23481 31.218 8.43433 31.0721 8.59492L21.2814 19.0438V27.2565C21.2815 27.4409 21.236 27.6226 21.1491 27.7853C21.0621 27.948 20.9363 28.0867 20.7829 28.189L16.302 31.1758C16.1334 31.2883 15.9375 31.3529 15.7351 31.3629C15.5328 31.3728 15.3315 31.3277 15.1527 31.2322C14.974 31.1368 14.8245 30.9947 14.7201 30.8211C14.6157 30.6474 14.5604 30.4487 14.56 30.2461V19.0438L4.77205 8.59492Z" stroke="var(--stroke-0, white)" stroke-width="2.24045" stroke-linecap="round" stroke-linejoin="round"/>
</g>
<defs>
<clipPath id="clip0_121_3807">
<rect width="35.8472" height="35.8472" fill="white"/>
</clipPath>
</defs>
</svg>
