<svg preserveAspectRatio="none" width="100%" height="100%" overflow="visible" style="display: block;" viewBox="0 0 27.3121 27.3121" fill="none" xmlns="http://www.w3.org/2000/svg">
<g id="Icons 20" style="mix-blend-mode:screen">
<path id="Increment" d="M4.77571 15.708C4.31192 15.708 3.91254 15.5404 3.57758 15.2053C3.24262 14.8701 3.07514 14.4662 3.07514 13.9936C3.07514 13.5209 3.24262 13.117 3.57758 12.7818C3.91254 12.4467 4.31192 12.2791 4.77571 12.2791H23.2243C23.6881 12.2791 24.0875 12.4467 24.4224 12.7818C24.7574 13.117 24.9249 13.5209 24.9249 13.9936C24.9249 14.4662 24.7574 14.8701 24.4224 15.2053C24.0875 15.5404 23.6881 15.708 23.2243 15.708H4.77571ZM14 24.9249C13.5276 24.9249 13.124 24.7573 12.789 24.4221C12.454 24.087 12.2865 23.6874 12.2865 23.2233V4.77671C12.2865 4.31265 12.454 3.91304 12.789 3.57788C13.124 3.24272 13.5276 3.07514 14 3.07514C14.4724 3.07514 14.876 3.24272 15.211 3.57788C15.546 3.91304 15.7135 4.31265 15.7135 4.77671V23.2233C15.7135 23.6874 15.546 24.087 15.211 24.4221C14.876 24.7573 14.4724 24.9249 14 24.9249Z" fill="var(--fill-0, white)"/>
</g>
</svg>
