<svg preserveAspectRatio="none" width="100%" height="100%" overflow="visible" style="display: block;" viewBox="0 0 21 21" fill="none" xmlns="http://www.w3.org/2000/svg">
<g id="Funnel" clip-path="url(#clip0_121_3657)">
<g id="Vector">
</g>
<path id="Vector_2" d="M2.79556 5.03508C2.71017 4.9411 2.65387 4.82437 2.6335 4.69904C2.61313 4.5737 2.62955 4.44515 2.68079 4.32897C2.73202 4.21279 2.81586 4.11396 2.92214 4.04447C3.02842 3.97499 3.15257 3.93783 3.27955 3.9375H17.717C17.8442 3.93751 17.9685 3.97444 18.0751 4.0438C18.1816 4.11317 18.2657 4.21197 18.3171 4.32822C18.3685 4.44447 18.3851 4.57315 18.3648 4.69863C18.3445 4.82412 18.2882 4.941 18.2027 5.03508L12.467 11.1562V15.9674C12.4671 16.0755 12.4405 16.1819 12.3896 16.2772C12.3386 16.3725 12.2649 16.4537 12.175 16.5137L9.55002 18.2634C9.45128 18.3293 9.33652 18.3672 9.21797 18.373C9.09941 18.3788 8.9815 18.3524 8.87678 18.2965C8.77207 18.2406 8.68447 18.1573 8.62332 18.0556C8.56218 17.9539 8.52977 17.8374 8.52955 17.7187V11.1562L2.79556 5.03508Z" stroke="var(--stroke-0, white)" stroke-width="1.3125" stroke-linecap="round" stroke-linejoin="round"/>
</g>
<defs>
<clipPath id="clip0_121_3657">
<rect width="21" height="21" fill="white"/>
</clipPath>
</defs>
</svg>
