<svg width="20" height="20" viewBox="0 0 20 20" fill="none" xmlns="http://www.w3.org/2000/svg">
<path d="M4.21667 5L15.7833 5C16.2 5 16.5056 5.08261 16.7 5.24782C16.9 5.41304 17 5.60951 17 5.83724C17 6.03818 16.9278 6.24358 16.7833 6.45345L11.1083 14.2565C10.9083 14.5334 10.7278 14.7254 10.5667 14.8326C10.4111 14.9442 10.2222 15 10 15C9.78333 15 9.59444 14.9442 9.43333 14.8326C9.27222 14.7254 9.09167 14.5334 8.89167 14.2565L3.21667 6.45345C3.07222 6.24358 3 6.03818 3 5.83724C3 5.60951 3.1 5.41304 3.3 5.24782C3.5 5.08261 3.80556 5 4.21667 5Z" fill="#787776"/>
</svg>
