<svg width="20" height="20" viewBox="0 0 20 20" fill="none" xmlns="http://www.w3.org/2000/svg">
<path d="M15.7833 15L4.21667 15C3.8 15 3.49444 14.9174 3.3 14.7522C3.1 14.587 3 14.3905 3 14.1628C3 13.9618 3.07222 13.7564 3.21667 13.5466L8.89167 5.74347C9.09167 5.46662 9.27222 5.27461 9.43333 5.16745C9.58889 5.05581 9.77778 5 10 5C10.2167 5 10.4056 5.05581 10.5667 5.16745C10.7278 5.27461 10.9083 5.46662 11.1083 5.74347L16.7833 13.5466C16.9278 13.7564 17 13.9618 17 14.1628C17 14.3905 16.9 14.587 16.7 14.7522C16.5 14.9174 16.1944 15 15.7833 15Z" fill="#787776"/>
</svg>
