<svg preserveAspectRatio="none" width="100%" height="100%" overflow="visible" style="display: block;" viewBox="0 0 22 22" fill="none" xmlns="http://www.w3.org/2000/svg">
<g id="GearSix" clip-path="url(#clip0_121_3822)">
<g id="Vector">
</g>
<path id="Vector_2" d="M11.0064 7.90953C12.7129 7.90979 14.0963 9.29377 14.0963 11.0003C14.096 12.7067 12.7128 14.0899 11.0064 14.0902C9.29983 14.0902 7.91586 12.7069 7.91559 11.0003C7.91559 9.2936 9.29967 7.90953 11.0064 7.90953Z" stroke="var(--stroke-0, white)" stroke-width="1.5"/>
<path id="Vector_3" d="M14.3347 2.60596C15.2204 2.93875 16.0497 3.40455 16.7946 3.9878L16.8054 7.08643V7.30323L16.9216 7.48585C16.9819 7.58098 17.0365 7.67325 17.0857 7.76514L17.1872 7.95655L17.3757 8.06299L20.1257 9.63038C20.2692 10.5377 20.2692 11.4613 20.1257 12.3687L17.3777 13.9312L17.197 14.0337L17.0954 14.2144C17.0372 14.3175 16.9763 14.4206 16.9148 14.522L16.8073 14.6997L16.8064 14.9077L16.7917 18.0073C16.0479 18.5926 15.22 19.0611 14.3347 19.396L11.5681 17.8462L11.3972 17.7505H10.6218L10.4519 17.8462L7.67257 19.396C6.78715 19.0631 5.95829 18.5973 5.21359 18.0142L5.20382 14.9165L5.20285 14.6997L5.08761 14.5171L4.92355 14.2378L4.82101 14.0464L4.63253 13.9399L1.88058 12.3716C1.73708 11.464 1.73698 10.5399 1.88058 9.63233L4.6296 8.07081L4.80929 7.96827L4.91183 7.7876C4.9701 7.68451 5.02996 7.58138 5.09152 7.47999L5.19992 7.30225L5.20089 7.09424L5.21456 3.99366C5.95886 3.40854 6.7878 2.94047 7.67355 2.60596L10.446 4.15674L10.6169 4.25245H11.3923L11.5622 4.15674L14.3347 2.60596Z" stroke="var(--stroke-0, white)" stroke-width="1.5"/>
</g>
<defs>
<clipPath id="clip0_121_3822">
<rect width="22" height="22" fill="white"/>
</clipPath>
</defs>
</svg>
