<svg preserveAspectRatio="none" width="100%" height="100%" overflow="visible" style="display: block;" viewBox="0 0 14 14" fill="none" xmlns="http://www.w3.org/2000/svg">
<g id="Funnel" clip-path="url(#clip0_122_32532)">
<g id="Vector">
</g>
<path id="Vector_2" d="M1.86371 3.35672C1.80678 3.29407 1.76925 3.21625 1.75567 3.13269C1.74209 3.04914 1.75304 2.96344 1.78719 2.88598C1.82135 2.80852 1.87724 2.74264 1.94809 2.69632C2.01894 2.64999 2.10171 2.62522 2.18637 2.625H11.8114C11.8961 2.62501 11.979 2.64963 12.05 2.69587C12.1211 2.74211 12.1771 2.80798 12.2114 2.88548C12.2457 2.96298 12.2567 3.04877 12.2432 3.13242C12.2297 3.21608 12.1921 3.294 12.1351 3.35672L8.31137 7.4375V10.6449C8.31141 10.717 8.29367 10.7879 8.2597 10.8514C8.22574 10.915 8.17661 10.9692 8.11668 11.0091L6.36668 12.1756C6.30085 12.2195 6.22435 12.2448 6.14531 12.2487C6.06627 12.2525 5.98766 12.2349 5.91785 12.1977C5.84804 12.1604 5.78965 12.1049 5.74888 12.0371C5.70812 11.9692 5.68651 11.8916 5.68637 11.8125V7.4375L1.86371 3.35672Z" stroke="var(--stroke-0, white)" stroke-width="0.875" stroke-linecap="round" stroke-linejoin="round"/>
</g>
<defs>
<clipPath id="clip0_122_32532">
<rect width="14" height="14" fill="white"/>
</clipPath>
</defs>
</svg>
