<svg preserveAspectRatio="none" width="100%" height="100%" overflow="visible" style="display: block;" viewBox="0 0 21 21" fill="none" xmlns="http://www.w3.org/2000/svg">
<g id="Virus" clip-path="url(#clip0_121_3661)">
<g id="Vector">
</g>
<path id="Vector_2" d="M10.5 17.7188C14.4868 17.7188 17.7188 14.4868 17.7188 10.5C17.7188 6.51319 14.4868 3.28125 10.5 3.28125C6.51319 3.28125 3.28125 6.51319 3.28125 10.5C3.28125 14.4868 6.51319 17.7188 10.5 17.7188Z" stroke="var(--stroke-0, white)" stroke-width="1.3125" stroke-linecap="round" stroke-linejoin="round"/>
<path id="Vector_3" d="M8.85938 10.5C9.76547 10.5 10.5 9.76547 10.5 8.85938C10.5 7.95328 9.76547 7.21875 8.85938 7.21875C7.95328 7.21875 7.21875 7.95328 7.21875 8.85938C7.21875 9.76547 7.95328 10.5 8.85938 10.5Z" stroke="var(--stroke-0, white)" stroke-width="1.3125" stroke-linecap="round" stroke-linejoin="round"/>
<path id="Vector_4" d="M14.4375 11.8125C15.1624 11.8125 15.75 11.2249 15.75 10.5C15.75 9.77513 15.1624 9.1875 14.4375 9.1875C13.7126 9.1875 13.125 9.77513 13.125 10.5C13.125 11.2249 13.7126 11.8125 14.4375 11.8125Z" fill="var(--fill-0, white)"/>
<path id="Vector_5" d="M10.5 15.75C11.2249 15.75 11.8125 15.1624 11.8125 14.4375C11.8125 13.7126 11.2249 13.125 10.5 13.125C9.77513 13.125 9.1875 13.7126 9.1875 14.4375C9.1875 15.1624 9.77513 15.75 10.5 15.75Z" fill="var(--fill-0, white)"/>
<path id="Vector_6" d="M10.5 1.3125V3.28125" stroke="var(--stroke-0, white)" stroke-width="1.3125" stroke-linecap="round" stroke-linejoin="round"/>
<path id="Vector_7" d="M19.6875 10.5H17.7188" stroke="var(--stroke-0, white)" stroke-width="1.3125" stroke-linecap="round" stroke-linejoin="round"/>
<path id="Vector_8" d="M1.3125 10.5H3.28125" stroke="var(--stroke-0, white)" stroke-width="1.3125" stroke-linecap="round" stroke-linejoin="round"/>
<path id="Vector_9" d="M10.5 17.7188V19.6875" stroke="var(--stroke-0, white)" stroke-width="1.3125" stroke-linecap="round" stroke-linejoin="round"/>
<path id="Vector_10" d="M3.9375 3.9375L5.3952 5.3952" stroke="var(--stroke-0, white)" stroke-width="1.3125" stroke-linecap="round" stroke-linejoin="round"/>
<path id="Vector_11" d="M15.6094 5.3952L17.0671 3.9375" stroke="var(--stroke-0, white)" stroke-width="1.3125" stroke-linecap="round" stroke-linejoin="round"/>
<path id="Vector_12" d="M17.0671 17.0671L15.6094 15.6094" stroke="var(--stroke-0, white)" stroke-width="1.3125" stroke-linecap="round" stroke-linejoin="round"/>
<path id="Vector_13" d="M3.9375 17.0671L5.3952 15.6094" stroke="var(--stroke-0, white)" stroke-width="1.3125" stroke-linecap="round" stroke-linejoin="round"/>
</g>
<defs>
<clipPath id="clip0_121_3661">
<rect width="21" height="21" fill="white"/>
</clipPath>
</defs>
</svg>
