<svg preserveAspectRatio="none" width="100%" height="100%" overflow="visible" style="display: block;" viewBox="0 0 14 16.0016" fill="none" xmlns="http://www.w3.org/2000/svg">
<g id="Group 1272633006">
<path id="Vector (Stroke)" fill-rule="evenodd" clip-rule="evenodd" d="M1.71103 2.29019C2.03257 2.27051 2.30952 2.50986 2.32961 2.8248L3.05878 14.2519C3.05891 14.254 3.05904 14.2561 3.05915 14.2582C3.07932 14.6427 3.33996 14.8589 3.64325 14.8589H10.3516C10.6519 14.8589 10.9114 14.6475 10.936 14.2527L11.6652 2.8248C11.6853 2.50986 11.9623 2.27051 12.2838 2.29019C12.6053 2.30988 12.8497 2.58114 12.8296 2.89608L12.1005 14.3224C12.1005 14.3224 12.1005 14.3224 12.1005 14.3225C12.0427 15.2481 11.3397 16.0016 10.3516 16.0016H3.64325C2.6644 16.0016 1.94488 15.2547 1.8942 14.3203L1.16522 2.89608C1.14512 2.58114 1.38949 2.30988 1.71103 2.29019Z" fill="var(--fill-0, #787776)"/>
<path id="Vector (Stroke)_2" fill-rule="evenodd" clip-rule="evenodd" d="M0 2.86042C0 2.54487 0.261167 2.28906 0.583333 2.28906H13.4167C13.7388 2.28906 14 2.54487 14 2.86042C14 3.17597 13.7388 3.43177 13.4167 3.43177H0.583333C0.261167 3.43177 0 3.17597 0 2.86042Z" fill="var(--fill-0, #787776)"/>
<path id="Vector (Stroke)_3" fill-rule="evenodd" clip-rule="evenodd" d="M5.53475 1.14271C5.49664 1.1426 5.45889 1.14987 5.42366 1.16411C5.38843 1.17834 5.35642 1.19925 5.32947 1.22565C5.30252 1.25204 5.28117 1.28339 5.26664 1.3179C5.2521 1.35241 5.24468 1.38939 5.24479 1.42672L5.2448 1.42839V2.85677C5.2448 3.17232 4.98363 3.42813 4.66146 3.42813C4.3393 3.42813 4.07813 3.17232 4.07813 2.85677V1.42912C4.07769 1.24149 4.11507 1.05561 4.18813 0.882153C4.2613 0.708402 4.36882 0.550535 4.50451 0.417632C4.6402 0.28473 4.80138 0.179413 4.97877 0.107741C5.15587 0.0361892 5.34564 -0.000421821 5.53721 3.66651e-06H8.45238C8.64395 -0.000421821 8.83372 0.0361893 9.01082 0.107741C9.18821 0.179413 9.34939 0.284728 9.48508 0.417632C9.62077 0.550536 9.72829 0.708404 9.80147 0.882153C9.87453 1.05565 9.91191 1.24156 9.91146 1.42924V2.85677C9.91146 3.17232 9.6503 3.42813 9.32813 3.42813C9.00596 3.42813 8.7448 3.17232 8.7448 2.85677V1.42839L8.7448 1.42672C8.74491 1.38939 8.73749 1.35241 8.72295 1.3179C8.70842 1.28339 8.68707 1.25204 8.66012 1.22565C8.63317 1.19926 8.60116 1.17834 8.56593 1.16411C8.5307 1.14987 8.49295 1.1426 8.45484 1.14271L8.45313 1.14271H5.53646L5.53475 1.14271Z" fill="var(--fill-0, #787776)"/>
<path id="Vector (Stroke)_4" fill-rule="evenodd" clip-rule="evenodd" d="M6.9974 4.57812C7.31956 4.57812 7.58073 4.83393 7.58073 5.14948V13.1484C7.58073 13.464 7.31956 13.7198 6.9974 13.7198C6.67523 13.7198 6.41406 13.464 6.41406 13.1484V5.14948C6.41406 4.83393 6.67523 4.57812 6.9974 4.57812Z" fill="var(--fill-0, #787776)"/>
<path id="Vector (Stroke)_5" fill-rule="evenodd" clip-rule="evenodd" d="M4.3594 4.5785C4.68136 4.56723 4.95168 4.81374 4.96318 5.12909L5.25484 13.1281C5.26634 13.4434 5.01466 13.7082 4.6927 13.7194C4.37074 13.7307 4.10042 13.4842 4.08892 13.1688L3.79725 5.16988C3.78576 4.85453 4.03743 4.58976 4.3594 4.5785Z" fill="var(--fill-0, #787776)"/>
<path id="Vector (Stroke)_6" fill-rule="evenodd" clip-rule="evenodd" d="M9.64583 4.5785C9.96779 4.58976 10.2195 4.85453 10.208 5.16988L9.9163 13.1688C9.9048 13.4842 9.63448 13.7307 9.31252 13.7194C8.99056 13.7082 8.73888 13.4434 8.75038 13.1281L9.04205 5.12909C9.05354 4.81374 9.32387 4.56723 9.64583 4.5785Z" fill="var(--fill-0, #787776)"/>
</g>
</svg>
