<svg preserveAspectRatio="none" width="100%" height="100%" overflow="visible" style="display: block;" viewBox="0 0 21.8497 21.8497" fill="none" xmlns="http://www.w3.org/2000/svg">
<path id="Increment" d="M1.70057 12.6329C1.23678 12.6329 0.837401 12.4653 0.50244 12.1301C0.16748 11.795 0 11.3911 0 10.9184C0 10.4458 0.16748 10.0418 0.50244 9.70669C0.837401 9.37153 1.23678 9.20395 1.70057 9.20395H20.1491C20.6129 9.20395 21.0123 9.37153 21.3473 9.70669C21.6822 10.0418 21.8497 10.4458 21.8497 10.9184C21.8497 11.3911 21.6822 11.795 21.3473 12.1301C21.0123 12.4653 20.6129 12.6329 20.1491 12.6329H1.70057ZM10.9249 21.8497C10.4525 21.8497 10.0488 21.6821 9.71385 21.347C9.37889 21.0118 9.21141 20.6122 9.21141 20.1481V1.70157C9.21141 1.23751 9.37889 0.837895 9.71385 0.502737C10.0488 0.167579 10.4525 0 10.9249 0C11.3972 0 11.8009 0.167579 12.1359 0.502737C12.4708 0.837895 12.6383 1.23751 12.6383 1.70157V20.1481C12.6383 20.6122 12.4708 21.0118 12.1359 21.347C11.8009 21.6821 11.3972 21.8497 10.9249 21.8497Z" fill="var(--fill-0, white)"/>
</svg>
