<svg preserveAspectRatio="none" width="100%" height="100%" overflow="visible" style="display: block;" viewBox="0 0 35.8472 35.8472" fill="none" xmlns="http://www.w3.org/2000/svg">
<g id="Virus" clip-path="url(#clip0_121_3912)">
<g id="Vector">
</g>
<path id="Vector_2" d="M17.9236 30.2461C24.7291 30.2461 30.2461 24.7291 30.2461 17.9236C30.2461 11.1181 24.7291 5.60112 17.9236 5.60112C11.1181 5.60112 5.60112 11.1181 5.60112 17.9236C5.60112 24.7291 11.1181 30.2461 17.9236 30.2461Z" stroke="var(--stroke-0, white)" stroke-width="2.24045" stroke-linecap="round" stroke-linejoin="round"/>
<path id="Vector_3" d="M15.123 17.9236C16.6697 17.9236 17.9236 16.6697 17.9236 15.123C17.9236 13.5763 16.6697 12.3225 15.123 12.3225C13.5763 12.3225 12.3225 13.5763 12.3225 15.123C12.3225 16.6697 13.5763 17.9236 15.123 17.9236Z" stroke="var(--stroke-0, white)" stroke-width="2.24045" stroke-linecap="round" stroke-linejoin="round"/>
<path id="Vector_4" d="M24.6449 20.164C25.8823 20.164 26.8854 19.161 26.8854 17.9236C26.8854 16.6862 25.8823 15.6831 24.6449 15.6831C23.4076 15.6831 22.4045 16.6862 22.4045 17.9236C22.4045 19.161 23.4076 20.164 24.6449 20.164Z" fill="var(--fill-0, white)"/>
<path id="Vector_5" d="M17.9236 26.8854C19.161 26.8854 20.164 25.8823 20.164 24.6449C20.164 23.4076 19.161 22.4045 17.9236 22.4045C16.6862 22.4045 15.6831 23.4076 15.6831 24.6449C15.6831 25.8823 16.6862 26.8854 17.9236 26.8854Z" fill="var(--fill-0, white)"/>
<path id="Vector_6" d="M17.9236 2.24045V5.60112" stroke="var(--stroke-0, white)" stroke-width="2.24045" stroke-linecap="round" stroke-linejoin="round"/>
<path id="Vector_7" d="M33.6067 17.9236H30.2461" stroke="var(--stroke-0, white)" stroke-width="2.24045" stroke-linecap="round" stroke-linejoin="round"/>
<path id="Vector_8" d="M2.24045 17.9236H5.60112" stroke="var(--stroke-0, white)" stroke-width="2.24045" stroke-linecap="round" stroke-linejoin="round"/>
<path id="Vector_9" d="M17.9236 30.2461V33.6067" stroke="var(--stroke-0, white)" stroke-width="2.24045" stroke-linecap="round" stroke-linejoin="round"/>
<path id="Vector_10" d="M6.72135 6.72135L9.20965 9.20965" stroke="var(--stroke-0, white)" stroke-width="2.24045" stroke-linecap="round" stroke-linejoin="round"/>
<path id="Vector_11" d="M26.6507 9.20965L29.139 6.72135" stroke="var(--stroke-0, white)" stroke-width="2.24045" stroke-linecap="round" stroke-linejoin="round"/>
<path id="Vector_12" d="M29.139 29.1283L26.6507 26.64" stroke="var(--stroke-0, white)" stroke-width="2.24045" stroke-linecap="round" stroke-linejoin="round"/>
<path id="Vector_13" d="M6.72135 29.1283L9.20965 26.64" stroke="var(--stroke-0, white)" stroke-width="2.24045" stroke-linecap="round" stroke-linejoin="round"/>
</g>
<defs>
<clipPath id="clip0_121_3912">
<rect width="35.8472" height="35.8472" fill="white"/>
</clipPath>
</defs>
</svg>
