<svg preserveAspectRatio="none" width="100%" height="100%" overflow="visible" style="display: block;" viewBox="0 0 28.6777 28.6777" fill="none" xmlns="http://www.w3.org/2000/svg">
<g id="Virus" clip-path="url(#clip0_121_3763)">
<g id="Vector">
</g>
<path id="Vector_2" d="M14.3389 24.1968C19.7833 24.1968 24.1968 19.7833 24.1968 14.3389C24.1968 8.89446 19.7833 4.4809 14.3389 4.4809C8.89446 4.4809 4.4809 8.89446 4.4809 14.3389C4.4809 19.7833 8.89446 24.1968 14.3389 24.1968Z" stroke="var(--stroke-0, white)" stroke-width="1.79236" stroke-linecap="round" stroke-linejoin="round"/>
<path id="Vector_3" d="M12.0984 14.3389C13.3358 14.3389 14.3389 13.3358 14.3389 12.0984C14.3389 10.8611 13.3358 9.85798 12.0984 9.85798C10.8611 9.85798 9.85798 10.8611 9.85798 12.0984C9.85798 13.3358 10.8611 14.3389 12.0984 14.3389Z" stroke="var(--stroke-0, white)" stroke-width="1.79236" stroke-linecap="round" stroke-linejoin="round"/>
<path id="Vector_4" d="M19.716 16.1312C20.7058 16.1312 21.5083 15.3288 21.5083 14.3389C21.5083 13.349 20.7058 12.5465 19.716 12.5465C18.7261 12.5465 17.9236 13.349 17.9236 14.3389C17.9236 15.3288 18.7261 16.1312 19.716 16.1312Z" fill="var(--fill-0, white)"/>
<path id="Vector_5" d="M14.3389 21.5083C15.3288 21.5083 16.1312 20.7058 16.1312 19.716C16.1312 18.7261 15.3288 17.9236 14.3389 17.9236C13.349 17.9236 12.5465 18.7261 12.5465 19.716C12.5465 20.7058 13.349 21.5083 14.3389 21.5083Z" fill="var(--fill-0, white)"/>
<path id="Vector_6" d="M14.3389 1.79236V4.4809" stroke="var(--stroke-0, white)" stroke-width="1.79236" stroke-linecap="round" stroke-linejoin="round"/>
<path id="Vector_7" d="M26.8854 14.3389H24.1968" stroke="var(--stroke-0, white)" stroke-width="1.79236" stroke-linecap="round" stroke-linejoin="round"/>
<path id="Vector_8" d="M1.79236 14.3389H4.4809" stroke="var(--stroke-0, white)" stroke-width="1.79236" stroke-linecap="round" stroke-linejoin="round"/>
<path id="Vector_9" d="M14.3389 24.1968V26.8854" stroke="var(--stroke-0, white)" stroke-width="1.79236" stroke-linecap="round" stroke-linejoin="round"/>
<path id="Vector_10" d="M5.37708 5.37708L7.36772 7.36772" stroke="var(--stroke-0, white)" stroke-width="1.79236" stroke-linecap="round" stroke-linejoin="round"/>
<path id="Vector_11" d="M21.3163 7.36772L23.3069 5.37708" stroke="var(--stroke-0, white)" stroke-width="1.79236" stroke-linecap="round" stroke-linejoin="round"/>
<path id="Vector_12" d="M23.3069 23.3069L21.3163 21.3163" stroke="var(--stroke-0, white)" stroke-width="1.79236" stroke-linecap="round" stroke-linejoin="round"/>
<path id="Vector_13" d="M5.37708 23.3069L7.36772 21.3163" stroke="var(--stroke-0, white)" stroke-width="1.79236" stroke-linecap="round" stroke-linejoin="round"/>
</g>
<defs>
<clipPath id="clip0_121_3763">
<rect width="28.6777" height="28.6777" fill="white"/>
</clipPath>
</defs>
</svg>
