<svg preserveAspectRatio="none" width="100%" height="100%" overflow="visible" style="display: block;" viewBox="0 0 10.9887 13.7359" fill="none" xmlns="http://www.w3.org/2000/svg">
<g id="Symbol" style="mix-blend-mode:plus-darker">
<path d="M0 12.5422V1.19371C0 0.784908 0.0907752 0.485117 0.272326 0.29434C0.453876 0.0981135 0.669774 0 0.920019 0C1.14082 0 1.36654 0.0708597 1.59715 0.212579L10.1717 5.78052C10.476 5.97675 10.6869 6.1539 10.8047 6.31197C10.9274 6.46459 10.9887 6.64991 10.9887 6.86794C10.9887 7.08052 10.9274 7.26585 10.8047 7.42392C10.6869 7.58199 10.476 7.75914 10.1717 7.95537L1.59715 13.5233C1.36654 13.665 1.14082 13.7359 0.920019 13.7359C0.669774 13.7359 0.453876 13.6378 0.272326 13.4415C0.0907752 13.2453 0 12.9455 0 12.5422Z" fill="#787776"/>
</g>
</svg>
