<svg preserveAspectRatio="none" width="100%" height="100%" overflow="visible" style="display: block;" viewBox="0 0 28.8454 28.8454" fill="none" xmlns="http://www.w3.org/2000/svg">
<g id="Virus" clip-path="url(#clip0_148_15919)">
<g id="Vector">
</g>
<path id="Vector_2" d="M14.4227 24.3383C19.8989 24.3383 24.3383 19.8989 24.3383 14.4227C24.3383 8.94645 19.8989 4.50709 14.4227 4.50709C8.94645 4.50709 4.50709 8.94645 4.50709 14.4227C4.50709 19.8989 8.94645 24.3383 14.4227 24.3383Z" stroke="var(--stroke-0, white)" stroke-width="1.80284" stroke-linecap="round" stroke-linejoin="round"/>
<path id="Vector_3" d="M12.1691 14.4227C13.4137 14.4227 14.4227 13.4137 14.4227 12.1691C14.4227 10.9245 13.4137 9.9156 12.1691 9.9156C10.9245 9.9156 9.9156 10.9245 9.9156 12.1691C9.9156 13.4137 10.9245 14.4227 12.1691 14.4227Z" stroke="var(--stroke-0, white)" stroke-width="1.80284" stroke-linecap="round" stroke-linejoin="round"/>
<path id="Vector_4" d="M19.8312 16.2255C20.8269 16.2255 21.634 15.4184 21.634 14.4227C21.634 13.427 20.8269 12.6199 19.8312 12.6199C18.8355 12.6199 18.0284 13.427 18.0284 14.4227C18.0284 15.4184 18.8355 16.2255 19.8312 16.2255Z" fill="var(--fill-0, white)"/>
<path id="Vector_5" d="M14.4227 21.634C15.4184 21.634 16.2255 20.8269 16.2255 19.8312C16.2255 18.8355 15.4184 18.0284 14.4227 18.0284C13.427 18.0284 12.6199 18.8355 12.6199 19.8312C12.6199 20.8269 13.427 21.634 14.4227 21.634Z" fill="var(--fill-0, white)"/>
<path id="Vector_6" d="M14.4227 1.80284V4.50709" stroke="var(--stroke-0, white)" stroke-width="1.80284" stroke-linecap="round" stroke-linejoin="round"/>
<path id="Vector_7" d="M27.0425 14.4227H24.3383" stroke="var(--stroke-0, white)" stroke-width="1.80284" stroke-linecap="round" stroke-linejoin="round"/>
<path id="Vector_8" d="M1.80284 14.4227H4.50709" stroke="var(--stroke-0, white)" stroke-width="1.80284" stroke-linecap="round" stroke-linejoin="round"/>
<path id="Vector_9" d="M14.4227 24.3383V27.0425" stroke="var(--stroke-0, white)" stroke-width="1.80284" stroke-linecap="round" stroke-linejoin="round"/>
<path id="Vector_10" d="M5.40851 5.40851L7.41078 7.41078" stroke="var(--stroke-0, white)" stroke-width="1.80284" stroke-linecap="round" stroke-linejoin="round"/>
<path id="Vector_11" d="M21.4409 7.41078L23.4431 5.40851" stroke="var(--stroke-0, white)" stroke-width="1.80284" stroke-linecap="round" stroke-linejoin="round"/>
<path id="Vector_12" d="M23.4431 23.4431L21.4409 21.4409" stroke="var(--stroke-0, white)" stroke-width="1.80284" stroke-linecap="round" stroke-linejoin="round"/>
<path id="Vector_13" d="M5.40851 23.4431L7.41078 21.4409" stroke="var(--stroke-0, white)" stroke-width="1.80284" stroke-linecap="round" stroke-linejoin="round"/>
</g>
<defs>
<clipPath id="clip0_148_15919">
<rect width="28.8454" height="28.8454" fill="white"/>
</clipPath>
</defs>
</svg>
