<svg preserveAspectRatio="none" width="100%" height="100%" overflow="visible" style="display: block;" viewBox="0 0 21.9774 21.9774" fill="none" xmlns="http://www.w3.org/2000/svg">
<path id="Symbol" d="M10.9736 2.74707C11.9077 2.74708 12.7717 2.8882 13.5801 3.15918L13.5869 3.16113L13.5947 3.16406C14.4282 3.43842 15.1762 3.82405 15.8516 4.32031C16.5422 4.82793 17.1387 5.42399 17.6465 6.11426C18.1458 6.7931 18.5369 7.54603 18.8184 8.38477C19.0892 9.19226 19.2304 10.0553 19.2305 10.9883V11.0039C19.2356 11.9304 19.0982 12.7867 18.8301 13.5879C18.5496 14.4188 18.1584 15.1739 17.6562 15.8633C17.1506 16.5507 16.5584 17.14 15.873 17.6387L15.8623 17.6465C15.183 18.1457 14.4293 18.5369 13.5898 18.8184C12.7815 19.0893 11.9174 19.2305 10.9834 19.2305C10.0494 19.2305 9.18531 19.0893 8.37695 18.8184H8.37598C7.54528 18.5376 6.79563 18.1465 6.11523 17.6465L6.10449 17.6387C5.41906 17.1399 4.82603 16.5508 4.32031 15.8633C3.81918 15.1753 3.42975 14.4217 3.14941 13.5928C2.88511 12.7852 2.74707 11.9214 2.74707 10.9883C2.74711 10.0554 2.88517 9.19219 3.14941 8.38477C3.43104 7.54539 3.8184 6.79236 4.31055 6.11426C4.81832 5.42399 5.4148 4.82793 6.10547 4.32031C6.78358 3.82199 7.53033 3.43599 8.35742 3.16211L8.36719 3.15918C9.17554 2.88823 10.0396 2.74707 10.9736 2.74707Z" stroke="var(--stroke-0, #4013EE)" stroke-width="5.49436"/>
</svg>
