<svg preserveAspectRatio="none" width="100%" height="100%" overflow="visible" style="display: block;" viewBox="0 0 35.8472 35.8472" fill="none" xmlns="http://www.w3.org/2000/svg">
<g id="ClockCounterClockwise" clip-path="url(#clip0_121_3889)">
<g id="Vector">
</g>
<path id="Vector_2" d="M17.9236 11.2022V17.9236L23.5247 21.2843" stroke="var(--stroke-0, white)" stroke-width="2.56051" stroke-linecap="round" stroke-linejoin="round"/>
<path id="Vector_3" d="M10.082 14.5629H4.4809V8.9618" stroke="var(--stroke-0, white)" stroke-width="2.56051" stroke-linecap="round" stroke-linejoin="round"/>
<path id="Vector_4" d="M9.4659 26.8859C11.2274 28.5481 13.4397 29.6543 15.8263 30.0664C18.2129 30.4785 20.668 30.1781 22.8849 29.2028C25.1018 28.2275 26.9821 26.6206 28.291 24.5828C29.5998 22.545 30.2791 20.1666 30.244 17.745C30.2089 15.3233 29.4609 12.9657 28.0936 10.9666C26.7262 8.96763 24.8001 7.41587 22.5559 6.50527C20.3116 5.59466 17.8488 5.36559 15.4752 5.84667C13.1015 6.32775 10.9222 7.49764 9.20965 9.21019C7.56151 10.8793 6.20044 12.4532 4.4809 14.5635" stroke="var(--stroke-0, white)" stroke-width="2.56051" stroke-linecap="round" stroke-linejoin="round"/>
</g>
<defs>
<clipPath id="clip0_121_3889">
<rect width="35.8472" height="35.8472" fill="white"/>
</clipPath>
</defs>
</svg>
