<svg preserveAspectRatio="none" width="100%" height="100%" overflow="visible" style="display: block;" viewBox="0 0 20 20" fill="none" xmlns="http://www.w3.org/2000/svg">
<path id="Clear" d="M10 20C8.63399 20 7.34641 19.7386 6.13725 19.2157C4.93464 18.6928 3.87255 17.9706 2.95098 17.049C2.02941 16.1275 1.30719 15.0654 0.784314 13.8627C0.261438 12.6536 0 11.366 0 10C0 8.63399 0.261438 7.34967 0.784314 6.14706C1.30719 4.93791 2.02614 3.87255 2.94118 2.95098C3.86274 2.02941 4.92484 1.30719 6.12745 0.784314C7.3366 0.261438 8.62418 0 9.9902 0C11.3562 0 12.6438 0.261438 13.8529 0.784314C15.0621 1.30719 16.1275 2.02941 17.049 2.95098C17.9706 3.87255 18.6928 4.93791 19.2157 6.14706C19.7386 7.34967 20 8.63399 20 10C20 11.366 19.7386 12.6536 19.2157 13.8627C18.6928 15.0654 17.9706 16.1275 17.049 17.049C16.1275 17.9706 15.0621 18.6928 13.8529 19.2157C12.6503 19.7386 11.366 20 10 20ZM6.53922 14.2745C6.77451 14.2745 6.97386 14.1928 7.13725 14.0294L9.9902 11.1569L12.8627 14.0294C13.0327 14.1928 13.2255 14.2745 13.4412 14.2745C13.6699 14.2745 13.8627 14.1961 14.0196 14.0392C14.1765 13.8758 14.2549 13.6797 14.2549 13.451C14.2549 13.2353 14.1765 13.0425 14.0196 12.8725L11.1471 10.0098L14.0294 7.12745C14.1863 6.95752 14.2647 6.76471 14.2647 6.54902C14.2647 6.3268 14.1863 6.13725 14.0294 5.98039C13.8725 5.82353 13.683 5.7451 13.4608 5.7451C13.2451 5.7451 13.0588 5.8268 12.902 5.9902L9.9902 8.87255L7.10784 6C6.96405 5.84314 6.77451 5.76471 6.53922 5.76471C6.31699 5.76471 6.12745 5.84314 5.97059 6C5.81373 6.15033 5.73529 6.33987 5.73529 6.56863C5.73529 6.79085 5.81373 6.98039 5.97059 7.13725L8.84314 10.0098L5.97059 12.8824C5.81373 13.0392 5.73529 13.2288 5.73529 13.451C5.73529 13.6797 5.81373 13.8758 5.97059 14.0392C6.12745 14.1961 6.31699 14.2745 6.53922 14.2745Z" fill="var(--fill-0, #787776)"/>
</svg>
