<svg preserveAspectRatio="none" width="100%" height="100%" overflow="visible" style="display: block;" viewBox="0 0 16 16" fill="none" xmlns="http://www.w3.org/2000/svg">
<path id="Symbol" d="M7.98926 2C8.66917 2.00003 9.29828 2.10255 9.88672 2.2998L9.89648 2.30371C10.5035 2.5035 11.0492 2.78405 11.541 3.14551C12.0437 3.51499 12.4771 3.94878 12.8467 4.45117C13.2103 4.94542 13.4953 5.49381 13.7002 6.10449C13.8974 6.69239 14 7.32073 14 8V8.01074C14.0037 8.68541 13.9034 9.30916 13.708 9.89258C13.503 10.4997 13.2171 11.0514 12.8496 11.5547C12.4824 12.0527 12.0527 12.4801 11.5557 12.8418L11.5479 12.8467C11.0533 13.2101 10.5047 13.4953 9.89355 13.7002C9.30511 13.8974 8.67601 14 7.99609 14C7.31725 14 6.68921 13.8978 6.10156 13.7012H6.10254C5.49611 13.4966 4.94863 13.2116 4.45215 12.8467L4.44434 12.8418L4.25977 12.7021C3.89837 12.4175 3.57499 12.0952 3.28711 11.7334L3.14551 11.5488C2.78247 11.0505 2.4988 10.5052 2.29492 9.90527C2.10054 9.31471 2 8.68285 2 8C2 7.32077 2.1006 6.69236 2.29297 6.10449C2.49807 5.4932 2.77923 4.944 3.1377 4.4502L3.13867 4.45117C3.50827 3.94878 3.94165 3.51499 4.44434 3.14551C4.93796 2.78271 5.48192 2.50216 6.08398 2.30273L6.0918 2.2998C6.6802 2.10262 7.3094 2 7.98926 2Z" stroke="var(--stroke-0, #4013EE)" stroke-width="4"/>
</svg>
