<svg width="20" height="20" viewBox="0 0 20 20" fill="none" xmlns="http://www.w3.org/2000/svg">
<g style="mix-blend-mode:plus-darker">
<path d="M10 18C8.90719 18 7.87712 17.7908 6.9098 17.3725C5.94771 16.9542 5.09804 16.3765 4.36078 15.6392C3.62353 14.902 3.04575 14.0523 2.62745 13.0902C2.20915 12.1229 2 11.0928 2 10C2 8.90719 2.20915 7.87974 2.62745 6.91765C3.04575 5.95033 3.62092 5.09804 4.35294 4.36078C5.0902 3.62353 5.93987 3.04575 6.90196 2.62745C7.86928 2.20915 8.89935 2 9.99216 2C11.085 2 12.115 2.20915 13.0824 2.62745C14.0497 3.04575 14.902 3.62353 15.6392 4.36078C16.3765 5.09804 16.9542 5.95033 17.3725 6.91765C17.7908 7.87974 18 8.90719 18 10C18 11.0928 17.7908 12.1229 17.3725 13.0902C16.9542 14.0523 16.3765 14.902 15.6392 15.6392C14.902 16.3765 14.0497 16.9542 13.0824 17.3725C12.1203 17.7908 11.0928 18 10 18ZM7.23137 13.4196C7.41961 13.4196 7.57908 13.3542 7.7098 13.2235L9.99216 10.9255L12.2902 13.2235C12.4261 13.3542 12.5804 13.4196 12.7529 13.4196C12.9359 13.4196 13.0902 13.3569 13.2157 13.2314C13.3412 13.1007 13.4039 12.9438 13.4039 12.7608C13.4039 12.5882 13.3412 12.434 13.2157 12.298L10.9176 10.0078L13.2235 7.70196C13.349 7.56601 13.4118 7.41176 13.4118 7.23922C13.4118 7.06144 13.349 6.9098 13.2235 6.78431C13.098 6.65882 12.9464 6.59608 12.7686 6.59608C12.5961 6.59608 12.4471 6.66144 12.3216 6.79216L9.99216 9.09804L7.68627 6.8C7.57124 6.67451 7.41961 6.61176 7.23137 6.61176C7.0536 6.61176 6.90196 6.67451 6.77647 6.8C6.65098 6.92026 6.58824 7.0719 6.58824 7.2549C6.58824 7.43268 6.65098 7.58431 6.77647 7.7098L9.07451 10.0078L6.77647 12.3059C6.65098 12.4314 6.58824 12.583 6.58824 12.7608C6.58824 12.9438 6.65098 13.1007 6.77647 13.2314C6.90196 13.3569 7.0536 13.4196 7.23137 13.4196Z" fill="#787776"/>
</g>
</svg>
