<svg width="16" height="16" viewBox="0 0 16 16" fill="none" xmlns="http://www.w3.org/2000/svg">
<g style="mix-blend-mode:plus-darker">
<path d="M14 8C14 11.3138 11.3138 14 8 14C4.6862 14 2 11.3138 2 8C2 4.6862 4.6862 2 8 2V3.2C6.85072 3.20013 5.73963 3.61262 4.86869 4.36249C3.99775 5.11236 3.42477 6.14984 3.2539 7.28635C3.08302 8.42285 3.3256 9.58295 3.93754 10.5558C4.54947 11.5286 5.49015 12.2496 6.58858 12.5876C7.68701 12.9257 8.87028 12.8584 9.92333 12.3981C10.9764 11.9377 11.8293 11.1148 12.327 10.0789C12.8248 9.04295 12.9343 7.86284 12.6357 6.75302C12.3372 5.6432 11.6503 4.67734 10.7 4.031V5.6H9.5V2H13.1V3.2H11.6C12.3455 3.75856 12.9506 4.4832 13.3672 5.3164C13.7838 6.14961 14.0005 7.06845 14 8Z" fill="#787776"/>
</g>
</svg>
