<svg width="20" height="20" viewBox="0 0 20 20" fill="none" xmlns="http://www.w3.org/2000/svg">
<g style="mix-blend-mode:plus-darker">
<path d="M16.6927 10.5279C16.5622 10.382 16.4902 10.1943 16.4902 10C16.4902 9.8057 16.5622 9.61804 16.6927 9.47207L17.735 8.32023C17.8499 8.19438 17.9212 8.03603 17.9387 7.8679C17.9563 7.69976 17.9192 7.53049 17.8327 7.38436L16.2041 4.61673C16.1186 4.47077 15.9883 4.35507 15.8318 4.28613C15.6754 4.21718 15.5007 4.19852 15.3328 4.23278L13.802 4.53674C13.6072 4.57628 13.4044 4.54441 13.2319 4.44716C13.0594 4.3499 12.929 4.19398 12.8655 4.00882L12.3688 2.54501C12.3142 2.38614 12.2101 2.24815 12.0713 2.15054C11.9325 2.05294 11.7659 2.00065 11.5952 2.00109H8.33804C8.16047 1.99198 7.98474 2.04022 7.8377 2.13844C7.69067 2.23666 7.5804 2.37945 7.52374 2.54501L7.06773 4.00882C7.00422 4.19398 6.87391 4.3499 6.70139 4.44716C6.52888 4.54441 6.32609 4.57628 6.13129 4.53674L4.5597 4.23278C4.40055 4.21069 4.2383 4.23536 4.09339 4.30369C3.94849 4.37201 3.82741 4.48093 3.7454 4.61673L2.11681 7.38436C2.02818 7.52886 1.98833 7.69718 2.00296 7.86527C2.01758 8.03336 2.08594 8.1926 2.19824 8.32023L3.2324 9.47207C3.36295 9.61804 3.43494 9.8057 3.43494 10C3.43494 10.1943 3.36295 10.382 3.2324 10.5279L2.19824 11.6798C2.08594 11.8074 2.01758 11.9666 2.00296 12.1347C1.98833 12.3028 2.02818 12.4711 2.11681 12.6156L3.7454 15.3833C3.83099 15.5292 3.96129 15.6449 4.11774 15.7139C4.2742 15.7828 4.44881 15.8015 4.6167 15.7672L6.14758 15.4633C6.34237 15.4237 6.54516 15.4556 6.71768 15.5528C6.8902 15.6501 7.02051 15.806 7.08402 15.9912L7.58074 17.455C7.6374 17.6205 7.74767 17.7633 7.89471 17.8616C8.04174 17.9598 8.21747 18.008 8.39504 17.9989H11.6522C11.8229 17.9993 11.9895 17.9471 12.1283 17.8495C12.2671 17.7519 12.3712 17.6139 12.4258 17.455L12.9225 15.9912C12.986 15.806 13.1164 15.6501 13.2889 15.5528C13.4614 15.4556 13.6642 15.4237 13.859 15.4633L15.3898 15.7672C15.5577 15.8015 15.7324 15.7828 15.8888 15.7139C16.0453 15.6449 16.1756 15.5292 16.2611 15.3833L17.8897 12.6156C17.9762 12.4695 18.0133 12.3002 17.9958 12.1321C17.9782 11.964 17.9069 11.8056 17.792 11.6798L16.6927 10.5279ZM15.4794 11.5998L16.1309 12.3197L15.0886 14.0954L14.1277 13.9035C13.5412 13.7857 12.9311 13.8836 12.4133 14.1785C11.8954 14.4734 11.5058 14.9448 11.3184 15.5033L11.0089 16.3991H8.92433L8.63118 15.4873C8.44378 14.9288 8.05416 14.4574 7.53628 14.1625C7.01841 13.8676 6.40833 13.7697 5.82186 13.8875L4.86099 14.0794L3.80241 12.3117L4.45384 11.5918C4.85444 11.1518 5.07591 10.5823 5.07591 9.992C5.07591 9.40174 4.85444 8.83218 4.45384 8.39222L3.80241 7.67232L4.8447 5.91256L5.80557 6.10453C6.39205 6.22229 7.00213 6.12443 7.52 5.82953C8.03787 5.53462 8.42749 5.0632 8.6149 4.50475L8.92433 3.60087H11.0089L11.3184 4.51275C11.5058 5.0712 11.8954 5.54262 12.4133 5.83752C12.9311 6.13243 13.5412 6.23029 14.1277 6.11253L15.0886 5.92055L16.1309 7.69631L15.4794 8.41622C15.0833 8.85516 14.8646 9.42142 14.8646 10.008C14.8646 10.5946 15.0833 11.1608 15.4794 11.5998ZM9.96663 6.80044C9.32242 6.80044 8.69268 6.98809 8.15703 7.33966C7.62139 7.69123 7.20391 8.19094 6.95738 8.77558C6.71085 9.36022 6.64635 10.0035 6.77203 10.6242C6.89771 11.2449 7.20793 11.815 7.66345 12.2624C8.11898 12.7099 8.69935 13.0146 9.33118 13.1381C9.96302 13.2615 10.6179 13.1982 11.2131 12.956C11.8083 12.7138 12.317 12.3037 12.6749 11.7776C13.0328 11.2514 13.2238 10.6328 13.2238 10C13.2238 9.15142 12.8806 8.3376 12.2698 7.73757C11.659 7.13753 10.8305 6.80044 9.96663 6.80044ZM9.96663 11.5998C9.64453 11.5998 9.32965 11.506 9.06183 11.3302C8.79401 11.1544 8.58527 10.9045 8.46201 10.6122C8.33874 10.3199 8.30649 9.99823 8.36933 9.6879C8.43217 9.37757 8.58728 9.09252 8.81504 8.86878C9.0428 8.64505 9.33299 8.49268 9.64891 8.43096C9.96482 8.36923 10.2923 8.40091 10.5899 8.52199C10.8875 8.64308 11.1418 8.84813 11.3208 9.11121C11.4997 9.37429 11.5952 9.68359 11.5952 10C11.5952 10.4243 11.4236 10.8312 11.1182 11.1312C10.8128 11.4312 10.3986 11.5998 9.96663 11.5998Z" fill="#787776"/>
</g>
</svg>
