<svg width="16" height="16" viewBox="0 0 16 16" fill="none" xmlns="http://www.w3.org/2000/svg">
<g style="mix-blend-mode:plus-darker">
<path d="M6.99325 10.387C7.46701 10.387 7.91377 10.2985 8.33351 10.1215C8.75325 9.9403 9.12312 9.69326 9.44312 9.38034C9.76312 9.0633 10.0125 8.69686 10.1912 8.28101C10.374 7.86516 10.4655 7.42048 10.4655 6.94699C10.4655 6.47349 10.374 6.02882 10.1912 5.61297C10.0125 5.19712 9.76312 4.83067 9.44312 4.51364C9.12312 4.1966 8.75325 3.94956 8.33351 3.77252C7.91377 3.59547 7.46701 3.50695 6.99325 3.50695C6.51532 3.50695 6.06649 3.59547 5.64675 3.77252C5.22701 3.94956 4.85714 4.1966 4.53714 4.51364C4.21714 4.83067 3.96571 5.19712 3.78286 5.61297C3.60416 6.02882 3.51481 6.47349 3.51481 6.94699C3.51481 7.42048 3.60416 7.86516 3.78286 8.28101C3.96571 8.69686 4.21714 9.0633 4.53714 9.38034C4.85714 9.69326 5.22701 9.9403 5.64675 10.1215C6.06649 10.2985 6.51532 10.387 6.99325 10.387ZM6.99325 11.894C6.30338 11.894 5.65714 11.7643 5.05455 11.5049C4.4561 11.2455 3.92623 10.8893 3.46494 10.4364C3.00779 9.98353 2.64831 9.45857 2.38649 8.86155C2.12883 8.26454 2 7.62635 2 6.94699C2 6.26763 2.12883 5.62944 2.38649 5.03242C2.64831 4.43541 3.00779 3.91045 3.46494 3.45754C3.92623 3.00051 4.45818 2.64436 5.06078 2.38909C5.66338 2.1297 6.30753 2 6.99325 2C7.67896 2 8.32104 2.1297 8.91948 2.38909C9.52208 2.64436 10.0519 3.00051 10.5091 3.45754C10.9704 3.91045 11.3299 4.43541 11.5875 5.03242C11.8494 5.62944 11.9803 6.26763 11.9803 6.94699C11.9803 7.62635 11.8494 8.26454 11.5875 8.86155C11.3299 9.45857 10.9704 9.98353 10.5091 10.4364C10.0519 10.8893 9.52208 11.2455 8.91948 11.5049C8.32104 11.7643 7.67896 11.894 6.99325 11.894ZM12.9465 14C12.801 14 12.6618 13.9753 12.5288 13.9259C12.3958 13.8765 12.2774 13.8003 12.1735 13.6974L8.96935 10.5167L10.5091 9.02831L13.7008 12.1904C13.8088 12.2934 13.8857 12.4086 13.9314 12.5363C13.9771 12.668 14 12.8019 14 12.9377C14 13.1395 13.9543 13.3186 13.8629 13.475C13.7714 13.6356 13.6447 13.7633 13.4826 13.858C13.3247 13.9527 13.146 14 12.9465 14Z" fill="#AAAAAD"/>
</g>
</svg>
