<svg width="16" height="16" viewBox="0 0 16 16" fill="none" xmlns="http://www.w3.org/2000/svg">
<g style="mix-blend-mode:plus-darker">
<path d="M3 12.9571V3.04286C3 2.68571 3.08261 2.42381 3.24782 2.25714C3.41304 2.08571 3.60951 2 3.83724 2C4.03818 2 4.24358 2.0619 4.45345 2.18571L12.2565 7.05C12.5334 7.22143 12.7254 7.37619 12.8326 7.51429C12.9442 7.64762 13 7.80952 13 8C13 8.18571 12.9442 8.34762 12.8326 8.48571C12.7254 8.62381 12.5334 8.77857 12.2565 8.95L4.45345 13.8143C4.24358 13.9381 4.03818 14 3.83724 14C3.60951 14 3.41304 13.9143 3.24782 13.7429C3.08261 13.5714 3 13.3095 3 12.9571Z" fill="#787776"/>
</g>
</svg>
