<svg width="24" height="24" viewBox="0 0 24 24" fill="none" xmlns="http://www.w3.org/2000/svg">
<g style="mix-blend-mode:plus-darker">
<path d="M12 22C10.634 22 9.34641 21.7386 8.13725 21.2157C6.93464 20.6928 5.87255 19.9706 4.95098 19.049C4.02941 18.1275 3.30719 17.0654 2.78431 15.8627C2.26144 14.6536 2 13.366 2 12C2 10.634 2.26144 9.34967 2.78431 8.14706C3.30719 6.93791 4.02614 5.87255 4.94118 4.95098C5.86275 4.02941 6.92484 3.30719 8.12745 2.78431C9.3366 2.26144 10.6242 2 11.9902 2C13.3562 2 14.6438 2.26144 15.8529 2.78431C17.0621 3.30719 18.1275 4.02941 19.049 4.95098C19.9706 5.87255 20.6928 6.93791 21.2157 8.14706C21.7386 9.34967 22 10.634 22 12C22 13.366 21.7386 14.6536 21.2157 15.8627C20.6928 17.0654 19.9706 18.1275 19.049 19.049C18.1275 19.9706 17.0621 20.6928 15.8529 21.2157C14.6503 21.7386 13.366 22 12 22ZM8.53922 16.2745C8.77451 16.2745 8.97386 16.1928 9.13725 16.0294L11.9902 13.1569L14.8627 16.0294C15.0327 16.1928 15.2255 16.2745 15.4412 16.2745C15.6699 16.2745 15.8627 16.1961 16.0196 16.0392C16.1765 15.8758 16.2549 15.6797 16.2549 15.451C16.2549 15.2353 16.1765 15.0425 16.0196 14.8725L13.1471 12.0098L16.0294 9.12745C16.1863 8.95752 16.2647 8.76471 16.2647 8.54902C16.2647 8.3268 16.1863 8.13725 16.0294 7.98039C15.8725 7.82353 15.683 7.7451 15.4608 7.7451C15.2451 7.7451 15.0588 7.8268 14.902 7.9902L11.9902 10.8725L9.10784 8C8.96405 7.84314 8.77451 7.76471 8.53922 7.76471C8.31699 7.76471 8.12745 7.84314 7.97059 8C7.81373 8.15033 7.73529 8.33987 7.73529 8.56863C7.73529 8.79085 7.81373 8.98039 7.97059 9.13725L10.8431 12.0098L7.97059 14.8824C7.81373 15.0392 7.73529 15.2288 7.73529 15.451C7.73529 15.6797 7.81373 15.8758 7.97059 16.0392C8.12745 16.1961 8.31699 16.2745 8.53922 16.2745Z" fill="#787776"/>
</g>
</svg>
