<svg width="24" height="24" viewBox="0 0 24 24" fill="none" xmlns="http://www.w3.org/2000/svg">
<path d="M19.8906 9.5811C19.8075 9.4166 19.6802 9.27826 19.523 9.18143C19.3658 9.08459 19.1847 9.03304 18.9999 9.03248H13.9958V3.04747C14.0066 2.8287 13.9448 2.61249 13.8199 2.43221C13.6951 2.25193 13.5143 2.1176 13.3053 2.04997C13.1043 1.98407 12.8876 1.98333 12.6862 2.04785C12.4848 2.11237 12.3091 2.23883 12.1843 2.40907L4.1778 13.3816C4.07748 13.5261 4.01725 13.6944 4.00319 13.8696C3.98913 14.0448 4.02174 14.2205 4.09773 14.3791C4.16771 14.5604 4.28928 14.7174 4.44751 14.8308C4.60574 14.9442 4.79375 15.0091 4.98846 15.0175H9.99255V21.0025C9.9927 21.2128 10.0596 21.4178 10.1836 21.588C10.3076 21.7582 10.4825 21.8849 10.6831 21.9501C10.7836 21.9815 10.8881 21.9982 10.9934 22C11.1513 22.0004 11.307 21.9636 11.4479 21.8925C11.5888 21.8214 11.7109 21.7181 11.804 21.591L19.8106 10.6185C19.9184 10.4697 19.9829 10.2941 19.9971 10.111C20.0112 9.92799 19.9744 9.74462 19.8906 9.5811ZM11.9942 17.9302V14.02C11.9942 13.7554 11.8887 13.5017 11.701 13.3146C11.5134 13.1276 11.2588 13.0225 10.9934 13.0225H6.9901L11.9942 6.11977V10.03C11.9942 10.2945 12.0996 10.5483 12.2873 10.7353C12.475 10.9224 12.7296 11.0275 12.995 11.0275H16.9983L11.9942 17.9302Z" fill="#787776"/>
</svg>
