<svg width="24" height="24" viewBox="0 0 24 24" fill="none" xmlns="http://www.w3.org/2000/svg">
<g style="mix-blend-mode:plus-darker">
<path d="M22 12C22 17.523 17.523 22 12 22C6.477 22 2 17.523 2 12C2 6.477 6.477 2 12 2V4C10.0845 4.00022 8.23272 4.6877 6.78115 5.93749C5.32958 7.18727 4.37462 8.9164 4.08983 10.8106C3.80504 12.7048 4.20934 14.6382 5.22923 16.2596C6.24912 17.881 7.81691 19.0826 9.64763 19.646C11.4783 20.2095 13.4505 20.0974 15.2055 19.3301C16.9606 18.5628 18.3821 17.1913 19.2117 15.4648C20.0413 13.7382 20.2239 11.7714 19.7262 9.9217C19.2286 8.07199 18.0839 6.46223 16.5 5.385V8H14.5V2H20.5V4H18C19.2425 4.93093 20.251 6.13866 20.9453 7.52734C21.6397 8.91601 22.0008 10.4474 22 12Z" fill="#787776" stroke="#787776" stroke-width="0.5"/>
</g>
</svg>
