<svg width="24" height="24" viewBox="0 0 24 24" fill="none" xmlns="http://www.w3.org/2000/svg">
<g style="mix-blend-mode:plus-darker">
<path d="M2.99976 6.61725H20.9998" stroke="#787776" stroke-width="2" stroke-linecap="round" stroke-linejoin="round"/>
<path d="M5.24976 6.61707H18.7498V20.4615C18.7498 20.8694 18.5917 21.2607 18.3104 21.5492C18.0291 21.8377 17.6476 21.9997 17.2498 21.9997H6.74976C6.35193 21.9997 5.9704 21.8377 5.6891 21.5492C5.40779 21.2607 5.24976 20.8694 5.24976 20.4615V6.61707Z" stroke="#787776" stroke-width="2" stroke-linecap="round" stroke-linejoin="round"/>
<path d="M8.24976 6.61468V5.84555C8.24976 4.82561 8.64484 3.84745 9.34811 3.12625C10.0514 2.40505 11.0052 1.99988 11.9998 1.99988C12.9943 1.99988 13.9481 2.40505 14.6514 3.12625C15.3547 3.84745 15.7498 4.82561 15.7498 5.84555V6.61468" stroke="#787776" stroke-width="2" stroke-linecap="round" stroke-linejoin="round"/>
<path d="M9.74976 9.68738V18.1478" stroke="#787776" stroke-width="2" stroke-linecap="round" stroke-linejoin="round"/>
<path d="M14.2498 9.69519V18.1557" stroke="#787776" stroke-width="2" stroke-linecap="round" stroke-linejoin="round"/>
</g>
</svg>
