<svg width="24" height="24" viewBox="0 0 24 24" fill="none" xmlns="http://www.w3.org/2000/svg">
<g style="mix-blend-mode:plus-darker">
<path d="M4 20.2619V3.7381C4 3.14286 4.13217 2.70635 4.39652 2.42857C4.66086 2.14286 4.97522 2 5.33958 2C5.66109 2 5.98973 2.10317 6.32552 2.30952L18.8104 10.4167C19.2534 10.7024 19.5606 10.9603 19.7321 11.1905C19.9107 11.4127 20 11.6825 20 12C20 12.3095 19.9107 12.5794 19.7321 12.8095C19.5606 13.0397 19.2534 13.2976 18.8104 13.5833L6.32552 21.6905C5.98973 21.8968 5.66109 22 5.33958 22C4.97522 22 4.66086 21.8571 4.39652 21.5714C4.13217 21.2857 4 20.8492 4 20.2619Z" fill="#787776"/>
</g>
</svg>
