<svg width="20" height="20" viewBox="0 0 20 20" fill="none" xmlns="http://www.w3.org/2000/svg">
<g style="mix-blend-mode:plus-darker">
<path d="M18 10C18 14.4184 14.4184 18 10 18C5.5816 18 2 14.4184 2 10C2 5.5816 5.5816 2 10 2V3.6C8.46763 3.60017 6.98618 4.15016 5.82492 5.14999C4.66367 6.14982 3.89969 7.53312 3.67186 9.04846C3.44403 10.5638 3.76747 12.1106 4.58338 13.4077C5.3993 14.7048 6.65353 15.6661 8.1181 16.1168C9.58268 16.5676 11.1604 16.4779 12.5644 15.8641C13.9685 15.2502 15.1057 14.153 15.7694 12.7718C16.433 11.3906 16.5791 9.81712 16.181 8.33736C15.7829 6.85759 14.8671 5.56979 13.6 4.708V6.8H12V2H16.8V3.6H14.8C15.794 4.34474 16.6008 5.31093 17.1563 6.42187C17.7117 7.53281 18.0006 8.75793 18 10Z" fill="#787776"/>
</g>
</svg>
