<svg width="24" height="24" viewBox="0 0 24 24" fill="none" xmlns="http://www.w3.org/2000/svg">
<g style="mix-blend-mode:plus-darker">
<path d="M10.3221 15.9784C11.1117 15.9784 11.8563 15.8308 12.5558 15.5358C13.2554 15.2338 13.8719 14.8221 14.4052 14.3006C14.9385 13.7722 15.3541 13.1614 15.6519 12.4683C15.9567 11.7753 16.1091 11.0341 16.1091 10.245C16.1091 9.45582 15.9567 8.7147 15.6519 8.02162C15.3541 7.32853 14.9385 6.71779 14.4052 6.1894C13.8719 5.66101 13.2554 5.24927 12.5558 4.95419C11.8563 4.65912 11.1117 4.51158 10.3221 4.51158C9.52554 4.51158 8.77749 4.65912 8.07792 4.95419C7.37836 5.24927 6.7619 5.66101 6.22857 6.1894C5.69524 6.71779 5.27619 7.32853 4.97143 8.02162C4.67359 8.7147 4.52468 9.45582 4.52468 10.245C4.52468 11.0341 4.67359 11.7753 4.97143 12.4683C5.27619 13.1614 5.69524 13.7722 6.22857 14.3006C6.7619 14.8221 7.37836 15.2338 8.07792 15.5358C8.77749 15.8308 9.52554 15.9784 10.3221 15.9784ZM10.3221 18.49C9.17229 18.49 8.09524 18.2738 7.09091 17.8415C6.09351 17.4092 5.21039 16.8156 4.44156 16.0607C3.67965 15.3059 3.08052 14.4309 2.64416 13.4359C2.21472 12.4409 2 11.3773 2 10.245C2 9.11271 2.21472 8.04907 2.64416 7.05404C3.08052 6.05902 3.67965 5.18408 4.44156 4.42923C5.21039 3.66752 6.09697 3.07394 7.1013 2.64848C8.10563 2.21616 9.17922 2 10.3221 2C11.4649 2 12.5351 2.21616 13.5325 2.64848C14.5368 3.07394 15.4199 3.66752 16.1818 4.42923C16.9506 5.18408 17.5498 6.05902 17.9792 7.05404C18.4156 8.04907 18.6338 9.11271 18.6338 10.245C18.6338 11.3773 18.4156 12.4409 17.9792 13.4359C17.5498 14.4309 16.9506 15.3059 16.1818 16.0607C15.4199 16.8156 14.5368 17.4092 13.5325 17.8415C12.5351 18.2738 11.4649 18.49 10.3221 18.49ZM20.2442 22C20.0017 22 19.7697 21.9588 19.5481 21.8765C19.3264 21.7941 19.129 21.6672 18.9558 21.4956L13.6156 16.1945L16.1818 13.7138L21.5013 18.984C21.6814 19.1556 21.8095 19.3477 21.8857 19.5605C21.9619 19.7801 22 20.0031 22 20.2295C22 20.5658 21.9238 20.8643 21.7714 21.1251C21.619 21.3927 21.4078 21.6054 21.1377 21.7633C20.8745 21.9211 20.5766 22 20.2442 22Z" fill="#AAAAAD"/>
</g>
</svg>
