<svg width="12" height="12" viewBox="0 0 12 12" fill="none" xmlns="http://www.w3.org/2000/svg">
<g style="mix-blend-mode:plus-darker">
<path d="M5.32883 7.59135C5.64468 7.59135 5.94251 7.53234 6.22234 7.41431C6.50216 7.29353 6.74874 7.12884 6.96208 6.92023C7.17541 6.70887 7.34164 6.46457 7.46078 6.18734C7.58268 5.9101 7.64364 5.61366 7.64364 5.29799C7.64364 4.98233 7.58268 4.68588 7.46078 4.40865C7.34164 4.13141 7.17541 3.88712 6.96208 3.67576C6.74874 3.4644 6.50216 3.29971 6.22234 3.18168C5.94251 3.06365 5.64468 3.00463 5.32883 3.00463C5.01022 3.00463 4.711 3.06365 4.43117 3.18168C4.15134 3.29971 3.90476 3.4644 3.69143 3.67576C3.4781 3.88712 3.31048 4.13141 3.18857 4.40865C3.06944 4.68588 3.00987 4.98233 3.00987 5.29799C3.00987 5.61366 3.06944 5.9101 3.18857 6.18734C3.31048 6.46457 3.4781 6.70887 3.69143 6.92023C3.90476 7.12884 4.15134 7.29353 4.43117 7.41431C4.711 7.53234 5.01022 7.59135 5.32883 7.59135ZM5.32883 8.59599C4.86892 8.59599 4.4381 8.50952 4.03636 8.33659C3.6374 8.16366 3.28416 7.92623 2.97662 7.62429C2.67186 7.32235 2.43221 6.97238 2.25766 6.57437C2.08589 6.17636 2 5.7509 2 5.29799C2 4.84508 2.08589 4.41963 2.25766 4.02162C2.43221 3.62361 2.67186 3.27363 2.97662 2.97169C3.28416 2.66701 3.63879 2.42958 4.04052 2.25939C4.44225 2.08646 4.87169 2 5.32883 2C5.78597 2 6.21403 2.08646 6.61299 2.25939C7.01472 2.42958 7.36797 2.66701 7.67273 2.97169C7.98026 3.27363 8.21991 3.62361 8.39169 4.02162C8.56623 4.41963 8.65351 4.84508 8.65351 5.29799C8.65351 5.7509 8.56623 6.17636 8.39169 6.57437C8.21991 6.97238 7.98026 7.32235 7.67273 7.62429C7.36797 7.92623 7.01472 8.16366 6.61299 8.33659C6.21403 8.50952 5.78597 8.59599 5.32883 8.59599ZM9.29766 10C9.20069 10 9.10788 9.98353 9.01922 9.95059C8.93056 9.91765 8.8516 9.86687 8.78234 9.79825L6.64623 7.67782L7.67273 6.68554L9.80052 8.79362C9.87255 8.86224 9.92381 8.9391 9.95429 9.02419C9.98476 9.11203 10 9.20124 10 9.29182C10 9.42632 9.96952 9.54572 9.90857 9.65003C9.84762 9.75708 9.76312 9.84217 9.65506 9.9053C9.54978 9.96843 9.43065 10 9.29766 10Z" fill="#787776"/>
</g>
</svg>
