<svg width="20" height="20" viewBox="0 0 20 20" fill="none" xmlns="http://www.w3.org/2000/svg">
<g style="mix-blend-mode:plus-darker">
<path d="M8.65766 13.1827C9.28935 13.1827 9.88502 13.0647 10.4447 12.8286C11.0043 12.5871 11.4975 12.2577 11.9242 11.8405C12.3508 11.4177 12.6833 10.9291 12.9216 10.3747C13.1654 9.82021 13.2873 9.22731 13.2873 8.59599C13.2873 7.96466 13.1654 7.37176 12.9216 6.81729C12.6833 6.26282 12.3508 5.77423 11.9242 5.35152C11.4975 4.9288 11.0043 4.59942 10.4447 4.36336C9.88502 4.12729 9.28935 4.00926 8.65766 4.00926C8.02043 4.00926 7.42199 4.12729 6.86234 4.36336C6.30268 4.59942 5.80952 4.9288 5.38286 5.35152C4.95619 5.77423 4.62095 6.26282 4.37714 6.81729C4.13887 7.37176 4.01974 7.96466 4.01974 8.59599C4.01974 9.22731 4.13887 9.82021 4.37714 10.3747C4.62095 10.9291 4.95619 11.4177 5.38286 11.8405C5.80952 12.2577 6.30268 12.5871 6.86234 12.8286C7.42199 13.0647 8.02043 13.1827 8.65766 13.1827ZM8.65766 15.192C7.73783 15.192 6.87619 15.019 6.07273 14.6732C5.27481 14.3273 4.56831 13.8525 3.95325 13.2486C3.34372 12.6447 2.86442 11.9448 2.51532 11.1487C2.17177 10.3527 2 9.5018 2 8.59599C2 7.69017 2.17177 6.83925 2.51532 6.04323C2.86442 5.24721 3.34372 4.54726 3.95325 3.94339C4.56831 3.33402 5.27758 2.85915 6.08104 2.51879C6.8845 2.17293 7.74338 2 8.65766 2C9.57195 2 10.4281 2.17293 11.226 2.51879C12.0294 2.85915 12.7359 3.33402 13.3455 3.94339C13.9605 4.54726 14.4398 5.24721 14.7834 6.04323C15.1325 6.83925 15.307 7.69017 15.307 8.59599C15.307 9.5018 15.1325 10.3527 14.7834 11.1487C14.4398 11.9448 13.9605 12.6447 13.3455 13.2486C12.7359 13.8525 12.0294 14.3273 11.226 14.6732C10.4281 15.019 9.57195 15.192 8.65766 15.192ZM16.5953 18C16.4014 18 16.2158 17.9671 16.0384 17.9012C15.8611 17.8353 15.7032 17.7337 15.5647 17.5965L11.2925 13.3556L13.3455 11.3711L17.601 15.5872C17.7451 15.7245 17.8476 15.8782 17.9086 16.0484C17.9695 16.2241 18 16.4025 18 16.5836C18 16.8526 17.939 17.0914 17.8171 17.3001C17.6952 17.5142 17.5262 17.6843 17.3101 17.8106C17.0996 17.9369 16.8613 18 16.5953 18Z" fill="#787776"/>
</g>
</svg>
