<svg width="12" height="12" viewBox="0 0 12 12" fill="none" xmlns="http://www.w3.org/2000/svg">
<g style="mix-blend-mode:plus-darker">
<path d="M9.34636 6.26396C9.28109 6.19098 9.24509 6.09715 9.24509 6C9.24509 5.90285 9.28109 5.80902 9.34636 5.73604L9.86751 5.16011C9.92494 5.09719 9.9606 5.01801 9.96937 4.93395C9.97815 4.84988 9.9596 4.76524 9.91637 4.69218L9.10207 3.30837C9.05928 3.23538 8.99413 3.17753 8.9159 3.14306C8.83768 3.10859 8.75037 3.09926 8.66642 3.11639L7.90098 3.26837C7.80359 3.28814 7.70219 3.27221 7.61593 3.22358C7.52968 3.17495 7.46452 3.09699 7.43276 3.00441L7.1844 2.27251C7.15709 2.19307 7.10505 2.12407 7.03564 2.07527C6.96623 2.02647 6.88297 2.00033 6.79761 2.00054H5.16902C5.08023 1.99599 4.99237 2.02011 4.91885 2.06922C4.84533 2.11833 4.7902 2.18973 4.76187 2.27251L4.53387 3.00441C4.50211 3.09699 4.43695 3.17495 4.3507 3.22358C4.26444 3.27221 4.16304 3.28814 4.06565 3.26837L3.27985 3.11639C3.20027 3.10535 3.11915 3.11768 3.0467 3.15184C2.97424 3.18601 2.9137 3.24047 2.8727 3.30837L2.05841 4.69218C2.01409 4.76443 1.99417 4.84859 2.00148 4.93263C2.00879 5.01668 2.04297 5.0963 2.09912 5.16011L2.6162 5.73604C2.68147 5.80902 2.71747 5.90285 2.71747 6C2.71747 6.09715 2.68147 6.19098 2.6162 6.26396L2.09912 6.83989C2.04297 6.9037 2.00879 6.98332 2.00148 7.06737C1.99417 7.15141 2.01409 7.23557 2.05841 7.30782L2.8727 8.69163C2.91549 8.76462 2.98065 8.82247 3.05887 8.85694C3.1371 8.89141 3.22441 8.90074 3.30835 8.88361L4.07379 8.73163C4.17119 8.71186 4.27258 8.72779 4.35884 8.77642C4.4451 8.82505 4.51025 8.90301 4.54201 8.99559L4.79037 9.72749C4.8187 9.81027 4.87383 9.88167 4.94735 9.93078C5.02087 9.97989 5.10873 10.004 5.19752 9.99946H6.82611C6.91147 9.99967 6.99473 9.97353 7.06414 9.92473C7.13355 9.87593 7.18559 9.80693 7.2129 9.72749L7.46126 8.99559C7.49302 8.90301 7.55818 8.82505 7.64443 8.77642C7.73069 8.72779 7.83209 8.71186 7.92948 8.73163L8.69492 8.88361C8.77887 8.90074 8.86618 8.89141 8.9444 8.85694C9.02263 8.82247 9.08778 8.76462 9.13057 8.69163L9.94487 7.30782C9.9881 7.23476 10.0067 7.15012 9.99788 7.06605C9.9891 6.98199 9.95344 6.90281 9.89601 6.83989L9.34636 6.26396ZM8.73971 6.79989L9.06543 7.15984L8.54428 8.04772L8.06384 7.95173C7.77061 7.89285 7.46557 7.94178 7.20663 8.08924C6.94769 8.23669 6.75288 8.4724 6.65918 8.75163L6.50447 9.19956H5.46217L5.31559 8.74363C5.22189 8.4644 5.02708 8.22869 4.76814 8.08124C4.50921 7.93378 4.20417 7.88486 3.91093 7.94374L3.4305 8.03972L2.9012 7.15584L3.22692 6.79589C3.42722 6.57591 3.53796 6.29113 3.53796 5.996C3.53796 5.70087 3.42722 5.41609 3.22692 5.19611L2.9012 4.83616L3.42235 3.95628L3.90279 4.05226C4.19602 4.11115 4.50106 4.06222 4.76 3.91476C5.01894 3.76731 5.21375 3.5316 5.30745 3.25237L5.46217 2.80044H6.50447L6.65918 3.25637C6.75288 3.5356 6.94769 3.77131 7.20663 3.91876C7.46557 4.06622 7.77061 4.11515 8.06384 4.05626L8.54428 3.96028L9.06543 4.84816L8.73971 5.20811C8.54166 5.42758 8.4323 5.71071 8.4323 6.004C8.4323 6.29729 8.54166 6.58042 8.73971 6.79989ZM5.98332 4.40022C5.66121 4.40022 5.34634 4.49404 5.07852 4.66983C4.8107 4.84562 4.60196 5.09547 4.47869 5.38779C4.35543 5.68011 4.32318 6.00177 4.38601 6.3121C4.44885 6.62243 4.60396 6.90748 4.83173 7.13122C5.05949 7.35495 5.34968 7.50732 5.66559 7.56904C5.98151 7.63077 6.30896 7.59909 6.60655 7.47801C6.90414 7.35692 7.15849 7.15187 7.33744 6.88879C7.51639 6.62571 7.61191 6.31641 7.61191 6C7.61191 5.57571 7.44032 5.1688 7.1349 4.86878C6.82948 4.56877 6.41525 4.40022 5.98332 4.40022ZM5.98332 6.79989C5.82226 6.79989 5.66483 6.75298 5.53092 6.66509C5.39701 6.57719 5.29264 6.45227 5.231 6.30611C5.16937 6.15994 5.15325 5.99911 5.18466 5.84395C5.21608 5.68879 5.29364 5.54626 5.40752 5.43439C5.5214 5.32253 5.6665 5.24634 5.82445 5.21548C5.98241 5.18461 6.14614 5.20045 6.29493 5.261C6.44373 5.32154 6.5709 5.42406 6.66038 5.5556C6.74985 5.68715 6.79761 5.8418 6.79761 6C6.79761 6.21214 6.71182 6.4156 6.55911 6.56561C6.4064 6.71562 6.19928 6.79989 5.98332 6.79989Z" fill="#787776"/>
</g>
</svg>
