<svg preserveAspectRatio="none" width="100%" height="100%" overflow="visible" style="display: block;" viewBox="0 0 18 16" fill="none" xmlns="http://www.w3.org/2000/svg">
<path id="Vector" d="M15.75 1.45455H9.177L6.177 0H2.25C1.65326 0 1.08097 0.229869 0.65901 0.63904C0.237053 1.04821 0 1.60316 0 2.18182L0 16H18V3.63636C18 3.05771 17.7629 2.50276 17.341 2.09359C16.919 1.68442 16.3467 1.45455 15.75 1.45455ZM2.25 1.45455H5.823L8.823 2.90909H15.75C15.9489 2.90909 16.1397 2.98571 16.2803 3.1221C16.421 3.25849 16.5 3.44348 16.5 3.63636V4.27709L1.5 4.35927V2.18182C1.5 1.98893 1.57902 1.80395 1.71967 1.66756C1.86032 1.53117 2.05109 1.45455 2.25 1.45455V1.45455ZM1.5 14.5455V5.81382L16.5 5.73164V14.5455H1.5Z" fill="var(--fill-0, white)"/>
</svg>
