<svg preserveAspectRatio="none" width="100%" height="100%" overflow="visible" style="display: block;" viewBox="0 0 16 16" fill="none" xmlns="http://www.w3.org/2000/svg">
<path id="Increment" d="M1.24528 9.25074C0.90566 9.25074 0.613208 9.12802 0.367925 8.8826C0.122642 8.63717 0 8.3414 0 7.99528C0 7.64916 0.122642 7.35339 0.367925 7.10796C0.613208 6.86254 0.90566 6.73982 1.24528 6.73982H14.7547C15.0943 6.73982 15.3868 6.86254 15.6321 7.10796C15.8774 7.35339 16 7.64916 16 7.99528C16 8.3414 15.8774 8.63717 15.6321 8.8826C15.3868 9.12802 15.0943 9.25074 14.7547 9.25074H1.24528ZM8 16C7.65409 16 7.35849 15.8773 7.11321 15.6319C6.86792 15.3864 6.74528 15.0938 6.74528 14.754V1.24602C6.74528 0.906195 6.86792 0.613569 7.11321 0.368142C7.35849 0.122714 7.65409 0 8 0C8.34591 0 8.64151 0.122714 8.88679 0.368142C9.13208 0.613569 9.25472 0.906195 9.25472 1.24602V14.754C9.25472 15.0938 9.13208 15.3864 8.88679 15.6319C8.64151 15.8773 8.34591 16 8 16Z" fill="var(--fill-0, white)"/>
</svg>
